<svg width="40" height="40" viewBox="0 0 40 40" fill="none" xmlns="http://www.w3.org/2000/svg">
<path d="M20 0C8.955 0 0 8.955 0 20C0 31.045 8.955 40 20 40C31.045 40 40 31.045 40 20C40 8.955 31.045 0 20 0ZM20 32.7667C18.4367 32.7667 17.3667 31.5617 17.3667 30C17.3667 28.3933 18.4817 27.2333 20 27.2333C21.605 27.2333 22.6333 28.3933 22.6333 30C22.6333 31.5633 21.605 32.7667 20 32.7667ZM21.0367 22.2017C20.6383 23.56 19.3833 23.5833 18.965 22.2017C18.4833 20.6083 16.7717 14.56 16.7717 10.6317C16.7717 5.44833 23.2567 5.42333 23.2567 10.6317C23.255 14.5833 21.4517 20.7883 21.0367 22.2017Z" fill="#E50000"/>
</svg>
