<svg width="40" height="40" viewBox="0 0 40 40" fill="none" xmlns="http://www.w3.org/2000/svg">
<path fill-rule="evenodd" clip-rule="evenodd" d="M0 20C0 8.9543 8.9543 0 20 0C31.0456 0 40 8.9543 40 20C40 31.0456 31.0456 40 20 40C8.9543 40 0 31.0456 0 20ZM27.4142 14.5858C28.1952 15.3668 28.1952 16.6332 27.4142 17.4142L20.0486 24.7798C18.9172 25.9112 17.0828 25.9112 15.9514 24.7798L12.5858 21.4142C11.8047 20.6332 11.8047 19.3668 12.5858 18.5858C13.3668 17.8048 14.6332 17.8048 15.4142 18.5858L18 21.1716L24.5858 14.5858C25.3668 13.8047 26.6332 13.8047 27.4142 14.5858Z" fill="#358C26"/>
</svg>
