<svg width="638" height="520" viewBox="0 0 638 520" fill="none" xmlns="http://www.w3.org/2000/svg">
   <!-- 1 -->
   <path
      d="M209.388 246.848H165.733C148.512 246.848 134.53 232.486 134.53 214.798V137.91H209.388C226.609 137.91 240.591 152.272 240.591 169.96V214.798C240.591 232.486 226.609 246.848 209.388 246.848Z"
      fill="#93C9B7">
      <animate attributeName="fill" values="#93C9B7; #d9d9d6; #93C9B7" dur="3s" repeatCount="indefinite" begin="0s" />
   </path>
   <path
      d="M106.061 110.357L31.2031 110.357C13.9821 110.357 2.28882e-05 95.996 2.28882e-05 78.3079L2.28882e-05 33.4694C2.28882e-05 15.7813 13.9821 1.41991 31.2031 1.41991L74.8577 1.41991C92.0787 1.41991 106.061 15.7813 106.061 33.4694L106.061 110.357Z"
      fill="#93C9B7">
      <animate attributeName="fill" values="#93C9B7; #d9d9d6; #93C9B7" dur="3s" repeatCount="indefinite" begin="0s" />
   </path>
   <path
      d="M165.733 383.346H209.388C226.621 383.346 240.591 368.997 240.591 351.296V306.458C240.591 288.757 226.621 274.408 209.388 274.408H165.733C148.5 274.408 134.53 288.757 134.53 306.458V351.296C134.53 368.997 148.5 383.346 165.733 383.346Z"
      fill="#93C9B7">
      <animate attributeName="fill" values="#93C9B7; #d9d9d6; #93C9B7" dur="3s" repeatCount="indefinite" begin="0s" />
   </path>
   <path d="M134.53 301.318H240.591V192.381H134.53V301.318Z" fill="#93C9B7">
      <animate attributeName="fill" values="#93C9B7; #d9d9d6; #93C9B7" dur="3s" repeatCount="indefinite" begin="0s" />
   </path>
   <path
      d="M105.93 126.835C110.009 130.133 113.761 133.824 117.084 137.918C127.883 151.215 134.398 168.319 134.398 187.004L160.146 181.477L159.646 163.977L180.545 137.918C163.1 137.918 147.092 131.734 134.398 121.448C130.319 118.15 126.567 114.459 123.244 110.365C112.445 97.0677 105.93 79.9644 105.93 61.2793L76.6455 84.9766L59.7739 110.365C77.219 110.365 93.2265 116.549 105.93 126.835Z"
      fill="#93C9B7">
      <animate attributeName="fill" values="#93C9B7; #d9d9d6; #93C9B7" dur="3s" repeatCount="indefinite" begin="0s" />
   </path>

   <!-- 2 -->
   <path
      d="M396.737 410.891H502.798V487.779C502.798 505.467 488.816 519.828 471.595 519.828H427.94C410.719 519.828 396.737 505.467 396.737 487.779V410.891Z"
      fill="#37B994">
      <animate attributeName="fill" values="#37B994; #d9d9d6; #37B994" dur="3s" repeatCount="indefinite" begin="2s" />
   </path>
   <path
      d="M562.46 274.4H606.115C623.336 274.4 637.318 288.762 637.318 306.45V351.288C637.318 368.977 623.336 383.338 606.115 383.338H531.257V306.45C531.257 288.762 545.239 274.4 562.46 274.4Z"
      fill="#37B994">
      <animate attributeName="fill" values="#37B994; #d9d9d6; #37B994" dur="3s" repeatCount="indefinite" begin="2s" />
   </path>
   <path
      d="M556.793 343.387L576.833 382.783C559.551 382.971 543.703 389.128 531.089 399.265C526.977 402.564 523.193 406.259 519.84 410.357C509.042 423.552 502.492 440.492 502.382 459.004L460.116 461.448L457.175 411.17C474.567 411.047 490.519 404.88 503.193 394.688C507.305 391.389 511.089 387.695 514.442 383.596C525.198 370.452 531.74 353.594 531.899 335.166L556.793 343.387Z"
      fill="#37B994">
      <animate attributeName="fill" values="#37B994; #d9d9d6; #37B994" dur="3s" repeatCount="indefinite" begin="2s" />
   </path>
   <path
      d="M368.782 383.35H293.925C276.704 383.35 262.721 368.988 262.721 351.3V306.462C262.721 288.773 276.704 274.412 293.925 274.412H337.579C354.8 274.412 368.782 288.773 368.782 306.462V383.35Z"
      fill="#37B994">
      <animate attributeName="fill" values="#37B994; #d9d9d6; #37B994" dur="3s" repeatCount="indefinite" begin="2s" />
   </path>
   <path
      d="M368.652 399.808C372.73 403.106 376.483 406.797 379.806 410.891C390.605 424.188 397.12 441.291 397.12 459.976L446.146 451.477L443.267 410.891C425.822 410.891 409.814 404.707 397.12 394.42C393.041 391.122 389.289 387.431 385.966 383.338C375.166 370.04 368.652 352.937 368.652 334.252L322.495 340.977V383.338C339.94 383.338 355.948 389.521 368.652 399.808Z"
      fill="#37B994">
      <animate attributeName="fill" values="#37B994; #d9d9d6; #37B994" dur="3s" repeatCount="indefinite" begin="2s" />
   </path>

   <!-- 3 -->
   <path
      d="M531.257 247.115V138.178H606.115C623.336 138.178 637.318 152.539 637.318 170.227V215.066C637.318 232.754 623.336 247.115 606.115 247.115H531.257Z"
      fill="#93C9B7">
      <animate attributeName="fill" values="#93C9B7; #d9d9d6; #93C9B7" dur="3s" repeatCount="indefinite" begin="1s" />
   </path>
   <path
      d="M398.38 76.8881V32.0495C398.38 14.3614 412.362 -0.000137329 429.583 -0.000137329H473.238C490.459 -0.000137329 504.441 14.3614 504.441 32.0495V108.938H429.583C412.362 108.938 398.38 94.5762 398.38 76.8881Z"
      fill="#93C9B7">
      <animate attributeName="fill" values="#93C9B7; #d9d9d6; #93C9B7" dur="3s" repeatCount="indefinite" begin="1s" />
   </path>
   <path
      d="M520.467 108.804C523.678 112.994 527.271 116.848 531.257 120.261C544.203 131.353 560.855 138.045 579.046 138.045V175.479L531.257 185.443C531.257 167.525 525.237 151.083 515.221 138.045C512.01 133.855 508.417 130.001 504.431 126.588C491.485 115.496 474.834 108.804 456.642 108.804L468.646 71.9785L504.431 61.3965C504.431 79.3147 510.452 95.7564 520.467 108.804Z"
      fill="#93C9B7">
      <animate attributeName="fill" values="#93C9B7; #d9d9d6; #93C9B7" dur="3s" repeatCount="indefinite" begin="1s" />
   </path>
   <path
      d="M504.422 275.82V352.708C504.422 370.396 490.44 384.758 473.219 384.758H429.564C412.343 384.758 398.361 370.396 398.361 352.708V307.87C398.361 290.182 412.343 275.82 429.564 275.82H504.422Z"
      fill="#93C9B7">
      <animate attributeName="fill" values="#93C9B7; #d9d9d6; #93C9B7" dur="3s" repeatCount="indefinite" begin="1s" />
   </path>
   <path
      d="M520.467 275.963C523.678 271.773 527.271 267.919 531.257 264.506C544.203 253.414 560.855 246.723 579.046 246.723L561.646 211.979L531.257 199.324C531.257 217.242 525.237 233.684 515.221 246.723C512.01 250.912 508.417 254.766 504.431 258.179C491.485 269.271 474.834 275.963 456.642 275.963L488.646 289.479L504.431 323.371C504.431 305.453 510.452 289.011 520.467 275.963Z"
      fill="#93C9B7">
      <animate attributeName="fill" values="#93C9B7; #d9d9d6; #93C9B7" dur="3s" repeatCount="indefinite" begin="1s" />
   </path>

   <!-- 4 -->
   <path
      d="M293.925 246.848H337.579C354.812 246.848 368.782 232.499 368.782 214.798V169.96C368.782 152.259 354.812 137.91 337.579 137.91H293.925C276.692 137.91 262.721 152.259 262.721 169.96V214.798C262.721 232.499 276.692 246.848 293.925 246.848Z"
      fill="#D9D9D6">
      <animate attributeName="fill" values="#d9d9d6; #37B994; #d9d9d6" dur="3s" repeatCount="indefinite" begin="0s" />
   </path>

   <!-- 5 -->
   <path
      d="M428.883 246.848H472.538C489.771 246.848 503.741 232.499 503.741 214.798V169.96C503.741 152.259 489.771 137.91 472.538 137.91H428.883C411.65 137.91 397.68 152.259 397.68 169.96V214.798C397.68 232.499 411.65 246.848 428.883 246.848Z"
      fill="#D9D9D6">
      <animate attributeName="fill" values="#d9d9d6; #37B994; #d9d9d6" dur="3s" repeatCount="indefinite" begin="1s" />
   </path>

   <!-- 6 -->
   <path
      d="M293.925 519.828H337.579C354.812 519.828 368.782 505.479 368.782 487.779V442.94C368.782 425.24 354.812 410.891 337.579 410.891H293.925C276.692 410.891 262.721 425.24 262.721 442.94V487.779C262.721 505.479 276.692 519.828 293.925 519.828Z"
      fill="#D9D9D6">
      <animate attributeName="fill" values="#d9d9d6; #37B994; #d9d9d6" dur="3s" repeatCount="indefinite" begin="2s" />
   </path>

   <!-- 7 -->
   <path
      d="M562.46 519.828H606.115C623.348 519.828 637.318 505.479 637.318 487.779V442.94C637.318 425.24 623.348 410.891 606.115 410.891H562.46C545.227 410.891 531.257 425.24 531.257 442.94V487.779C531.257 505.479 545.227 519.828 562.46 519.828Z"
      fill="#D9D9D6">
      <animate attributeName="fill" values="#d9d9d6; #37B994; #d9d9d6" dur="3s" repeatCount="indefinite" begin="1s" />
   </path>


   <!-- other -->
   <path
      d="M62.883 24.043H38.3535C28.7653 24.043 20.9924 32.0266 20.9924 41.8749V67.0696C20.9924 76.9179 28.7653 84.9015 38.3535 84.9015H62.883C72.4712 84.9015 80.2441 76.9179 80.2441 67.0696V41.8749C80.2441 32.0266 72.4712 24.043 62.883 24.043Z"
      fill="#37B994" />
   <path d="M50.6182 66.7138V42.2285" stroke="white" stroke-width="3.85489" stroke-miterlimit="10" />
   <path d="M62.5375 54.4707H38.7083" stroke="white" stroke-width="3.85489" stroke-miterlimit="10" />
   <path d="M314.997 173.594V182.721" stroke="#5B6770" stroke-width="3.64955" stroke-miterlimit="10" />
   <path d="M314.997 167.477L309.854 174.015H320.149L314.997 167.477Z" fill="#5B6770" stroke="#5B6770"
      stroke-width="3.64955" stroke-miterlimit="10" />
   <path d="M314.997 212.037V202.91" stroke="#5B6770" stroke-width="3.64955" stroke-miterlimit="10" />
   <path d="M314.997 218.153L309.854 211.605H320.149L314.997 218.153Z" fill="#5B6770" stroke="#5B6770"
      stroke-width="3.64955" stroke-miterlimit="10" />
   <path d="M335.196 192.709H326.3" stroke="#5B6770" stroke-width="3.64955" stroke-miterlimit="10" />
   <path d="M341.141 192.71L334.775 198.002V187.418L341.141 192.71Z" fill="#5B6770" stroke="#5B6770"
      stroke-width="3.64955" stroke-miterlimit="10" />
   <path d="M295.601 192.709H304.487" stroke="#5B6770" stroke-width="3.64955" stroke-miterlimit="10" />
   <path d="M289.646 192.71L296.021 198.002V187.418L289.646 192.71Z" fill="#5B6770" stroke="#5B6770"
      stroke-width="3.64955" stroke-miterlimit="10" />
   <path d="M319.832 188.338H310.965V197.302H319.832V188.338Z" fill="white" stroke="#5B6770" stroke-width="3.64955"
      stroke-miterlimit="10" />
   <path
      d="M436.82 187.376C442.439 187.376 446.994 182.698 446.994 176.926C446.994 171.155 442.439 166.477 436.82 166.477C431.201 166.477 426.646 171.155 426.646 176.926C426.646 182.698 431.201 187.376 436.82 187.376Z"
      fill="#D9D9D6" stroke="#5B6770" stroke-width="3.64955" stroke-miterlimit="10" />
   <path
      d="M465.204 218.869C470.782 218.869 475.304 214.225 475.304 208.496C475.304 202.767 470.782 198.123 465.204 198.123C459.627 198.123 455.105 202.767 455.105 208.496C455.105 214.225 459.627 218.869 465.204 218.869Z"
      fill="#C8E7F2" stroke="#4791CF" stroke-width="3.64955" stroke-miterlimit="10" />
   <path
      d="M455.105 210.395C460.683 210.395 465.204 205.751 465.204 200.022C465.204 194.293 460.683 189.648 455.105 189.648C449.527 189.648 445.006 194.293 445.006 200.022C445.006 205.751 449.527 210.395 455.105 210.395Z"
      fill="#C8E7F2" stroke="#4791CF" stroke-width="3.64955" stroke-miterlimit="10" />
   <path
      d="M469.097 179.965V175.402C469.143 175.056 469.05 173.005 467.519 171.509C466.147 170.167 464.42 170.436 463.916 170.33"
      stroke="#5B6770" stroke-width="3.64955" stroke-miterlimit="10" />
   <path d="M452.837 170.32H464.271" stroke="#5B6770" stroke-width="3.64955" stroke-miterlimit="10" />
   <path d="M469.096 183.013L466.52 179.744H471.673L469.096 183.013Z" fill="#5B6770" stroke="#5B6770"
      stroke-width="3.64955" stroke-miterlimit="10" />
   <path d="M213.71 177.98L201.567 165.479" stroke="#5B6770" stroke-width="3.64955" stroke-miterlimit="10" />
   <path d="M173.798 218.982L161.646 206.48" stroke="#5B6770" stroke-width="3.64955" stroke-miterlimit="10" />
   <path d="M197.852 181.775L177.803 202.378" stroke="#5B6770" stroke-width="3.64955" stroke-miterlimit="10" />
   <path d="M202.062 177.451L201.203 185.821L193.913 178.343L202.062 177.451Z" fill="#5B6770" stroke="#5B6770"
      stroke-width="3.64955" stroke-miterlimit="10" />
   <path d="M173.295 206.999L181.443 206.117L174.153 198.639L173.295 206.999Z" fill="#5B6770" stroke="#5B6770"
      stroke-width="3.64955" stroke-miterlimit="10" />
   <path d="M291.646 438.477V492.154" stroke="#5B6770" stroke-width="3.64955" stroke-miterlimit="10" />
   <path
      d="M336.589 468.178H301.783C300.107 468.178 298.749 469.573 298.749 471.294V481.494C298.749 483.215 300.107 484.61 301.783 484.61H336.589C338.264 484.61 339.622 483.215 339.622 481.494V471.294C339.622 469.573 338.264 468.178 336.589 468.178Z"
      fill="#D9D9D6" stroke="#5B6770" stroke-width="3.64955" stroke-miterlimit="10" />
   <path
      d="M313.926 445.119H301.605C300.028 445.119 298.749 446.433 298.749 448.053V457.093C298.749 458.714 300.028 460.027 301.605 460.027H313.926C315.503 460.027 316.782 458.714 316.782 457.093V448.053C316.782 446.433 315.503 445.119 313.926 445.119Z"
      fill="#C8E7F2" stroke="#4791CF" stroke-width="3.64955" stroke-miterlimit="10" />
   <path d="M438.596 307.611H428.805V317.505H438.596V307.611Z" fill="white" stroke="#5B6770" stroke-width="3.64955"
      stroke-miterlimit="10" />
   <path
      d="M447.5 350.973H431.259C429.816 350.973 428.646 352.174 428.646 353.657V358.777C428.646 360.259 429.816 361.461 431.259 361.461H447.5C448.944 361.461 450.114 360.259 450.114 358.777V353.657C450.114 352.174 448.944 350.973 447.5 350.973Z"
      fill="#C8E7F2" stroke="#4791CF" stroke-width="3.64955" stroke-miterlimit="10" />
   <path
      d="M468.507 343.118L464.732 346.995C464.164 347.579 464.164 348.526 464.732 349.11L468.507 352.988C469.076 353.572 469.998 353.572 470.567 352.988L474.342 349.11C474.911 348.526 474.911 347.579 474.342 346.995L470.567 343.118C469.998 342.533 469.076 342.533 468.507 343.118Z"
      fill="#C8E7F2" stroke="#4791CF" stroke-width="3.64955" stroke-miterlimit="10" />
   <path
      d="M471.274 309.221V315.884C471.274 316.848 472.034 317.629 472.973 317.629H478.984C479.922 317.629 480.682 316.848 480.682 315.884V309.221C480.682 308.257 479.922 307.476 478.984 307.476H472.973C472.034 307.476 471.274 308.257 471.274 309.221Z"
      fill="#C8E7F2" stroke="#4791CF" stroke-width="3.64955" stroke-miterlimit="10" />
   <path d="M432.912 335.902V325.826" stroke="#5B6770" stroke-width="3.64955" stroke-miterlimit="10" />
   <path d="M432.911 340.063L430.289 336.736H435.534L432.911 340.063Z" fill="#5B6770" stroke="#5B6770"
      stroke-width="3.64955" stroke-miterlimit="10" />
   <path d="M457.824 310.955H448.005" stroke="#5B6770" stroke-width="3.64955" stroke-miterlimit="10" />
   <path d="M461.865 310.956L458.626 313.65V308.262L461.865 310.956Z" fill="#5B6770" stroke="#5B6770"
      stroke-width="3.64955" stroke-miterlimit="10" />
   <path d="M456.974 336.285L444.122 323.084" stroke="#5B6770" stroke-width="3.64955" stroke-miterlimit="10" />
   <path d="M459.84 339.229L455.686 338.779L459.401 334.963L459.84 339.229Z" fill="#5B6770" stroke="#5B6770"
      stroke-width="3.64955" stroke-miterlimit="10" />
</svg>