<svg width="110" height="151" viewBox="0 0 110 151" fill="none" xmlns="http://www.w3.org/2000/svg">
<path d="M64.2954 106.158V61.9768C64.2954 51.8128 55.8193 43.5606 45.3797 43.5606L18.9158 43.5606C8.47617 43.5606 3.05176e-05 51.8128 3.05176e-05 61.9768V87.7419C3.05176e-05 97.9058 8.47617 106.158 18.9158 106.158H64.2954Z" fill="#93C9B7"/>
<path d="M74.0211 44.0378C75.9676 41.6304 78.146 39.4158 80.5621 37.4546C88.4102 31.0808 98.5046 27.2357 109.533 27.2357L106.271 12.0396L95.9419 12.3347L80.5621 -0.00038147C80.5621 10.2957 76.9125 19.7436 70.8411 27.2357C68.8947 29.6431 66.7162 31.8576 64.3001 33.8188C56.4521 40.1926 46.3576 44.0378 35.3296 44.0378L49.3158 61.3216L64.3001 71.2793C64.3001 60.9832 67.9497 51.5354 74.0211 44.0378Z" fill="#93C9B7"/>
<path d="M74.0211 106.081C75.9676 108.489 78.146 110.703 80.5621 112.665C88.4102 119.038 98.5046 122.883 109.533 122.883L106.271 138.08L95.9419 137.784L80.5621 150.12C80.5621 139.823 76.9125 130.376 70.8411 122.883C68.8947 120.476 66.7162 118.262 64.3001 116.3C56.4521 109.927 46.3576 106.081 35.3296 106.081L49.3158 88.7975L64.3001 78.8398C64.3001 89.136 67.9497 98.5837 74.0211 106.081Z" fill="#93C9B7"/>
</svg>
