<svg width="210" height="246" viewBox="0 0 210 246" fill="none" xmlns="http://www.w3.org/2000/svg">
   <!-- 1 -->
   <path
      d="M131.318 193.504H181.117V229.605C181.117 237.911 174.552 244.654 166.466 244.654H145.969C137.883 244.654 131.318 237.911 131.318 229.605V193.504Z"
      fill="#37B994">
      <animate attributeName="fill" values="#37B994; #d9d9d6; #37B994" dur="3s" repeatCount="indefinite" begin="2s" />
   </path>
   <path
      d="M209.13 129.418H229.627C237.713 129.418 244.278 136.161 244.278 144.466V165.52C244.278 173.825 237.713 180.568 229.627 180.568H194.479V144.466C194.479 136.161 201.044 129.418 209.13 129.418Z"
      fill="#37B994">
      <animate attributeName="fill" values="#37B994; #d9d9d6; #37B994" dur="3s" repeatCount="indefinite" begin="2s" />
   </path>
   <path
      d="M206.468 161.808L215.879 180.309C207.765 180.396 200.323 183.286 194.401 188.045C192.47 189.594 190.693 191.329 189.118 193.254C184.048 199.449 180.974 207.402 180.922 216.094L161.074 217.242L159.695 193.634C167.603 193.578 174.877 190.862 180.734 186.344L181.302 185.896C183.233 184.347 185.01 182.613 186.584 180.688C191.635 174.517 194.704 166.601 194.779 157.948L206.468 161.808Z"
      fill="#37B994" stroke="#37B994" stroke-width="0.469534">
      <animate attributeName="fill" values="#37B994; #d9d9d6; #37B994" dur="3s" repeatCount="indefinite" begin="2s" />
   </path>
   <path
      d="M118.191 180.572H83.0429C74.9571 180.572 68.392 173.829 68.392 165.524V144.471C68.392 136.166 74.9571 129.422 83.0429 129.422H103.54C111.626 129.422 118.191 136.166 118.191 144.471V180.572Z"
      fill="#37B994">
      <animate attributeName="fill" values="#37B994; #d9d9d6; #37B994" dur="3s" repeatCount="indefinite" begin="2s" />
   </path>
   <path
      d="M118.131 188.3C120.046 189.849 121.808 191.582 123.368 193.504C128.438 199.748 131.498 207.778 131.498 216.551L154.517 212.56L153.165 193.504C144.974 193.504 137.458 190.601 131.498 185.771C129.582 184.222 127.82 182.489 126.26 180.567C121.19 174.323 118.131 166.293 118.131 157.52L96.4587 160.677V180.567C104.65 180.567 112.166 183.47 118.131 188.3Z"
      fill="#37B994">
      <animate attributeName="fill" values="#37B994; #d9d9d6; #37B994" dur="3s" repeatCount="indefinite" begin="2s" />
   </path>

   <!-- 2 -->
   <path
      d="M194.481 116.613V65.4635H229.629C237.715 65.4635 244.28 72.2066 244.28 80.5117V101.565C244.28 109.87 237.715 116.613 229.629 116.613H194.481Z"
      fill="#93C9B7">
      <animate attributeName="fill" values="#93C9B7; #d9d9d6; #93C9B7" dur="3s" repeatCount="indefinite" begin="0s" />
   </path>
   <path
      d="M132.089 36.6841V15.6309C132.089 7.32573 138.654 0.582485 146.74 0.582485H167.237C175.323 0.582485 181.888 7.32573 181.888 15.6309V51.7324H146.74C138.654 51.7324 132.089 44.9893 132.089 36.6841Z"
      fill="#93C9B7">
      <animate attributeName="fill" values="#93C9B7; #d9d9d6; #93C9B7" dur="3s" repeatCount="indefinite" begin="0s" />
   </path>
   <path
      d="M189.413 51.6698C190.921 53.6369 192.608 55.4465 194.479 57.049C200.558 62.2572 208.377 65.3992 216.918 65.3992V82.9756L194.479 87.6543C194.479 79.2411 191.653 71.5211 186.95 65.3992C185.443 63.432 183.755 61.6225 181.884 60.02C175.805 54.8118 167.987 51.6698 159.445 51.6698L165.082 34.3788L181.884 29.4102C181.884 37.8233 184.711 45.5433 189.413 51.6698Z"
      fill="#93C9B7">
      <animate attributeName="fill" values="#93C9B7; #d9d9d6; #93C9B7" dur="3s" repeatCount="indefinite" begin="0s" />
   </path>
   <path
      d="M181.88 130.088V166.189C181.88 174.495 175.315 181.238 167.229 181.238H146.732C138.646 181.238 132.081 174.495 132.081 166.189V145.136C132.081 136.831 138.646 130.088 146.732 130.088H181.88Z"
      fill="#93C9B7">
      <animate attributeName="fill" values="#93C9B7; #d9d9d6; #93C9B7" dur="3s" repeatCount="indefinite" begin="0s" />
   </path>
   <path
      d="M189.413 130.154C190.921 128.187 192.608 126.378 194.479 124.775C200.558 119.567 208.377 116.425 216.918 116.425L208.748 100.112L194.479 94.1699C194.479 102.583 191.653 110.303 186.95 116.425C185.443 118.392 183.755 120.202 181.884 121.804C175.805 127.012 167.987 130.154 159.445 130.154L174.472 136.5L181.884 152.414C181.884 144.001 184.711 136.281 189.413 130.154Z"
      fill="#93C9B7">
      <animate attributeName="fill" values="#93C9B7; #d9d9d6; #93C9B7" dur="3s" repeatCount="indefinite" begin="0s" />
   </path>

   <!-- 3 -->
   <path
      d="M209.128 51.1504L229.625 51.1504C237.717 51.1504 244.276 44.413 244.276 36.1021V15.0488C244.276 6.73787 237.717 0.000514984 229.625 0.000514984L209.128 0.000514984C201.036 0.000514984 194.477 6.73787 194.477 15.0488V36.1021C194.477 44.413 201.036 51.1504 209.128 51.1504Z"
      fill="#D9D9D6">
      <animate attributeName="fill" values="#d9d9d6;  #37B994; #d9d9d6;" dur="3s" repeatCount="indefinite" begin="1s" />
   </path>

   <!-- 4 -->
   <path
      d="M146.412 116.484H166.909C175 116.484 181.56 109.747 181.56 101.436V80.3828C181.56 72.0719 175 65.3345 166.909 65.3345H146.412C138.32 65.3345 131.761 72.0719 131.761 80.3828V101.436C131.761 109.747 138.32 116.484 146.412 116.484Z"
      fill="#D9D9D6">
      <animate attributeName="fill" values="#d9d9d6;  #37B994; #d9d9d6;" dur="3s" repeatCount="indefinite" begin="0s" />
   </path>

   <!-- 5 -->
   <path
      d="M83.0429 244.658H103.54C111.632 244.658 118.191 237.921 118.191 229.61V208.557C118.191 200.246 111.632 193.508 103.54 193.508H83.0429C74.9514 193.508 68.392 200.246 68.392 208.557V229.61C68.392 237.921 74.9514 244.658 83.0429 244.658Z"
      fill="#D9D9D6">
      <animate attributeName="fill" values="#d9d9d6;  #37B994; #d9d9d6;" dur="3s" repeatCount="indefinite" begin="2s" />
   </path>


   <path
      d="M150.137 88.5612C152.775 88.5612 154.914 86.3644 154.914 83.6546C154.914 80.9448 152.775 78.748 150.137 78.748C147.499 78.748 145.36 80.9448 145.36 83.6546C145.36 86.3644 147.499 88.5612 150.137 88.5612Z"
      fill="#D9D9D6" stroke="#5B6770" stroke-width="1.71359" stroke-miterlimit="10" />
   <path
      d="M163.464 103.349C166.083 103.349 168.206 101.168 168.206 98.478C168.206 95.788 166.083 93.6074 163.464 93.6074C160.845 93.6074 158.722 95.788 158.722 98.478C158.722 101.168 160.845 103.349 163.464 103.349Z"
      fill="#C8E7F2" stroke="#4791CF" stroke-width="1.71359" stroke-miterlimit="10" />
   <path
      d="M158.722 99.37C161.341 99.37 163.464 97.1894 163.464 94.4995C163.464 91.8095 161.341 89.6289 158.722 89.6289C156.103 89.6289 153.98 91.8095 153.98 94.4995C153.98 97.1894 156.103 99.37 158.722 99.37Z"
      fill="#C8E7F2" stroke="#4791CF" stroke-width="1.71359" stroke-miterlimit="10" />
   <path
      d="M165.291 85.0806V82.9379C165.313 82.7759 165.269 81.8125 164.55 81.1103C163.906 80.4801 163.095 80.6062 162.859 80.5566"
      stroke="#5B6770" stroke-width="1.71359" stroke-miterlimit="10" />
   <path d="M157.657 80.5508H163.026" stroke="#5B6770" stroke-width="1.71359" stroke-miterlimit="10" />
   <path d="M165.292 86.5096L164.083 84.9746H166.502L165.292 86.5096Z" fill="#5B6770" stroke="#5B6770"
      stroke-width="1.71359" stroke-miterlimit="10" />
   <path d="M86.4337 143.629H81.8364V148.274H86.4337V143.629Z" fill="white" stroke="#5B6770" stroke-width="1.71359"
      stroke-miterlimit="10" />
   <path
      d="M90.6155 163.986H82.9897C82.312 163.986 81.7627 164.551 81.7627 165.247V167.651C81.7627 168.347 82.312 168.911 82.9897 168.911H90.6155C91.2932 168.911 91.8426 168.347 91.8426 167.651V165.247C91.8426 164.551 91.2932 163.986 90.6155 163.986Z"
      fill="#C8E7F2" stroke="#4791CF" stroke-width="1.71359" stroke-miterlimit="10" />
   <path
      d="M100.478 160.3L98.7059 162.121C98.4389 162.395 98.4389 162.839 98.7058 163.114L100.478 164.934C100.745 165.209 101.178 165.209 101.445 164.934L103.218 163.114C103.485 162.839 103.485 162.395 103.218 162.121L101.445 160.3C101.178 160.026 100.745 160.026 100.478 160.3Z"
      fill="#C8E7F2" stroke="#4791CF" stroke-width="1.71359" stroke-miterlimit="10" />
   <path
      d="M101.779 144.38V147.509C101.779 147.961 102.136 148.328 102.576 148.328H105.399C105.839 148.328 106.196 147.961 106.196 147.509V144.38C106.196 143.928 105.839 143.561 105.399 143.561H102.576C102.136 143.561 101.779 143.928 101.779 144.38Z"
      fill="#C8E7F2" stroke="#4791CF" stroke-width="1.71359" stroke-miterlimit="10" />
   <path d="M83.7654 156.907V152.176" stroke="#5B6770" stroke-width="1.71359" stroke-miterlimit="10" />
   <path d="M83.7658 158.861L82.5344 157.299H84.9974L83.7658 158.861Z" fill="#5B6770" stroke="#5B6770"
      stroke-width="1.71359" stroke-miterlimit="10" />
   <path d="M95.4628 145.201H90.8523" stroke="#5B6770" stroke-width="1.71359" stroke-miterlimit="10" />
   <path d="M97.3603 145.198L95.8396 146.463V143.934L97.3603 145.198Z" fill="#5B6770" stroke="#5B6770"
      stroke-width="1.71359" stroke-miterlimit="10" />
   <path d="M95.0626 157.089L89.0278 150.891" stroke="#5B6770" stroke-width="1.71359" stroke-miterlimit="10" />
   <path d="M96.4095 158.468L94.4592 158.256L96.2035 156.465L96.4095 158.468Z" fill="#5B6770" stroke="#5B6770"
      stroke-width="1.71359" stroke-miterlimit="10" />
   <path d="M169.404 19.0989L163.48 13" stroke="#5B6770" stroke-width="1.78044" stroke-miterlimit="10" />
   <path d="M149.933 39.1028L144.005 33.0039" stroke="#5B6770" stroke-width="1.78044" stroke-miterlimit="10" />
   <path d="M161.668 20.9512L151.887 31.0021" stroke="#5B6770" stroke-width="1.78044" stroke-miterlimit="10" />
   <path d="M163.721 18.8418L163.302 22.9249L159.746 19.2768L163.721 18.8418Z" fill="#5B6770" stroke="#5B6770"
      stroke-width="1.78044" stroke-miterlimit="10" />
   <path d="M149.687 33.2581L153.662 32.8278L150.106 29.1797L149.687 33.2581Z" fill="#5B6770" stroke="#5B6770"
      stroke-width="1.78044" stroke-miterlimit="10" />

   <!-- 8 -->
   <path
      d="M15.2778 178.617H36.6521C45.0839 178.617 51.9299 171.585 51.9299 162.925L51.9299 125.279H15.2778C6.84597 125.279 0 132.31 0 140.971L0 162.925C0 171.585 6.84597 178.617 15.2778 178.617Z"
      fill="#93C9B7">
      <animate attributeName="fill" values="#93C9B7; #d9d9d6; #93C9B7" dur="3s" repeatCount="indefinite" begin="0s" />
   </path>
   <path
      d="M65.8679 111.789H102.52C110.952 111.789 117.798 104.757 117.798 96.0969V74.1428C117.798 65.4823 110.952 58.4506 102.52 58.4506L81.1458 58.4506C72.714 58.4506 65.8679 65.4823 65.8679 74.1428V111.789Z"
      fill="#93C9B7">
      <animate attributeName="fill" values="#93C9B7; #d9d9d6; #93C9B7" dur="3s" repeatCount="indefinite" begin="0s" />
   </path>
   <path
      d="M36.6521 245.449H15.2778C6.84008 245.449 0 238.424 0 229.757L0 207.803C0 199.136 6.84008 192.111 15.2778 192.111H36.6521C45.0898 192.111 51.9299 199.136 51.9299 207.803L51.9299 229.757C51.9299 238.424 45.0898 245.449 36.6521 245.449Z"
      fill="#93C9B7">
      <animate attributeName="fill" values="#93C9B7; #d9d9d6; #93C9B7" dur="3s" repeatCount="indefinite" begin="0s" />
   </path>
   <path d="M51.9299 205.289H0L0 151.951H51.9299L51.9299 205.289Z" fill="#93C9B7">
      <animate attributeName="fill" values="#93C9B7; #d9d9d6; #93C9B7" dur="3s" repeatCount="indefinite" begin="0s" />
   </path>
   <path
      d="M65.9322 119.858C63.935 121.472 62.0978 123.28 60.4708 125.284C55.1832 131.795 51.9934 140.169 51.9934 149.317L39.3869 146.611L39.6317 138.043L29.3988 125.284C37.9403 125.284 45.778 122.256 51.9934 117.22C53.9905 115.605 55.8277 113.798 57.4546 111.793C62.7422 105.283 65.9322 96.9085 65.9322 87.7598L80.2705 99.3625L88.5312 111.793C79.9897 111.793 72.1521 114.821 65.9322 119.858Z"
      fill="#93C9B7">
      <animate attributeName="fill" values="#93C9B7; #d9d9d6; #93C9B7" dur="3s" repeatCount="indefinite" begin="0s" />
   </path>



   <path d="M15.0046 144.396V169.6" stroke="#5B6770" stroke-width="1.71359" stroke-miterlimit="10" />
   <path
      d="M36.1071 158.346H19.7644C18.9778 158.346 18.3401 159.001 18.3401 159.809V164.598C18.3401 165.406 18.9778 166.061 19.7644 166.061H36.1071C36.8937 166.061 37.5314 165.406 37.5314 164.598V159.809C37.5314 159.001 36.8937 158.346 36.1071 158.346Z"
      fill="#D9D9D6" stroke="#5B6770" stroke-width="1.71359" stroke-miterlimit="10" />
   <path
      d="M25.4662 147.518H19.6812C18.9405 147.518 18.3401 148.134 18.3401 148.895V153.14C18.3401 153.901 18.9405 154.517 19.6812 154.517H25.4662C26.2068 154.517 26.8073 153.901 26.8073 153.14V148.895C26.8073 148.134 26.2068 147.518 25.4662 147.518Z"
      fill="#C8E7F2" stroke="#4791CF" stroke-width="1.71359" stroke-miterlimit="10" />
</svg>