<svg width="347" height="369" viewBox="0 0 347 369" fill="none" xmlns="http://www.w3.org/2000/svg">
<path d="M162.12 258.32C162.12 271.2 158.2 286.6 150.36 304.52C143.08 322.44 131.04 345.96 114.24 375.08L78.96 436.4H11.76L85.68 306.2C69.44 303.4 56.84 296.96 47.88 286.88C38.92 276.24 34.44 263.64 34.44 249.08C34.44 231.16 40.32 216.6 52.08 205.4C63.84 194.2 78.68 188.6 96.6 188.6C115.08 188.6 130.48 194.76 142.8 207.08C155.68 219.4 162.12 236.48 162.12 258.32Z" fill="#93C9B7"/>
<path d="M309.12 258.32C309.12 271.2 305.2 286.6 297.36 304.52C290.08 322.44 278.04 345.96 261.24 375.08L225.96 436.4H158.76L232.68 306.2C216.44 303.4 203.84 296.96 194.88 286.88C185.92 276.24 181.44 263.64 181.44 249.08C181.44 231.16 187.32 216.6 199.08 205.4C210.84 194.2 225.68 188.6 243.6 188.6C262.08 188.6 277.48 194.76 289.8 207.08C302.68 219.4 309.12 236.48 309.12 258.32Z" fill="#93C9B7"/>
</svg>
