<svg width="347" height="446" viewBox="0 0 347 446" fill="none" xmlns="http://www.w3.org/2000/svg">
<path d="M184.88 132.68C184.88 119.8 188.8 104.4 196.64 86.48C203.92 68.56 215.96 45.04 232.76 15.92L268.04 -45.4H335.24L261.32 84.8C277.56 87.6 290.16 94.04 299.12 104.12C308.08 114.76 312.56 127.36 312.56 141.92C312.56 159.84 306.68 174.4 294.92 185.6C283.16 196.8 268.32 202.4 250.4 202.4C231.92 202.4 216.52 196.24 204.2 183.92C191.32 171.6 184.88 154.52 184.88 132.68Z" fill="#93C9B7"/>
<path d="M37.88 132.68C37.88 119.8 41.8 104.4 49.64 86.48C56.92 68.56 68.96 45.04 85.76 15.92L121.04 -45.4H188.24L114.32 84.8C130.56 87.6 143.16 94.04 152.12 104.12C161.08 114.76 165.56 127.36 165.56 141.92C165.56 159.84 159.68 174.4 147.92 185.6C136.16 196.8 121.32 202.4 103.4 202.4C84.92 202.4 69.52 196.24 57.2 183.92C44.32 171.6 37.88 154.52 37.88 132.68Z" fill="#93C9B7"/>
</svg>
