<svg width="375" height="246" viewBox="0 0 375 246" fill="none" xmlns="http://www.w3.org/2000/svg">
<path d="M240.582 108.938H134.521V32.0494C134.521 14.3614 148.504 -1.52588e-05 165.725 -1.52588e-05H209.379C226.6 -1.52588e-05 240.582 14.3614 240.582 32.0494V108.938Z" fill="#37B994"/>
<path d="M74.8577 245.428H31.2031C13.9821 245.428 0 231.066 0 213.378V168.54C0 150.852 13.9821 136.49 31.2031 136.49H106.061V213.378C106.061 231.066 92.0787 245.428 74.8577 245.428Z" fill="#37B994"/>
<path d="M80.5247 176.443L60.4846 137.047C77.7668 136.86 93.6147 130.702 106.229 120.565C110.341 117.266 114.125 113.572 117.478 109.473C128.276 96.2778 134.826 79.3383 134.936 60.8262L177.202 58.3818L180.143 108.66C162.751 108.783 146.799 114.95 134.125 125.142C130.013 128.441 126.229 132.135 122.876 136.234C112.12 149.378 105.579 166.236 105.419 184.664L80.5247 176.443Z" fill="#37B994" stroke="#37B994"/>
<path d="M268.537 136.48H343.395C360.616 136.48 374.598 150.842 374.598 168.53V213.369C374.598 231.057 360.616 245.418 343.395 245.418H299.74C282.519 245.418 268.537 231.057 268.537 213.369V136.48Z" fill="#37B994"/>
<path d="M268.666 120.02C264.587 116.722 260.835 113.031 257.512 108.937C246.713 95.6402 240.198 78.5369 240.198 59.8517L191.172 68.3516L194.051 108.937C211.496 108.937 227.504 115.121 240.198 125.408C244.277 128.706 248.029 132.397 251.352 136.491C262.151 149.788 268.666 166.891 268.666 185.576L314.823 178.852V136.491C297.377 136.491 281.37 130.307 268.666 120.02Z" fill="#37B994"/>
</svg>
