<svg width="682" height="492" viewBox="0 0 682 492" fill="none" xmlns="http://www.w3.org/2000/svg">
<path d="M322.98 174.73H311.5L341.6 203.75L355.18 195.14L322.98 174.73Z" fill="#3CB28D"/>
<path d="M401.77 224.67L364.84 201.26L351.94 213.71L363.31 224.67H401.77Z" fill="#3CB28D"/>
<path d="M289.63 236.69H328.1L351.94 213.71L341.6 203.75L289.63 236.69Z" fill="#3CB28D"/>
<path d="M379.9 186.75H368.42L355.18 195.14L364.84 201.26L379.9 186.75Z" fill="#3CB28D"/>
<path opacity="0.6" d="M645.86 421.199H35.22C15.7685 421.199 0 436.968 0 456.419C0 475.871 15.7685 491.639 35.22 491.639H645.86C665.312 491.639 681.08 475.871 681.08 456.419C681.08 436.968 665.312 421.199 645.86 421.199Z" fill="white"/>
<path d="M425.9 435.959H245.64C234.335 435.959 225.17 445.121 225.17 456.424C225.17 467.726 234.335 476.889 245.64 476.889H425.9C437.205 476.889 446.37 467.726 446.37 456.424C446.37 445.121 437.205 435.959 425.9 435.959Z" fill="#3CB28D"/>
<path d="M311.7 446.6H316.57C318.13 446.6 319.35 446.97 320.23 447.71C321.11 448.45 321.54 449.42 321.54 450.63C321.54 451.12 321.48 451.55 321.35 451.92C321.23 452.29 321.06 452.63 320.85 452.92C320.64 453.21 320.39 453.46 320.12 453.68C319.84 453.89 319.56 454.06 319.27 454.19C320.38 454.4 321.28 454.89 321.96 455.67C322.64 456.45 322.98 457.41 322.98 458.56C322.98 459.32 322.83 460.02 322.52 460.65C322.21 461.28 321.79 461.81 321.25 462.26C320.7 462.71 320.04 463.06 319.27 463.31C318.5 463.56 317.65 463.69 316.72 463.69H311.7V446.609V446.6ZM314.04 448.7V453.55H315.91C316.9 453.55 317.69 453.34 318.27 452.91C318.85 452.48 319.14 451.85 319.14 451.03C319.14 449.48 318.06 448.7 315.91 448.7H314.04ZM314.04 455.5V461.58H316.16C317.66 461.58 318.76 461.3 319.47 460.73C320.18 460.16 320.53 459.4 320.53 458.45C320.53 457.45 320.17 456.7 319.45 456.23C318.73 455.75 317.78 455.51 316.62 455.51H314.05L314.04 455.5Z" fill="white"/>
<path d="M328.88 463.68H326.51V446.6H328.88V463.68Z" fill="white"/>
<path d="M335.12 446.6H336.81L342.29 459.43L347.54 446.6H349.26L351.86 463.68H349.57L347.73 451.43L342.61 463.77H341.88L336.68 451.6L335.06 463.68H332.77L335.14 446.6H335.12Z" fill="white"/>
<path d="M623.96 461.041C626.512 461.041 628.58 458.972 628.58 456.421C628.58 453.869 626.512 451.801 623.96 451.801C621.408 451.801 619.34 453.869 619.34 456.421C619.34 458.972 621.408 461.041 623.96 461.041Z" fill="#5B6770"/>
<path d="M523.02 461.041C525.572 461.041 527.64 458.972 527.64 456.421C527.64 453.869 525.572 451.801 523.02 451.801C520.468 451.801 518.4 453.869 518.4 456.421C518.4 458.972 520.468 461.041 523.02 461.041Z" fill="#5B6770"/>
<path d="M157.06 461.041C159.612 461.041 161.68 458.972 161.68 456.421C161.68 453.869 159.612 451.801 157.06 451.801C154.508 451.801 152.44 453.869 152.44 456.421C152.44 458.972 154.508 461.041 157.06 461.041Z" fill="#3CB28D"/>
<path d="M56.12 461.041C58.6716 461.041 60.74 458.972 60.74 456.421C60.74 453.869 58.6716 451.801 56.12 451.801C53.5684 451.801 51.5 453.869 51.5 456.421C51.5 458.972 53.5684 461.041 56.12 461.041Z" fill="#3CB28D"/>
<path d="M511.02 140.5H464.86C446.64 140.5 431.87 155.27 431.87 173.49V219.65C431.87 237.87 446.64 252.64 464.86 252.64H511.02C529.24 252.64 544.01 237.87 544.01 219.65V173.49C544.01 155.27 529.24 140.5 511.02 140.5Z" fill="#93C9B7"/>
<path d="M368.78 0H322.62C304.4 0 289.63 14.77 289.63 32.99V61.61C289.63 80.85 282.75 98.45 271.33 112.14C267.82 116.35 263.85 120.15 259.54 123.55C246.11 134.14 229.19 140.51 210.74 140.51H180.39C162.17 140.51 147.4 155.28 147.4 173.5V219.66C147.4 237.88 162.17 252.65 180.39 252.65H226.55C244.77 252.65 259.54 237.88 259.54 219.66V191.03C259.54 171.8 266.43 154.2 277.84 140.51C281.35 136.3 285.32 132.5 289.63 129.1C303.06 118.51 319.97 112.15 338.42 112.14H368.78C387 112.14 401.77 97.37 401.77 79.15V32.99C401.77 14.77 387 0 368.78 0Z" fill="#93C9B7"/>
<path d="M368.78 281.01H322.62C304.4 281.01 289.63 295.78 289.63 314V360.16C289.63 378.38 304.4 393.15 322.62 393.15H368.78C387 393.15 401.77 378.38 401.77 360.16V314C401.77 295.78 387 281.01 368.78 281.01Z" fill="white"/>
<path d="M226.55 281.01H180.39C162.17 281.01 147.4 295.78 147.4 314V360.16C147.4 378.38 162.17 393.15 180.39 393.15H226.55C244.77 393.15 259.54 378.38 259.54 360.16V314C259.54 295.78 244.77 281.01 226.55 281.01Z" fill="white"/>
<path d="M375.35 40.6198L361.52 26.7598" stroke="#5B6770" stroke-width="3.91" stroke-miterlimit="10"/>
<path d="M329.89 86.0907L316.05 72.2207" stroke="#5B6770" stroke-width="3.91" stroke-miterlimit="10"/>
<path d="M357.29 44.8301L334.45 67.6801" stroke="#5B6770" stroke-width="3.91" stroke-miterlimit="10"/>
<path d="M362.08 40.0391L361.1 49.3191L352.81 41.019L362.08 40.0391Z" fill="#5B6770" stroke="#5B6770" stroke-width="3.91" stroke-miterlimit="10"/>
<path d="M329.32 72.7993L338.6 71.8193L330.3 63.5293L329.32 72.7993Z" fill="#5B6770" stroke="#5B6770" stroke-width="3.91" stroke-miterlimit="10"/>
<path d="M501.89 162.83H473.97C463.046 162.83 454.19 171.686 454.19 182.61V210.53C454.19 221.454 463.046 230.31 473.97 230.31H501.89C512.814 230.31 521.67 221.454 521.67 210.53V182.61C521.67 171.686 512.814 162.83 501.89 162.83Z" fill="#3CB28D"/>
<path d="M487.94 210.15V183" stroke="white" stroke-width="4.39" stroke-miterlimit="10"/>
<path d="M501.51 196.57H474.36" stroke="white" stroke-width="4.39" stroke-miterlimit="10"/>
<path d="M375.2 315.859H316.2V358.279H375.2V315.859Z" fill="#D9D9D6" stroke="#5B6770" stroke-width="3.91" stroke-linecap="round" stroke-linejoin="round"/>
<path d="M324.08 324.15V350.73" stroke="#5B6770" stroke-width="3.91" stroke-linecap="square" stroke-linejoin="round"/>
<path d="M332.05 324.15V343.33" stroke="#5B6770" stroke-width="3.91" stroke-linecap="square" stroke-linejoin="round"/>
<path d="M343.18 324.15V343.33" stroke="#5B6770" stroke-width="3.91" stroke-linecap="square" stroke-linejoin="round"/>
<path d="M351.04 324.15V343.33" stroke="#5B6770" stroke-width="3.91" stroke-linecap="square" stroke-linejoin="round"/>
<path d="M358.89 324.15V343.33" stroke="#5B6770" stroke-width="3.91" stroke-linecap="square" stroke-linejoin="round"/>
<path d="M332.05 350.32V350.73" stroke="#5B6770" stroke-width="3.91" stroke-linecap="square" stroke-linejoin="round"/>
<path d="M343.18 350.32V350.73" stroke="#5B6770" stroke-width="3.91" stroke-linecap="square" stroke-linejoin="round"/>
<path d="M351.04 350.32V350.73" stroke="#5B6770" stroke-width="3.91" stroke-linecap="square" stroke-linejoin="round"/>
<path d="M358.89 350.32V350.73" stroke="#5B6770" stroke-width="3.91" stroke-linecap="square" stroke-linejoin="round"/>
<path d="M366.75 324.15V350.73" stroke="#5B6770" stroke-width="3.91" stroke-linecap="square" stroke-linejoin="round"/>
<path d="M179.76 361.96V318.52" stroke="#4791CF" stroke-width="3.91" stroke-miterlimit="10"/>
<path d="M172.63 319.48H186.89L179.76 312.35L172.63 319.48Z" fill="#4791CF"/>
<path d="M179.76 361.961H223.2" stroke="#BE1622" stroke-width="3.91" stroke-miterlimit="10"/>
<path d="M222.25 354.83V369.09L229.37 361.96L222.25 354.83Z" fill="#BE1622"/>
<path d="M179.76 361.959L209.27 332.199" stroke="#009640" stroke-width="3.91" stroke-miterlimit="10"/>
<path d="M234.78 323.009L222.04 312.189V319.079H200.25V326.939H222.04V333.839L234.78 323.009Z" fill="#C8E7F2" stroke="#4791CF" stroke-width="3.91" stroke-miterlimit="10"/>
<path d="M225.94 178.239L210.37 191.009L188.93 174.199V218.529L210.37 201.609L225.94 214.489V178.239Z" fill="#D9D9D6" stroke="#5B6770" stroke-width="3.91" stroke-linecap="round" stroke-linejoin="round"/>
<path d="M217.31 185.76H203.78V206.71H217.31V185.76Z" fill="#D9D9D6" stroke="#5B6770" stroke-width="3.91" stroke-linecap="round" stroke-linejoin="round"/>
<path d="M188.6 198.32L166.03 196.36L188.6 194.4C191.41 194.26 191.41 198.45 188.6 198.31V198.32Z" fill="#5B6770"/>
</svg>
