<svg width="687" height="492" viewBox="0 0 687 492" fill="none" xmlns="http://www.w3.org/2000/svg">
<path d="M322.98 174.721H311.5L341.6 203.741L355.18 195.141L322.98 174.721Z" fill="#3CB28D"/>
<path d="M401.77 224.67L364.84 201.26L351.94 213.71L363.31 224.67H401.77Z" fill="#3CB28D"/>
<path d="M289.63 236.69H328.1L351.94 213.71L341.6 203.74L289.63 236.69Z" fill="#3CB28D"/>
<path d="M379.9 186.74H368.42L355.18 195.14L364.84 201.26L379.9 186.74Z" fill="#3CB28D"/>
<path opacity="0.6" d="M645.86 421.199H35.22C15.7685 421.199 0 436.968 0 456.419C0 475.871 15.7685 491.639 35.22 491.639H645.86C665.312 491.639 681.08 475.871 681.08 456.419C681.08 436.968 665.312 421.199 645.86 421.199Z" fill="white"/>
<path d="M224.44 435.961H44.18C32.8747 435.961 23.71 445.123 23.71 456.426C23.71 467.728 32.8747 476.891 44.18 476.891H224.44C235.745 476.891 244.91 467.728 244.91 456.426C244.91 445.123 235.745 435.961 224.44 435.961Z" fill="#3CB28D"/>
<path d="M68.94 446.4H70.28L77.6 463.67H75L73.21 459.28H65.94L64.17 463.67H61.7L68.94 446.4ZM66.74 457.28H72.37L69.54 450.38L66.74 457.28Z" fill="white"/>
<path d="M79.66 469.53V452.79H81.78V454.52C82.07 454 82.55 453.55 83.24 453.17C83.93 452.79 84.77 452.6 85.76 452.6C86.48 452.6 87.17 452.73 87.83 453C88.49 453.27 89.06 453.65 89.55 454.13C90.04 454.61 90.43 455.21 90.71 455.91C90.99 456.61 91.14 457.38 91.14 458.23C91.14 459.08 90.99 459.87 90.7 460.57C90.41 461.27 90.01 461.86 89.51 462.35C89.01 462.84 88.44 463.21 87.79 463.47C87.14 463.73 86.46 463.86 85.76 463.86C84.9 463.86 84.14 463.69 83.48 463.36C82.81 463.03 82.29 462.59 81.9 462.05V469.52H79.65L79.66 469.53ZM85.34 454.55C84.8 454.55 84.32 454.64 83.9 454.82C83.48 455 83.13 455.24 82.84 455.55C82.55 455.86 82.33 456.22 82.17 456.63C82.01 457.04 81.92 457.47 81.91 457.93V458.3C81.91 458.77 81.99 459.23 82.15 459.66C82.31 460.09 82.54 460.48 82.83 460.81C83.12 461.14 83.49 461.41 83.91 461.62C84.33 461.83 84.82 461.93 85.36 461.93C85.86 461.93 86.32 461.84 86.74 461.66C87.16 461.48 87.51 461.23 87.81 460.91C88.11 460.59 88.35 460.2 88.52 459.75C88.69 459.3 88.77 458.78 88.77 458.21C88.77 457.04 88.44 456.13 87.77 455.5C87.1 454.87 86.29 454.56 85.33 454.56L85.34 454.55Z" fill="white"/>
<path d="M92.18 463.331L95.97 458.061L92.49 453.161V452.791H94.96L97.53 456.521L100.13 452.791H102.38V453.161L98.87 457.991L102.68 463.331L102.7 463.671H100.25L97.4 459.621L94.5 463.671H92.18V463.331Z" fill="white"/>
<path d="M104.82 452.791H107.07V459.961L113.33 452.791H114.84V463.671H112.57V456.351L106.16 463.671H104.82V452.791Z" fill="white"/>
<path d="M120.8 454.751H117.14V452.801H126.7V454.751H123.04V463.681H120.79V454.751H120.8Z" fill="white"/>
<path d="M133.57 463.87C132.71 463.87 131.92 463.74 131.21 463.48C130.5 463.22 129.87 462.85 129.34 462.36C128.81 461.87 128.4 461.28 128.1 460.59C127.81 459.9 127.66 459.12 127.66 458.26C127.66 457.4 127.82 456.57 128.14 455.87C128.46 455.17 128.88 454.58 129.41 454.09C129.94 453.6 130.55 453.23 131.25 452.98C131.95 452.73 132.68 452.6 133.46 452.6C134.34 452.6 135.11 452.75 135.79 453.05C136.47 453.35 137.05 453.76 137.52 454.27C137.99 454.78 138.35 455.37 138.59 456.03C138.83 456.69 138.96 457.38 138.96 458.09V458.7H129.88C130 459.73 130.41 460.54 131.1 461.12C131.79 461.7 132.67 461.99 133.71 461.99C134.42 461.99 135.07 461.86 135.67 461.6C136.27 461.34 136.76 460.99 137.15 460.53L138.51 461.75C137.96 462.45 137.24 462.98 136.37 463.33C135.49 463.68 134.56 463.86 133.57 463.86V463.87ZM133.31 454.48C132.47 454.48 131.75 454.71 131.15 455.18C130.55 455.64 130.16 456.28 129.98 457.1H136.69C136.56 456.35 136.18 455.73 135.57 455.23C134.96 454.73 134.2 454.49 133.31 454.49V454.48Z" fill="white"/>
<path d="M141.69 452.791H143.94V456.991H145.2L148.56 452.791H150.96V453.111L146.97 457.771L151.92 463.381V463.671H149.35L145.06 458.741H143.95V463.671H141.7V452.791H141.69Z" fill="white"/>
<path d="M156.2 454.751H152.54V452.801H162.1V454.751H158.44V463.681H156.19V454.751H156.2Z" fill="white"/>
<path d="M165.84 469.241L167.99 463.631L163.37 453.161V452.791H165.67L169.08 460.741L172.13 452.791H174.25L174.22 453.161L167.96 469.531H165.84V469.241Z" fill="white"/>
<path d="M176.29 469.53V452.79H178.41V454.52C178.7 454 179.18 453.55 179.87 453.17C180.56 452.79 181.4 452.6 182.39 452.6C183.11 452.6 183.8 452.73 184.46 453C185.12 453.27 185.69 453.65 186.18 454.13C186.67 454.61 187.06 455.21 187.34 455.91C187.62 456.61 187.77 457.38 187.77 458.23C187.77 459.08 187.62 459.87 187.33 460.57C187.04 461.27 186.64 461.86 186.14 462.35C185.64 462.84 185.07 463.21 184.42 463.47C183.77 463.73 183.09 463.86 182.39 463.86C181.53 463.86 180.77 463.69 180.11 463.36C179.44 463.03 178.92 462.59 178.53 462.05V469.52H176.28L176.29 469.53ZM181.97 454.55C181.43 454.55 180.95 454.64 180.53 454.82C180.11 455 179.76 455.24 179.47 455.55C179.18 455.86 178.96 456.22 178.8 456.63C178.64 457.04 178.55 457.47 178.54 457.93V458.3C178.54 458.77 178.62 459.23 178.78 459.66C178.94 460.09 179.17 460.48 179.46 460.81C179.75 461.14 180.12 461.41 180.54 461.62C180.96 461.83 181.45 461.93 181.99 461.93C182.49 461.93 182.95 461.84 183.37 461.66C183.79 461.48 184.14 461.23 184.44 460.91C184.74 460.59 184.98 460.2 185.15 459.75C185.32 459.3 185.4 458.78 185.4 458.21C185.4 457.04 185.07 456.13 184.4 455.5C183.73 454.87 182.92 454.56 181.96 454.56L181.97 454.55Z" fill="white"/>
<path d="M195.09 463.871C194.38 463.871 193.71 463.741 193.06 463.481C192.41 463.221 191.84 462.851 191.34 462.361C190.84 461.871 190.45 461.281 190.15 460.581C189.86 459.881 189.71 459.101 189.71 458.241C189.71 457.381 189.85 456.621 190.14 455.921C190.43 455.221 190.81 454.631 191.3 454.141C191.79 453.651 192.36 453.271 193 453.011C193.65 452.741 194.34 452.611 195.08 452.611C196.06 452.611 196.88 452.801 197.57 453.181C198.25 453.561 198.74 454.011 199.05 454.531V452.801H201.19V463.681H199.05V461.901C198.68 462.471 198.15 462.941 197.47 463.321C196.79 463.701 195.99 463.881 195.09 463.881V463.871ZM195.47 461.921C196.02 461.921 196.52 461.821 196.95 461.611C197.38 461.401 197.74 461.141 198.03 460.801C198.32 460.471 198.55 460.081 198.7 459.651C198.85 459.221 198.93 458.771 198.93 458.291V457.921C198.91 457.461 198.82 457.031 198.66 456.621C198.5 456.211 198.28 455.851 197.99 455.541C197.7 455.231 197.35 454.991 196.93 454.811C196.51 454.631 196.04 454.541 195.52 454.541C195.03 454.541 194.58 454.621 194.16 454.791C193.74 454.951 193.37 455.191 193.06 455.491C192.75 455.791 192.5 456.171 192.33 456.631C192.15 457.091 192.07 457.611 192.07 458.201C192.07 458.791 192.15 459.281 192.32 459.741C192.49 460.201 192.72 460.581 193.03 460.901C193.33 461.221 193.69 461.471 194.1 461.651C194.51 461.831 194.97 461.921 195.48 461.921H195.47Z" fill="white"/>
<path d="M623.96 461.041C626.512 461.041 628.58 458.972 628.58 456.421C628.58 453.869 626.512 451.801 623.96 451.801C621.408 451.801 619.34 453.869 619.34 456.421C619.34 458.972 621.408 461.041 623.96 461.041Z" fill="#5B6770"/>
<path d="M523.02 461.041C525.572 461.041 527.64 458.972 527.64 456.421C527.64 453.869 525.572 451.801 523.02 451.801C520.468 451.801 518.4 453.869 518.4 456.421C518.4 458.972 520.468 461.041 523.02 461.041Z" fill="#5B6770"/>
<path d="M422.09 461.041C424.642 461.041 426.71 458.972 426.71 456.421C426.71 453.869 424.642 451.801 422.09 451.801C419.538 451.801 417.47 453.869 417.47 456.421C417.47 458.972 419.538 461.041 422.09 461.041Z" fill="#5B6770"/>
<path d="M321.15 461.041C323.702 461.041 325.77 458.972 325.77 456.421C325.77 453.869 323.702 451.801 321.15 451.801C318.598 451.801 316.53 453.869 316.53 456.421C316.53 458.972 318.598 461.041 321.15 461.041Z" fill="#5B6770"/>
<path d="M226.55 281.01H180.39C162.17 281.01 147.4 295.78 147.4 314V360.16C147.4 378.38 162.17 393.15 180.39 393.15H226.55C244.77 393.15 259.54 378.38 259.54 360.16V314C259.54 295.78 244.77 281.01 226.55 281.01Z" fill="white"/>
<path d="M84.31 140.5H38.15C19.9301 140.5 5.16 155.27 5.16 173.49V219.65C5.16 237.87 19.9301 252.64 38.15 252.64H84.31C102.53 252.64 117.3 237.87 117.3 219.65V173.49C117.3 155.27 102.53 140.5 84.31 140.5Z" fill="white"/>
<path d="M226.55 0H180.39C162.17 0 147.4 14.7701 147.4 32.99V79.15C147.4 97.3699 162.17 112.14 180.39 112.14H226.55C244.77 112.14 259.54 97.3699 259.54 79.15V32.99C259.54 14.7701 244.77 0 226.55 0Z" fill="white"/>
<path d="M653.25 140.5H607.09C588.87 140.5 574.1 155.27 574.1 173.49V219.65C574.1 237.87 588.87 252.64 607.09 252.64H653.25C671.47 252.64 686.24 237.87 686.24 219.65V173.49C686.24 155.27 671.47 140.5 653.25 140.5Z" fill="white"/>
<path d="M511.02 0H464.86C446.64 0 431.87 14.7701 431.87 32.99V79.15C431.87 97.3699 446.64 112.14 464.86 112.14H511.02C529.24 112.14 544.01 97.3699 544.01 79.15V32.99C544.01 14.7701 529.24 0 511.02 0Z" fill="white"/>
<path d="M653.25 281.01H607.09C588.87 281.01 574.1 295.78 574.1 314V360.16C574.1 378.38 588.87 393.15 607.09 393.15H653.25C671.47 393.15 686.24 378.38 686.24 360.16V314C686.24 295.78 671.47 281.01 653.25 281.01Z" fill="white"/>
<path d="M368.78 0H322.62C304.4 0 289.63 14.77 289.63 32.99V61.61C289.63 80.85 282.75 98.45 271.33 112.14C267.82 116.35 263.85 120.15 259.54 123.55C246.11 134.14 229.19 140.51 210.74 140.51H196.2C177.75 140.51 160.83 134.14 147.4 123.55C143.09 120.15 139.12 116.35 135.61 112.14C124.19 98.46 117.31 80.85 117.31 61.61V32.99C117.31 14.77 102.54 0 84.32 0H38.16C19.94 0 5.16998 14.77 5.16998 32.99V79.15C5.16998 97.37 19.94 112.14 38.16 112.14H68.52C86.97 112.14 103.88 118.51 117.31 129.1C121.62 132.5 125.59 136.3 129.1 140.51C140.52 154.19 147.4 171.79 147.4 191.02V202.23C147.4 221.47 140.52 239.07 129.1 252.76C125.59 256.97 121.62 260.77 117.31 264.17C104.85 274 89.37 280.18 72.46 281.02H38.16C19.94 281.02 5.16998 295.79 5.16998 314.01V360.17C5.16998 378.39 19.94 393.16 38.16 393.16H84.32C102.54 393.16 117.31 378.39 117.31 360.17V331.65C117.31 312.41 124.19 294.81 135.61 281.13C139.12 276.92 143.09 273.12 147.4 269.72C160.83 259.13 177.75 252.76 196.2 252.76L226.55 252.65C244.77 252.65 259.54 237.88 259.54 219.66V191.03C259.54 171.8 266.43 154.2 277.84 140.51C281.35 136.3 285.32 132.5 289.63 129.1C303.06 118.51 319.97 112.15 338.42 112.14H368.78C387 112.14 401.77 97.37 401.77 79.15V32.99C401.77 14.77 387 0 368.78 0Z" fill="#93C9B7"/>
<path d="M653.25 0H607.09C588.87 0 574.1 14.77 574.1 32.99V66.07C573.12 83.56 566.47 99.52 555.93 112.14C552.42 116.35 548.45 120.15 544.14 123.55C530.71 134.14 513.79 140.51 495.34 140.51H464.85C446.63 140.51 431.86 155.28 431.86 173.5V360.16C431.86 378.38 446.63 393.15 464.85 393.15H511.01C529.23 393.15 544 378.38 544 360.16V196.58L544.14 191.04C544.14 171.8 551.02 154.2 562.44 140.51C565.95 136.3 569.92 132.5 574.23 129.1C587.66 118.51 604.57 112.15 623.02 112.14H653.24C671.46 112.14 686.23 97.37 686.23 79.15V32.99C686.23 14.77 671.46 0 653.24 0H653.25Z" fill="#93C9B7"/>
<path d="M368.78 281.01H322.62C304.4 281.01 289.63 295.78 289.63 314V360.16C289.63 378.38 304.4 393.15 322.62 393.15H368.78C387 393.15 401.77 378.38 401.77 360.16V314C401.77 295.78 387 281.01 368.78 281.01Z" fill="white"/>
<path d="M232.12 321.161L218.28 307.301" stroke="#5B6770" stroke-width="3.91" stroke-miterlimit="10"/>
<path d="M186.65 366.632L172.81 352.771" stroke="#5B6770" stroke-width="3.91" stroke-miterlimit="10"/>
<path d="M214.05 325.381L191.21 348.221" stroke="#5B6770" stroke-width="3.91" stroke-miterlimit="10"/>
<path d="M218.85 320.58L217.87 329.86L209.57 321.56L218.85 320.58Z" fill="#5B6770" stroke="#5B6770" stroke-width="3.91" stroke-miterlimit="10"/>
<path d="M186.08 353.35L195.36 352.37L187.06 344.07L186.08 353.35Z" fill="#5B6770" stroke="#5B6770" stroke-width="3.91" stroke-miterlimit="10"/>
<path d="M501.89 162.83H473.97C463.046 162.83 454.19 171.686 454.19 182.61V210.53C454.19 221.454 463.046 230.31 473.97 230.31H501.89C512.814 230.31 521.67 221.454 521.67 210.53V182.61C521.67 171.686 512.814 162.83 501.89 162.83Z" fill="#3CB28D"/>
<path d="M487.94 210.14V183" stroke="white" stroke-width="4.39" stroke-miterlimit="10"/>
<path d="M501.51 196.57H474.36" stroke="white" stroke-width="4.39" stroke-miterlimit="10"/>
<path d="M79.3601 171.75H43.1001V213.62H79.3601V171.75Z" fill="#D9D9D6" stroke="#5B6770" stroke-width="3.91" stroke-linecap="round" stroke-linejoin="round"/>
<path d="M71.1901 224.69L43.1001 213.62V171.75L71.1901 181.62V224.69Z" fill="white" stroke="#5B6770" stroke-width="3.91" stroke-linecap="round" stroke-linejoin="round"/>
<path d="M61.2301 198.221V202.641" stroke="#5B6770" stroke-width="3.91" stroke-linecap="round" stroke-linejoin="round"/>
<path d="M229.19 169.65H179.18V217.71H229.19V169.65Z" fill="white" stroke="#5B6770" stroke-width="3.91" stroke-linecap="round" stroke-linejoin="round"/>
<path d="M199.17 178.43H188.14V189.03H199.17V178.43Z" fill="#5C6771" stroke="#5B6770" stroke-width="2.83" stroke-linecap="round" stroke-linejoin="round"/>
<path d="M199.31 196.971H188.28V207.571H199.31V196.971Z" fill="#5C6771" stroke="#5B6770" stroke-width="2.83" stroke-linecap="round" stroke-linejoin="round"/>
<path d="M219.32 196.971H208.29V207.571H219.32V196.971Z" fill="#5C6771" stroke="#5B6770" stroke-width="2.83" stroke-linecap="round" stroke-linejoin="round"/>
<path d="M219.18 178.43H208.15V189.03H219.18V178.43Z" fill="#5C6771" stroke="#5B6770" stroke-width="2.83" stroke-linecap="round" stroke-linejoin="round"/>
<path d="M233.69 217.711H174.69V226.791H233.69V217.711Z" fill="#D9D9D6" stroke="#5B6770" stroke-width="3.91" stroke-linecap="round" stroke-linejoin="round"/>
<path d="M224.48 77.9498V44.4998C224.48 44.4998 211.4 43.9598 203.03 40.9698C197.67 39.0598 187.29 30.8398 187.29 30.8398L179.89 35.0498V65.1798C179.89 65.1798 187.36 74.6998 197.21 78.4098C205 81.3498 219.12 82.1498 219.12 82.1498L224.48 77.9398V77.9498Z" fill="white"/>
<path opacity="0.97" d="M180.67 36.1191L179.19 36.9791V65.0791C179.19 65.0791 186.05 73.9891 195.09 77.4691C200.91 79.7091 210.58 80.6191 213.98 80.8891L218.36 82.1691V51.1891C218.36 51.1891 206.46 50.1591 198.77 47.3591C193.85 45.5691 180.67 36.1291 180.67 36.1291V36.1191Z" fill="#D9D9D6"/>
<path d="M224.48 77.9498V44.4998C224.48 44.4998 211.4 43.9598 203.03 40.9698C197.67 39.0598 187.29 30.8398 187.29 30.8398L179.89 35.0498V65.1798C179.89 65.1798 187.36 74.6998 197.21 78.4098C205 81.3498 219.12 82.1498 219.12 82.1498L224.48 77.9398V77.9498Z" stroke="#5B6770" stroke-width="3.91" stroke-linecap="round" stroke-linejoin="round"/>
<path d="M482.45 40.6598C486.012 40.6598 488.9 37.772 488.9 34.2098C488.9 30.6475 486.012 27.7598 482.45 27.7598C478.888 27.7598 476 30.6475 476 34.2098C476 37.772 478.888 40.6598 482.45 40.6598Z" stroke="#5B6770" stroke-width="3.91" stroke-linecap="round" stroke-linejoin="round"/>
<path d="M505.04 40.6598C508.602 40.6598 511.49 37.772 511.49 34.2098C511.49 30.6475 508.602 27.7598 505.04 27.7598C501.478 27.7598 498.59 30.6475 498.59 34.2098C498.59 37.772 501.478 40.6598 505.04 40.6598Z" stroke="#5B6770" stroke-width="3.91" stroke-linecap="round" stroke-linejoin="round"/>
<path d="M465.34 58.4C468.902 58.4 471.79 55.5122 471.79 51.95C471.79 48.3878 468.902 45.5 465.34 45.5C461.778 45.5 458.89 48.3878 458.89 51.95C458.89 55.5122 461.778 58.4 465.34 58.4Z" stroke="#5B6770" stroke-width="3.91" stroke-linecap="round" stroke-linejoin="round"/>
<path d="M465.34 80.7398C468.902 80.7398 471.79 77.8521 471.79 74.2898C471.79 70.7276 468.902 67.8398 465.34 67.8398C461.778 67.8398 458.89 70.7276 458.89 74.2898C458.89 77.8521 461.778 80.7398 465.34 80.7398Z" stroke="#5B6770" stroke-width="3.91" stroke-linecap="round" stroke-linejoin="round"/>
<path d="M471.79 51.9492H511.49" stroke="#5B6770" stroke-width="3.91" stroke-linecap="square" stroke-linejoin="round"/>
<path d="M471.79 74.2891H511.49" stroke="#5B6770" stroke-width="3.91" stroke-linecap="square" stroke-linejoin="round"/>
<path d="M482.45 40.6504V80.7404" stroke="#5B6770" stroke-width="3.91" stroke-linecap="square" stroke-linejoin="round"/>
<path d="M505.04 40.6504V80.7404" stroke="#5B6770" stroke-width="3.91" stroke-linecap="square" stroke-linejoin="round"/>
<path d="M374.01 327.471H337.21V364.271H374.01V327.471Z" fill="#C8E7F2"/>
<path d="M374.01 309.65H319.39V364.27H374.01V309.65Z" stroke="#5B6770" stroke-width="3.91" stroke-linecap="round" stroke-linejoin="round"/>
<path d="M337.21 327.471H374.01V364.281H337.21V350.331" stroke="#5B6770" stroke-width="3.91" stroke-linejoin="round"/>
<path d="M337.21 339.68V310.82" stroke="#5B6770" stroke-width="3.91" stroke-linejoin="round"/>
<path d="M337.21 327.471L374.01 364.281" stroke="#5B6770" stroke-width="3.91" stroke-linecap="round" stroke-linejoin="round"/>
<path d="M374.01 327.471L337.21 364.281" stroke="#5B6770" stroke-width="3.91" stroke-linecap="round" stroke-linejoin="round"/>
<path d="M459.1 345.021V331.961H471.71V319.711H484.69V306.551H497.05L518.69 327.941V341.641L493.46 367.601H480.67L459.1 345.021Z" fill="white"/>
<path d="M518.69 327.941V341.641L493.46 367.601H480.67" fill="#D9D9D6"/>
<path d="M518.69 327.941V341.641L493.46 367.601H480.67" stroke="#5B6770" stroke-width="3.91" stroke-linecap="round" stroke-linejoin="round"/>
<path d="M505.76 328.121L484.69 306.551V319.711L505.75 341.141L505.76 328.121Z" fill="#D9D9D6"/>
<path d="M492.51 341.002L471.45 319.432L471.71 331.962L492.59 353.892L492.51 341.002Z" fill="#D9D9D6"/>
<path d="M480.85 353.981L459.1 331.961V345.021L480.67 367.601L480.85 353.981Z" fill="#D9D9D6"/>
<path d="M459.1 345.021V331.961H471.71V319.711H484.69V306.551H497.05L518.69 327.941V341.641L493.46 367.601H480.67L459.1 345.021Z" stroke="#5B6770" stroke-width="3.91" stroke-linejoin="round"/>
<path d="M480.67 367.601L480.85 353.981L492.59 353.891V341.001L505.75 341.141L505.76 328.121L518.69 327.941" fill="#D9D9D6"/>
<path d="M480.67 367.601L480.85 353.981L492.59 353.891V341.001L505.75 341.141L505.76 328.121L518.69 327.941" stroke="#5B6770" stroke-width="3.91" stroke-linecap="round" stroke-linejoin="round"/>
<path d="M376.54 81.5308H320.4V35.3008H362.96L376.54 49.0908V81.5308Z" fill="#D9D9D6" stroke="#5B6770" stroke-width="3.91" stroke-linecap="round" stroke-linejoin="round"/>
<path d="M327.75 33.2611L330.56 22.3711L333.36 33.2611L344.26 36.0711L333.36 38.8711L330.56 49.7611L327.75 38.8711L316.86 36.0711L327.75 33.2611Z" fill="#F2E073" stroke="#F39200" stroke-width="3.91" stroke-linecap="round" stroke-linejoin="round"/>
<path d="M363.02 35.3008V49.0908H376.42L363.02 35.3008Z" fill="white" stroke="#5B6770" stroke-width="3.91" stroke-linecap="round" stroke-linejoin="round"/>
<path d="M641.84 218.02C641.84 220.11 640.73 222.06 638.91 223.08C636.94 224.19 634 225.31 630.17 225.31C626.34 225.31 623.35 224.2 621.4 223.1C619.59 222.08 618.5 220.13 618.5 218.05V172.73C618.5 171.14 619.24 169.64 620.52 168.69C622.28 167.38 625.33 165.92 630.17 165.92C635.01 165.92 637.97 167.4 639.77 168.72C641.07 169.67 641.84 171.18 641.84 172.8V218.01V218.02Z" fill="white" stroke="#5B6770" stroke-width="3.91" stroke-linecap="round" stroke-linejoin="round"/>
<path d="M630.17 175.83C629.22 175.83 628.35 175.77 627.54 175.66V225.13C628.36 225.24 629.24 225.31 630.17 225.31C634 225.31 636.94 224.19 638.91 223.08C640.73 222.06 641.84 220.11 641.84 218.02V170.74C641.84 170.74 638.67 175.83 630.17 175.83Z" fill="#E4E7EA"/>
<path d="M641.84 218.02C641.84 220.11 640.73 222.06 638.91 223.08C636.94 224.19 634 225.31 630.17 225.31C626.34 225.31 623.35 224.2 621.4 223.1C619.59 222.08 618.5 220.13 618.5 218.05V173.05C618.5 171.19 619.4 169.44 620.94 168.4C622.75 167.18 625.69 165.93 630.17 165.93C634.65 165.93 637.51 167.21 639.35 168.44C640.91 169.49 641.84 171.25 641.84 173.12V218.01V218.02Z" stroke="#5B6770" stroke-width="3.91" stroke-linecap="round" stroke-linejoin="round"/>
<path d="M36.48 26.3105V85.8305" stroke="#5B6770" stroke-width="3.91" stroke-miterlimit="10"/>
<path d="M87.67 59.2402H48.03C46.1191 59.2402 44.57 60.7893 44.57 62.7002V74.0002C44.57 75.9111 46.1191 77.4602 48.03 77.4602H87.67C89.5809 77.4602 91.13 75.9111 91.13 74.0002V62.7002C91.13 60.7893 89.5809 59.2402 87.67 59.2402Z" fill="#D9D9D6" stroke="#5B6770" stroke-width="3.91" stroke-miterlimit="10"/>
<path d="M61.85 33.6699H47.82C46.0251 33.6699 44.57 35.125 44.57 36.9199V46.9499C44.57 48.7448 46.0251 50.1999 47.82 50.1999H61.85C63.6449 50.1999 65.1 48.7448 65.1 46.9499V36.9199C65.1 35.125 63.6449 33.6699 61.85 33.6699Z" fill="#C8E7F2" stroke="#4791CF" stroke-width="3.91" stroke-miterlimit="10"/>
<path d="M612.42 51.1995C618.821 51.1995 624.01 46.0105 624.01 39.6095C624.01 33.2086 618.821 28.0195 612.42 28.0195C606.019 28.0195 600.83 33.2086 600.83 39.6095C600.83 46.0105 606.019 51.1995 612.42 51.1995Z" fill="#D9D9D6" stroke="#5B6770" stroke-width="3.91" stroke-miterlimit="10"/>
<path d="M644.75 86.1191C651.101 86.1191 656.25 80.9704 656.25 74.6191C656.25 68.2679 651.101 63.1191 644.75 63.1191C638.399 63.1191 633.25 68.2679 633.25 74.6191C633.25 80.9704 638.399 86.1191 644.75 86.1191Z" fill="#C8E7F2" stroke="#4791CF" stroke-width="3.91" stroke-miterlimit="10"/>
<path d="M633.25 76.7188C639.601 76.7188 644.75 71.57 644.75 65.2188C644.75 58.8675 639.601 53.7188 633.25 53.7188C626.899 53.7188 621.75 58.8675 621.75 65.2188C621.75 71.57 626.899 76.7188 633.25 76.7188Z" fill="#C8E7F2" stroke="#4791CF" stroke-width="3.91" stroke-miterlimit="10"/>
<path d="M649.18 42.9791V37.9191C649.23 37.5291 649.13 35.2591 647.39 33.5991C645.83 32.1091 643.86 32.4091 643.29 32.2891" stroke="#5B6770" stroke-width="3.91" stroke-miterlimit="10"/>
<path d="M630.66 32.2793H643.68" stroke="#5B6770" stroke-width="3.91" stroke-miterlimit="10"/>
<path d="M649.18 46.3702L646.25 42.7402H652.12L649.18 46.3702Z" fill="#5B6770" stroke="#5B6770" stroke-width="3.91" stroke-miterlimit="10"/>
<path d="M629.72 315.76V325.88" stroke="#5B6770" stroke-width="3.91" stroke-miterlimit="10"/>
<path d="M629.72 308.98L623.85 316.23H635.59L629.72 308.98Z" fill="#5B6770" stroke="#5B6770" stroke-width="3.91" stroke-miterlimit="10"/>
<path d="M629.72 358.39V348.26" stroke="#5B6770" stroke-width="3.91" stroke-miterlimit="10"/>
<path d="M629.72 365.17L623.85 357.92H635.59L629.72 365.17Z" fill="#5B6770" stroke="#5B6770" stroke-width="3.91" stroke-miterlimit="10"/>
<path d="M652.72 336.959H642.59" stroke="#5B6770" stroke-width="3.91" stroke-miterlimit="10"/>
<path d="M659.5 336.96L652.24 342.82V331.09L659.5 336.96Z" fill="#5B6770" stroke="#5B6770" stroke-width="3.91" stroke-miterlimit="10"/>
<path d="M607.63 336.959H617.75" stroke="#5B6770" stroke-width="3.91" stroke-miterlimit="10"/>
<path d="M600.84 336.96L608.1 342.82V331.09L600.84 336.96Z" fill="#5B6770" stroke="#5B6770" stroke-width="3.91" stroke-miterlimit="10"/>
<path d="M635.22 332.111H625.12V342.051H635.22V332.111Z" fill="white" stroke="#5B6770" stroke-width="3.91" stroke-miterlimit="10"/>
<path d="M45.6 310.051H34.45V321.021H45.6V310.051Z" fill="white" stroke="#5B6770" stroke-width="3.91" stroke-miterlimit="10"/>
<path d="M55.74 358.141H37.25C35.6042 358.141 34.27 359.475 34.27 361.121V366.791C34.27 368.436 35.6042 369.771 37.25 369.771H55.74C57.3858 369.771 58.72 368.436 58.72 366.791V361.121C58.72 359.475 57.3858 358.141 55.74 358.141Z" fill="#C8E7F2" stroke="#4791CF" stroke-width="3.91" stroke-miterlimit="10"/>
<path d="M79.675 349.422L75.3758 353.721C74.7276 354.369 74.7276 355.42 75.3758 356.068L79.675 360.368C80.3233 361.016 81.3743 361.016 82.0226 360.368L86.3218 356.068C86.9701 355.42 86.9701 354.369 86.3218 353.721L82.0226 349.422C81.3744 348.773 80.3233 348.773 79.675 349.422Z" fill="#C8E7F2" stroke="#4791CF" stroke-width="3.91" stroke-miterlimit="10"/>
<path d="M82.82 311.85V319.23C82.82 320.301 83.6886 321.17 84.76 321.17H91.6C92.6714 321.17 93.54 320.301 93.54 319.23V311.85C93.54 310.778 92.6714 309.91 91.6 309.91H84.76C83.6886 309.91 82.82 310.778 82.82 311.85Z" fill="#C8E7F2" stroke="#4791CF" stroke-width="3.91" stroke-miterlimit="10"/>
<path d="M39.12 341.43V330.25" stroke="#5B6770" stroke-width="3.91" stroke-miterlimit="10"/>
<path d="M39.12 346.04L36.14 342.34H42.11L39.12 346.04Z" fill="#5B6770" stroke="#5B6770" stroke-width="3.91" stroke-miterlimit="10"/>
<path d="M67.5 313.76H56.32" stroke="#5B6770" stroke-width="3.91" stroke-miterlimit="10"/>
<path d="M72.11 313.76L68.42 316.75V310.77L72.11 313.76Z" fill="#5B6770" stroke="#5B6770" stroke-width="3.91" stroke-miterlimit="10"/>
<path d="M66.53 341.851L51.9 327.211" stroke="#5B6770" stroke-width="3.91" stroke-miterlimit="10"/>
<path d="M69.79 345.111L65.07 344.611L69.29 340.381L69.79 345.111Z" fill="#5B6770" stroke="#5B6770" stroke-width="3.91" stroke-miterlimit="10"/>
</svg>
