<svg width="682" height="492" viewBox="0 0 682 492" fill="none" xmlns="http://www.w3.org/2000/svg">
<path d="M322.98 174.721H311.5L341.6 203.741L355.18 195.131L322.98 174.721Z" fill="#3CB28D"/>
<path d="M401.77 224.66L364.84 201.26L351.94 213.7L363.31 224.66H401.77Z" fill="#3CB28D"/>
<path d="M289.63 236.68H328.1L351.94 213.7L341.6 203.74L289.63 236.68Z" fill="#3CB28D"/>
<path d="M379.9 186.74H368.42L355.18 195.13L364.84 201.26L379.9 186.74Z" fill="#3CB28D"/>
<path opacity="0.6" d="M645.86 421.199H35.22C15.7685 421.199 0 436.968 0 456.419C0 475.871 15.7685 491.639 35.22 491.639H645.86C665.312 491.639 681.08 475.871 681.08 456.419C681.08 436.968 665.312 421.199 645.86 421.199Z" fill="white"/>
<path d="M320.07 435.949H139.81C128.505 435.949 119.34 445.112 119.34 456.414C119.34 467.717 128.505 476.879 139.81 476.879H320.07C331.375 476.879 340.54 467.717 340.54 456.414C340.54 445.112 331.375 435.949 320.07 435.949Z" fill="#3CB28D"/>
<path d="M165.24 463.909C163.88 463.909 162.64 463.689 161.52 463.239C160.4 462.789 159.44 462.169 158.64 461.389C157.84 460.599 157.23 459.669 156.8 458.599C156.37 457.529 156.16 456.359 156.16 455.109C156.16 453.859 156.37 452.719 156.8 451.659C157.23 450.589 157.84 449.669 158.64 448.879C159.44 448.089 160.4 447.469 161.52 447.029C162.64 446.579 163.88 446.359 165.24 446.359C166.6 446.359 167.84 446.579 168.95 447.029C170.06 447.479 171.01 448.089 171.8 448.869C172.59 449.649 173.2 450.579 173.64 451.649C174.08 452.719 174.3 453.899 174.3 455.159C174.3 456.419 174.09 457.549 173.66 458.609C173.23 459.679 172.62 460.599 171.82 461.389C171.02 462.179 170.07 462.799 168.96 463.239C167.85 463.679 166.61 463.909 165.25 463.909H165.24ZM165.24 461.819C166.18 461.819 167.06 461.659 167.86 461.329C168.66 460.999 169.37 460.549 169.97 459.959C170.57 459.369 171.03 458.669 171.37 457.849C171.71 457.029 171.87 456.129 171.87 455.149C171.87 454.169 171.7 453.269 171.37 452.449C171.03 451.629 170.57 450.919 169.97 450.319C169.37 449.729 168.67 449.269 167.86 448.939C167.05 448.609 166.18 448.449 165.24 448.449C164.3 448.449 163.4 448.609 162.59 448.939C161.78 449.269 161.08 449.729 160.5 450.319C159.92 450.909 159.45 451.619 159.11 452.449C158.77 453.269 158.61 454.169 158.61 455.149C158.61 456.129 158.78 457.029 159.11 457.849C159.45 458.669 159.91 459.379 160.5 459.959C161.09 460.549 161.79 460.999 162.59 461.329C163.39 461.659 164.28 461.819 165.24 461.819Z" fill="white"/>
<path d="M182.03 463.82C181.22 463.82 180.47 463.69 179.76 463.44C179.05 463.19 178.44 462.82 177.92 462.34C177.4 461.86 176.99 461.27 176.68 460.58C176.37 459.89 176.23 459.1 176.23 458.23C176.23 457.3 176.39 456.49 176.72 455.79C177.05 455.09 177.48 454.51 178.03 454.05C178.58 453.59 179.2 453.24 179.89 453C180.58 452.76 181.29 452.65 182.03 452.65H182.21V446.6H184.46V452.65H184.66C185.47 452.65 186.22 452.78 186.93 453.03C187.64 453.28 188.25 453.65 188.77 454.13C189.29 454.61 189.7 455.2 190.01 455.89C190.31 456.58 190.46 457.37 190.46 458.24C190.46 459.17 190.29 459.98 189.96 460.68C189.62 461.38 189.19 461.96 188.65 462.42C188.11 462.88 187.49 463.23 186.8 463.47C186.1 463.71 185.39 463.82 184.67 463.82H184.47V469.53H182.22V463.82H182.04H182.03ZM178.49 458.23C178.49 459.4 178.82 460.31 179.49 460.96C180.16 461.61 181.02 461.94 182.08 461.94H182.21V454.55H182.08C181.02 454.55 180.16 454.87 179.49 455.51C178.82 456.15 178.49 457.06 178.49 458.23ZM184.45 454.55V461.94H184.6C185.66 461.94 186.52 461.61 187.19 460.96C187.85 460.31 188.19 459.4 188.19 458.23C188.19 457.06 187.86 456.15 187.19 455.51C186.52 454.87 185.66 454.55 184.6 454.55H184.45Z" fill="white"/>
<path d="M198.28 463.87C197.44 463.87 196.66 463.73 195.95 463.44C195.23 463.15 194.62 462.76 194.09 462.26C193.56 461.76 193.16 461.16 192.87 460.47C192.58 459.78 192.43 459.03 192.43 458.21C192.43 457.39 192.58 456.64 192.87 455.95C193.16 455.26 193.57 454.67 194.09 454.17C194.61 453.67 195.23 453.29 195.95 453.01C196.66 452.73 197.44 452.6 198.28 452.6C199.12 452.6 199.9 452.74 200.61 453.01C201.32 453.29 201.94 453.67 202.46 454.17C202.98 454.67 203.39 455.26 203.68 455.95C203.97 456.64 204.12 457.39 204.12 458.21C204.12 459.03 203.97 459.8 203.68 460.49C203.39 461.18 202.97 461.78 202.44 462.27C201.91 462.77 201.29 463.16 200.57 463.44C199.86 463.72 199.09 463.87 198.26 463.87H198.28ZM198.28 461.91C198.8 461.91 199.28 461.82 199.72 461.64C200.16 461.46 200.53 461.21 200.84 460.88C201.15 460.55 201.39 460.16 201.56 459.7C201.73 459.25 201.81 458.75 201.81 458.2C201.81 457.12 201.49 456.24 200.86 455.56C200.23 454.88 199.37 454.54 198.27 454.54C197.17 454.54 196.33 454.88 195.68 455.56C195.03 456.24 194.71 457.12 194.71 458.2C194.71 458.73 194.79 459.23 194.96 459.69C195.13 460.15 195.37 460.54 195.68 460.87C195.99 461.2 196.37 461.45 196.8 461.63C197.23 461.81 197.72 461.91 198.26 461.91H198.28Z" fill="white"/>
<path d="M206.86 469.53V452.79H208.98V454.52C209.27 454 209.75 453.55 210.44 453.17C211.13 452.79 211.97 452.6 212.96 452.6C213.68 452.6 214.37 452.73 215.03 453C215.69 453.27 216.26 453.65 216.75 454.13C217.24 454.61 217.63 455.21 217.91 455.91C218.19 456.61 218.34 457.38 218.34 458.23C218.34 459.08 218.19 459.87 217.9 460.57C217.61 461.27 217.21 461.86 216.71 462.35C216.21 462.84 215.64 463.21 214.99 463.47C214.34 463.73 213.66 463.86 212.96 463.86C212.1 463.86 211.34 463.69 210.68 463.36C210.01 463.03 209.49 462.59 209.1 462.05V469.52H206.85L206.86 469.53ZM212.53 454.55C211.99 454.55 211.51 454.64 211.09 454.82C210.67 455 210.32 455.24 210.03 455.55C209.74 455.86 209.52 456.22 209.36 456.63C209.2 457.04 209.11 457.47 209.1 457.93V458.3C209.1 458.77 209.18 459.23 209.34 459.66C209.5 460.09 209.73 460.48 210.02 460.81C210.31 461.14 210.68 461.41 211.1 461.62C211.52 461.83 212.01 461.93 212.55 461.93C213.05 461.93 213.51 461.84 213.93 461.66C214.35 461.48 214.7 461.23 215 460.91C215.3 460.59 215.54 460.2 215.71 459.75C215.88 459.3 215.96 458.78 215.96 458.21C215.96 457.04 215.63 456.13 214.96 455.5C214.29 454.87 213.48 454.56 212.52 454.56L212.53 454.55Z" fill="white"/>
<path d="M222.02 452.789H223.69L227.15 460.079L230.53 452.789H232.22L234.14 463.669H232.02L230.81 456.549L227.43 463.669H226.7L223.34 456.669L222.1 463.669H220.08L222.02 452.789Z" fill="white"/>
<path d="M235.83 463.839C235.68 463.839 235.56 463.839 235.48 463.829C235.4 463.829 235.32 463.809 235.25 463.789V461.619C235.32 461.639 235.38 461.639 235.44 461.639H235.58C235.83 461.639 236.07 461.549 236.29 461.379C236.51 461.209 236.7 460.899 236.86 460.459C237.02 460.019 237.15 459.419 237.24 458.659C237.33 457.899 237.38 456.909 237.38 455.709V452.779H245.33V463.659H243.08V454.729H239.5V456.749C239.5 458.119 239.41 459.249 239.24 460.149C239.07 461.049 238.81 461.779 238.49 462.319C238.17 462.859 237.78 463.249 237.33 463.479C236.88 463.709 236.38 463.819 235.84 463.819L235.83 463.839Z" fill="white"/>
<path d="M253.97 463.87C253.11 463.87 252.32 463.74 251.61 463.48C250.9 463.22 250.27 462.85 249.74 462.36C249.21 461.87 248.8 461.28 248.5 460.59C248.21 459.9 248.06 459.12 248.06 458.26C248.06 457.4 248.22 456.57 248.54 455.87C248.86 455.17 249.28 454.58 249.81 454.09C250.34 453.6 250.95 453.23 251.65 452.98C252.35 452.73 253.08 452.6 253.86 452.6C254.74 452.6 255.51 452.75 256.19 453.05C256.87 453.35 257.45 453.76 257.92 454.27C258.39 454.78 258.75 455.37 258.99 456.03C259.23 456.69 259.36 457.38 259.36 458.09V458.7H250.28C250.4 459.73 250.81 460.54 251.5 461.12C252.19 461.7 253.07 461.99 254.11 461.99C254.82 461.99 255.47 461.86 256.07 461.6C256.67 461.34 257.16 460.99 257.55 460.53L258.91 461.75C258.36 462.45 257.64 462.98 256.77 463.33C255.89 463.68 254.96 463.86 253.97 463.86V463.87ZM253.72 454.47C252.88 454.47 252.16 454.7 251.56 455.17C250.96 455.63 250.57 456.27 250.39 457.09H257.1C256.97 456.34 256.59 455.72 255.98 455.22C255.37 454.72 254.61 454.48 253.72 454.48V454.47Z" fill="white"/>
<path d="M269.89 458.939H264.34V463.669H262.09V452.789H264.34V456.989H269.89V452.789H272.14V463.669H269.89V458.939Z" fill="white"/>
<path d="M275.67 452.789H277.92V459.959L284.18 452.789H285.69V463.669H283.42V456.349L277.01 463.669H275.67V452.789Z" fill="white"/>
<path d="M294.32 463.87C293.46 463.87 292.67 463.74 291.96 463.48C291.25 463.22 290.62 462.85 290.09 462.36C289.56 461.87 289.15 461.28 288.85 460.59C288.56 459.9 288.41 459.12 288.41 458.26C288.41 457.4 288.57 456.57 288.89 455.87C289.21 455.17 289.63 454.58 290.16 454.09C290.69 453.6 291.3 453.23 292 452.98C292.7 452.73 293.43 452.6 294.21 452.6C295.09 452.6 295.86 452.75 296.54 453.05C297.22 453.35 297.8 453.76 298.27 454.27C298.74 454.78 299.1 455.37 299.34 456.03C299.58 456.69 299.71 457.38 299.71 458.09V458.7H290.63C290.75 459.73 291.16 460.54 291.85 461.12C292.54 461.7 293.42 461.99 294.46 461.99C295.17 461.99 295.82 461.86 296.42 461.6C297.02 461.34 297.51 460.99 297.9 460.53L299.26 461.75C298.71 462.45 297.99 462.98 297.12 463.33C296.24 463.68 295.31 463.86 294.32 463.86V463.87ZM294.07 454.47C293.23 454.47 292.51 454.7 291.91 455.17C291.31 455.63 290.92 456.27 290.74 457.09H297.45C297.32 456.34 296.94 455.72 296.33 455.22C295.72 454.72 294.96 454.48 294.07 454.48V454.47Z" fill="white"/>
<path d="M623.96 461.041C626.512 461.041 628.58 458.972 628.58 456.421C628.58 453.869 626.512 451.801 623.96 451.801C621.408 451.801 619.34 453.869 619.34 456.421C619.34 458.972 621.408 461.041 623.96 461.041Z" fill="#5B6770"/>
<path d="M523.02 461.041C525.572 461.041 527.64 458.972 527.64 456.421C527.64 453.869 525.572 451.801 523.02 451.801C520.468 451.801 518.4 453.869 518.4 456.421C518.4 458.972 520.468 461.041 523.02 461.041Z" fill="#5B6770"/>
<path d="M422.09 461.041C424.642 461.041 426.71 458.972 426.71 456.421C426.71 453.869 424.642 451.801 422.09 451.801C419.538 451.801 417.47 453.869 417.47 456.421C417.47 458.972 419.538 461.041 422.09 461.041Z" fill="#5B6770"/>
<path d="M56.12 461.041C58.6716 461.041 60.74 458.972 60.74 456.421C60.74 453.869 58.6716 451.801 56.12 451.801C53.5684 451.801 51.5 453.869 51.5 456.421C51.5 458.972 53.5684 461.041 56.12 461.041Z" fill="#3CB28D"/>
<path d="M226.55 0H180.39C162.17 0 147.4 14.7701 147.4 32.99V79.15C147.4 97.3699 162.17 112.14 180.39 112.14H226.55C244.77 112.14 259.54 97.3699 259.54 79.15V32.99C259.54 14.7701 244.77 0 226.55 0Z" fill="white"/>
<path d="M511.01 140.5H464.85C446.63 140.5 431.86 155.27 431.86 173.49V308.71H432.29C432.01 310.43 431.86 312.2 431.86 314V360.16C431.86 378.38 446.63 393.15 464.85 393.15H511.01C529.23 393.15 544 378.38 544 360.16V314C544 312.2 543.85 310.44 543.57 308.71H544V173.49C544 155.27 529.23 140.5 511.01 140.5Z" fill="#93C9B7"/>
<path d="M368.78 0H322.62C304.4 0 289.63 14.77 289.63 32.99V61.61C289.63 80.85 282.75 98.45 271.33 112.14C267.82 116.35 263.85 120.15 259.54 123.55C246.11 134.14 229.19 140.51 210.74 140.51H180.39C162.17 140.51 147.4 155.28 147.4 173.5V219.66C147.4 237.88 162.17 252.65 180.39 252.65H226.55C244.77 252.65 259.54 237.88 259.54 219.66V191.03C259.54 171.8 266.43 154.2 277.84 140.51C281.35 136.3 285.32 132.5 289.63 129.1C303.06 118.51 319.97 112.15 338.42 112.14H368.78C387 112.14 401.77 97.37 401.77 79.15V32.99C401.77 14.77 387 0 368.78 0Z" fill="#93C9B7"/>
<path d="M368.78 281H322.62C304.4 281 289.63 295.77 289.63 313.99V360.15C289.63 378.37 304.4 393.14 322.62 393.14H368.78C387 393.14 401.77 378.37 401.77 360.15V313.99C401.77 295.77 387 281 368.78 281Z" fill="white"/>
<path d="M233.12 40.61L219.28 26.75" stroke="#5B6770" stroke-width="3.91" stroke-miterlimit="10"/>
<path d="M187.65 86.0807L173.81 72.2207" stroke="#5B6770" stroke-width="3.91" stroke-miterlimit="10"/>
<path d="M215.05 44.8301L192.21 67.67" stroke="#5B6770" stroke-width="3.91" stroke-miterlimit="10"/>
<path d="M219.85 40.0293L218.87 49.3093L210.57 41.0093L219.85 40.0293Z" fill="#5B6770" stroke="#5B6770" stroke-width="3.91" stroke-miterlimit="10"/>
<path d="M187.08 72.7995L196.36 71.8195L188.06 63.5195L187.08 72.7995Z" fill="#5B6770" stroke="#5B6770" stroke-width="3.91" stroke-miterlimit="10"/>
<path d="M345.27 35.0977V45.2277" stroke="#5B6770" stroke-width="3.91" stroke-miterlimit="10"/>
<path d="M345.27 28.3184L339.41 35.5684H351.14L345.27 28.3184Z" fill="#5B6770" stroke="#5B6770" stroke-width="3.91" stroke-miterlimit="10"/>
<path d="M345.27 77.7275V67.6074" stroke="#5B6770" stroke-width="3.91" stroke-miterlimit="10"/>
<path d="M345.27 84.5078L339.41 77.2578H351.14L345.27 84.5078Z" fill="#5B6770" stroke="#5B6770" stroke-width="3.91" stroke-miterlimit="10"/>
<path d="M368.27 56.2969H358.14" stroke="#5B6770" stroke-width="3.91" stroke-miterlimit="10"/>
<path d="M375.05 56.2977L367.79 62.1578V50.4277L375.05 56.2977Z" fill="#5B6770" stroke="#5B6770" stroke-width="3.91" stroke-miterlimit="10"/>
<path d="M323.18 56.2969H333.3" stroke="#5B6770" stroke-width="3.91" stroke-miterlimit="10"/>
<path d="M316.4 56.2977L323.65 62.1578V50.4277L316.4 56.2977Z" fill="#5B6770" stroke="#5B6770" stroke-width="3.91" stroke-miterlimit="10"/>
<path d="M350.77 51.4492H340.67V61.3892H350.77V51.4492Z" fill="white" stroke="#5B6770" stroke-width="3.91" stroke-miterlimit="10"/>
<path d="M471.82 331.918C478.221 331.918 483.41 326.729 483.41 320.328C483.41 313.927 478.221 308.738 471.82 308.738C465.419 308.738 460.23 313.927 460.23 320.328C460.23 326.729 465.419 331.918 471.82 331.918Z" fill="#D9D9D6" stroke="#5B6770" stroke-width="3.91" stroke-miterlimit="10"/>
<path d="M504.15 366.838C510.501 366.838 515.65 361.689 515.65 355.338C515.65 348.987 510.501 343.838 504.15 343.838C497.799 343.838 492.65 348.987 492.65 355.338C492.65 361.689 497.799 366.838 504.15 366.838Z" fill="#C8E7F2" stroke="#4791CF" stroke-width="3.91" stroke-miterlimit="10"/>
<path d="M492.65 357.438C499.001 357.438 504.15 352.289 504.15 345.938C504.15 339.586 499.001 334.438 492.65 334.438C486.299 334.438 481.15 339.586 481.15 345.938C481.15 352.289 486.299 357.438 492.65 357.438Z" fill="#C8E7F2" stroke="#4791CF" stroke-width="3.91" stroke-miterlimit="10"/>
<path d="M508.58 323.688V318.628C508.63 318.238 508.53 315.968 506.79 314.308C505.23 312.818 503.26 313.118 502.69 312.998" stroke="#5B6770" stroke-width="3.91" stroke-miterlimit="10"/>
<path d="M490.05 312.998H503.08" stroke="#5B6770" stroke-width="3.91" stroke-miterlimit="10"/>
<path d="M508.58 327.079L505.64 323.459H511.51L508.58 327.079Z" fill="#5B6770" stroke="#5B6770" stroke-width="3.91" stroke-miterlimit="10"/>
<path d="M324.61 308.029V367.549" stroke="#5B6770" stroke-width="3.91" stroke-miterlimit="10"/>
<path d="M375.8 340.949H336.16C334.249 340.949 332.7 342.498 332.7 344.409V355.709C332.7 357.62 334.249 359.169 336.16 359.169H375.8C377.711 359.169 379.26 357.62 379.26 355.709V344.409C379.26 342.498 377.711 340.949 375.8 340.949Z" fill="#D9D9D6" stroke="#5B6770" stroke-width="3.91" stroke-miterlimit="10"/>
<path d="M349.98 315.389H335.95C334.155 315.389 332.7 316.844 332.7 318.639V328.669C332.7 330.464 334.155 331.919 335.95 331.919H349.98C351.775 331.919 353.23 330.464 353.23 328.669V318.639C353.23 316.844 351.775 315.389 349.98 315.389Z" fill="#C8E7F2" stroke="#4791CF" stroke-width="3.91" stroke-miterlimit="10"/>
<path d="M187.75 171.469H176.6V182.439H187.75V171.469Z" fill="white" stroke="#5B6770" stroke-width="3.91" stroke-miterlimit="10"/>
<path d="M197.88 219.559H179.39C177.744 219.559 176.41 220.893 176.41 222.539V228.209C176.41 229.854 177.744 231.189 179.39 231.189H197.88C199.526 231.189 200.86 229.854 200.86 228.209V222.539C200.86 220.893 199.526 219.559 197.88 219.559Z" fill="#C8E7F2" stroke="#4791CF" stroke-width="3.91" stroke-miterlimit="10"/>
<path d="M221.82 210.834L217.521 215.133C216.872 215.781 216.872 216.832 217.521 217.48L221.82 221.78C222.468 222.428 223.519 222.428 224.168 221.78L228.467 217.48C229.115 216.832 229.115 215.781 228.467 215.133L224.168 210.834C223.519 210.185 222.468 210.185 221.82 210.834Z" fill="#C8E7F2" stroke="#4791CF" stroke-width="3.91" stroke-miterlimit="10"/>
<path d="M224.98 173.268V180.648C224.98 181.719 225.849 182.588 226.92 182.588H233.76C234.831 182.588 235.7 181.719 235.7 180.648V173.268C235.7 172.196 234.831 171.328 233.76 171.328H226.92C225.849 171.328 224.98 172.196 224.98 173.268Z" fill="#C8E7F2" stroke="#4791CF" stroke-width="3.91" stroke-miterlimit="10"/>
<path d="M181.27 202.838V191.658" stroke="#5B6770" stroke-width="3.91" stroke-miterlimit="10"/>
<path d="M181.27 207.458L178.29 203.758H184.26L181.27 207.458Z" fill="#5B6770" stroke="#5B6770" stroke-width="3.91" stroke-miterlimit="10"/>
<path d="M209.65 175.178H198.47" stroke="#5B6770" stroke-width="3.91" stroke-miterlimit="10"/>
<path d="M214.26 175.177L210.56 178.167V172.188L214.26 175.177Z" fill="#5B6770" stroke="#5B6770" stroke-width="3.91" stroke-miterlimit="10"/>
<path d="M208.68 203.259L194.05 188.629" stroke="#5B6770" stroke-width="3.91" stroke-miterlimit="10"/>
<path d="M211.94 206.529L207.22 206.029L211.44 201.799L211.94 206.529Z" fill="#5B6770" stroke="#5B6770" stroke-width="3.91" stroke-miterlimit="10"/>
<path d="M501.89 162.83H473.97C463.046 162.83 454.19 171.686 454.19 182.61V210.53C454.19 221.454 463.046 230.31 473.97 230.31H501.89C512.814 230.31 521.67 221.454 521.67 210.53V182.61C521.67 171.686 512.814 162.83 501.89 162.83Z" fill="#3CB28D"/>
<path d="M487.94 210.14V183" stroke="white" stroke-width="4.39" stroke-miterlimit="10"/>
<path d="M501.51 196.57H474.36" stroke="white" stroke-width="4.39" stroke-miterlimit="10"/>
</svg>
