<svg width="312" height="119" viewBox="0 0 312 119" fill="none" xmlns="http://www.w3.org/2000/svg">

   <!-- 1 -->
   <path
      d="M66.7393 66.1777H119.559V103.458C119.559 112.034 112.596 118.997 104.019 118.997H82.2789C73.7026 118.997 66.7393 112.034 66.7393 103.458V66.1777Z"
      fill="#93C9B7">
      <animate attributeName="fill" values="#93C9B7; #FBFBFB; #93C9B7" dur="3s" repeatCount="indefinite" begin="0s" />
   </path>
   <path
      d="M149.276 0.00585938L171.016 0.00585938C179.593 0.00585938 186.556 6.96918 186.556 15.5455V37.286C186.556 45.8623 179.593 52.8256 171.016 52.8256H133.736V15.5455C133.736 6.96918 140.7 0.00585938 149.276 0.00585938Z"
      fill="#93C9B7">
      <animate attributeName="fill" values="#93C9B7; #FBFBFB; #93C9B7" dur="3s" repeatCount="indefinite" begin="0s" />
   </path>
   <path
      d="M133.802 60.8092C131.77 62.4083 129.902 64.1978 128.247 66.1827C122.869 72.63 119.624 80.9229 119.624 89.9826H95.3411L96.6425 66.1827C105.33 66.1827 113.302 63.1845 119.624 58.1968C121.655 56.5977 123.524 54.8081 125.179 52.8232C130.557 46.3759 133.802 38.0832 133.802 29.0234L152.069 30.9415L156.788 52.8232C148.1 52.8232 140.128 55.8215 133.802 60.8092Z"
      fill="#93C9B7">
      <animate attributeName="fill" values="#93C9B7; #FBFBFB; #93C9B7" dur="3s" repeatCount="indefinite" begin="0s" />
   </path>
   <path
      d="M52.8193 52.8203H15.5392C6.96291 52.8203 -0.000354767 45.8569 -0.000354767 37.2806V15.5401C-0.000354767 6.96378 6.96291 0.000514984 15.5392 0.000514984H37.2798C45.8561 0.000514984 52.8193 6.96378 52.8193 15.5401V52.8203Z"
      fill="#93C9B7">
      <animate attributeName="fill" values="#93C9B7; #FBFBFB; #93C9B7" dur="3s" repeatCount="indefinite" begin="0s" />
   </path>
   <path
      d="M52.7528 60.8092C54.7841 62.4083 56.6528 64.1978 58.3076 66.1827C63.6858 72.63 66.9304 80.9229 66.9304 89.9826L88.2502 92.8266L89.9121 66.1827C81.2243 66.1827 73.2522 63.1845 66.9304 58.1968C64.899 56.5977 63.0304 54.8081 61.3756 52.8232C55.9974 46.3759 52.7528 38.0832 52.7528 29.0234H36.0333L29.7665 52.8232C38.4543 52.8232 46.4263 55.8215 52.7528 60.8092Z"
      fill="#93C9B7">
      <animate attributeName="fill" values="#93C9B7; #FBFBFB; #93C9B7" dur="3s" repeatCount="indefinite" begin="0s" />
   </path>

   <!-- 2 -->
   <path
      d="M66.7393 15.5441V37.2847C66.7393 45.8669 73.6966 52.8242 82.2789 52.8242L104.019 52.8242C112.602 52.8242 119.559 45.8669 119.559 37.2847V15.5441C119.559 6.96181 112.602 0.00452805 104.019 0.00452805L82.2789 0.00452805C73.6966 0.00452805 66.7393 6.96181 66.7393 15.5441Z"
      fill="#FBFBFB">
      <animate attributeName="fill" values="#FBFBFB; #93C9B7; #FBFBFB" dur="3s" repeatCount="indefinite" begin="1.5s" />
   </path>

   <!-- 3 -->
   <path
      d="M193.849 15.5425V37.284C193.849 45.8666 200.806 52.8242 209.389 52.8242L231.13 52.8242C239.713 52.8242 246.671 45.8666 246.671 37.284V15.5425C246.671 6.95985 239.713 0.00227356 231.13 0.00227356L209.389 0.00227356C200.806 0.00227356 193.849 6.95985 193.849 15.5425Z"
      fill="#FBFBFB">
      <animate attributeName="fill" values="#FBFBFB; #93C9B7; #FBFBFB" dur="3s" repeatCount="indefinite" begin="1s" />
   </path>

   <!-- 4 -->
   <path
      d="M133.089 79.6909V101.432C133.089 110.015 140.046 116.973 148.629 116.973H170.371C178.953 116.973 185.911 110.015 185.911 101.432V79.6909C185.911 71.1083 178.953 64.1507 170.371 64.1507H148.629C140.046 64.1507 133.089 71.1083 133.089 79.6909Z"
      fill="#FBFBFB">
      <animate attributeName="fill" values="#FBFBFB; #93C9B7; #FBFBFB" dur="3s" repeatCount="indefinite" begin="0s" />
   </path>

   <!-- 5 -->
   <path
      d="M209.004 65.1387H245.695V101.83C245.695 110.271 238.842 117.124 230.401 117.124H209.004C200.563 117.124 193.71 110.271 193.71 101.83V80.4328C193.71 71.992 200.563 65.1387 209.004 65.1387Z"
      fill="#93C9B7">
      <animate attributeName="fill" values="#93C9B7; #FBFBFB; #93C9B7" dur="3s" repeatCount="indefinite" begin="0.5s" />
   </path>
   <path
      d="M274.939 0.00195312H296.336C304.777 0.00195312 311.63 6.85536 311.63 15.2962V36.6934C311.63 45.1342 304.777 51.9875 296.336 51.9875H259.645V15.2962C259.645 6.85536 266.498 0.00195312 274.939 0.00195312Z"
      fill="#93C9B7">
      <animate attributeName="fill" values="#93C9B7; #FBFBFB; #93C9B7" dur="3s" repeatCount="indefinite" begin="0.5s" />
   </path>
   <path
      d="M259.708 59.8481C257.709 61.4219 255.87 63.1833 254.241 65.1368C248.948 71.4823 245.754 79.6441 245.754 88.5607L223.136 84.4622V65.1368C231.686 65.1368 239.533 62.186 245.754 57.277C247.754 55.7033 249.593 53.9419 251.222 51.9883C256.515 45.6428 259.708 37.4811 259.708 28.5645L276.501 35.2919L282.331 51.9883C273.781 51.9883 265.935 54.9392 259.708 59.8481Z"
      fill="#93C9B7">
      <animate attributeName="fill" values="#93C9B7; #FBFBFB; #93C9B7" dur="3s" repeatCount="indefinite" begin="0.5s" />
   </path>
</svg>