<svg width="666" height="197" viewBox="0 0 666 197" fill="none" xmlns="http://www.w3.org/2000/svg">
<path d="M471.066 82.9905V123.751H430.305C420.928 123.751 413.314 116.138 413.314 106.761V82.9905C413.314 73.6134 420.928 66 430.305 66H454.075C463.452 66 471.066 73.6134 471.066 82.9905Z" fill="#FBFBFB"/>
<path d="M543.424 156.239V180.009C543.424 189.386 535.81 196.999 526.433 196.999H502.663C493.286 196.999 485.672 189.386 485.672 180.009V139.248H526.433C535.81 139.248 543.424 146.861 543.424 156.239Z" fill="#FBFBFB"/>
<path d="M563.424 156.239V180.009C563.424 189.386 555.81 196.999 546.433 196.999H522.663C513.286 196.999 505.672 189.386 505.672 180.009V139.248H546.433C555.81 139.248 563.424 146.861 563.424 156.239Z" fill="#FBFBFB"/>
<path d="M581.424 156.239V180.009C581.424 189.386 573.81 196.999 564.433 196.999H540.663C531.286 196.999 523.672 189.386 523.672 180.009V139.248H564.433C573.81 139.248 581.424 146.861 581.424 156.239Z" fill="#FBFBFB"/>
<path d="M582.424 156.239V180.009C582.424 189.386 574.81 196.999 565.433 196.999H541.663C532.286 196.999 524.672 189.386 524.672 180.009V139.248H565.433C574.81 139.248 582.424 146.861 582.424 156.239Z" fill="#FBFBFB"/>
<path d="M600.424 156.239V180.009C600.424 189.386 592.81 196.999 583.433 196.999H559.663C550.286 196.999 542.672 189.386 542.672 180.009V139.248H583.433C592.81 139.248 600.424 146.861 600.424 156.239Z" fill="#FBFBFB"/>
<path d="M599.424 156.239V180.009C599.424 189.386 591.81 196.999 582.433 196.999H558.663C549.286 196.999 541.672 189.386 541.672 180.009V139.248H582.433C591.81 139.248 599.424 146.861 599.424 156.239Z" fill="#FBFBFB"/>
<path d="M617.424 156.239V180.009C617.424 189.386 609.81 196.999 600.433 196.999H576.663C567.286 196.999 559.672 189.386 559.672 180.009V139.248H600.433C609.81 139.248 617.424 146.861 617.424 156.239Z" fill="#FBFBFB"/>
<path d="M636.424 156.239V180.009C636.424 189.386 628.81 196.999 619.433 196.999H595.663C586.286 196.999 578.672 189.386 578.672 180.009V139.248H619.433C628.81 139.248 636.424 146.861 636.424 156.239Z" fill="#FBFBFB"/>
<path d="M653.424 156.239V180.009C653.424 189.386 645.81 196.999 636.433 196.999H612.663C603.286 196.999 595.672 189.386 595.672 180.009V139.248H636.433C645.81 139.248 653.424 146.861 653.424 156.239Z" fill="#FBFBFB"/>
<path d="M665.424 156.239V180.009C665.424 189.386 657.81 196.999 648.433 196.999H624.663C615.286 196.999 607.672 189.386 607.672 180.009V139.248H648.433C657.81 139.248 665.424 146.861 665.424 156.239Z" fill="#FBFBFB"/>
<path d="M398.707 106.761V82.9905C398.707 73.6069 391.1 66 381.716 66H357.946C348.562 66 340.955 73.6069 340.955 82.9905V106.761C340.955 116.144 348.562 123.751 357.946 123.751H381.716C391.1 123.751 398.707 116.144 398.707 106.761Z" fill="#FBFBFB"/>
<path d="M442.192 123.751V66H384.441V123.751H442.192Z" fill="#FBFBFB"/>
<path d="M355.707 106.761V82.9905C355.707 73.6069 348.1 66 338.716 66H314.946C305.562 66 297.955 73.6069 297.955 82.9905V106.761C297.955 116.144 305.562 123.751 314.946 123.751H338.716C348.1 123.751 355.707 116.144 355.707 106.761Z" fill="#FBFBFB"/>
<path d="M399.192 123.751V66H341.441V123.751H399.192Z" fill="#FBFBFB"/>
<path d="M305.707 106.761V82.9905C305.707 73.6069 298.1 66 288.716 66H264.946C255.562 66 247.955 73.6069 247.955 82.9905V106.761C247.955 116.144 255.562 123.751 264.946 123.751H288.716C298.1 123.751 305.707 116.144 305.707 106.761Z" fill="#FBFBFB"/>
<path d="M349.192 123.751V66H291.441V123.751H349.192Z" fill="#FBFBFB"/>
<path d="M255.707 106.761V82.9905C255.707 73.6069 248.1 66 238.716 66H214.946C205.562 66 197.955 73.6069 197.955 82.9905V106.761C197.955 116.144 205.562 123.751 214.946 123.751H238.716C248.1 123.751 255.707 116.144 255.707 106.761Z" fill="#FBFBFB"/>
<path d="M299.192 123.751V66H241.441V123.751H299.192Z" fill="#FBFBFB"/>
<path d="M211.707 106.761V82.9905C211.707 73.6069 204.1 66 194.716 66H170.946C161.562 66 153.955 73.6069 153.955 82.9905V106.761C153.955 116.144 161.562 123.751 170.946 123.751H194.716C204.1 123.751 211.707 116.144 211.707 106.761Z" fill="#FBFBFB"/>
<path d="M255.192 123.751V66H197.441V123.751H255.192Z" fill="#FBFBFB"/>
<path d="M145.707 106.761V82.9905C145.707 73.6069 138.1 66 128.716 66H104.946C95.5623 66 87.9553 73.6069 87.9553 82.9905V106.761C87.9553 116.144 95.5623 123.751 104.946 123.751H128.716C138.1 123.751 145.707 116.144 145.707 106.761Z" fill="#FBFBFB"/>
<path d="M189.192 123.751V66H131.441V123.751H189.192Z" fill="#FBFBFB"/>
<path d="M476.941 139.318C475.192 137.097 473.236 135.054 471.065 133.245C464.016 127.364 454.949 123.817 445.043 123.817L435.41 94.7871L471.065 98.6893C471.065 108.188 474.344 116.905 479.797 123.817C481.545 126.038 483.502 128.081 485.672 129.89C492.722 135.771 501.789 139.318 511.694 139.318L514.699 165.971L485.672 164.451C485.672 154.952 482.394 146.235 476.941 139.318Z" fill="#FBFBFB"/>
<path d="M120.941 96.924C120.941 98.9187 120.501 100.708 119.621 102.292C118.741 103.876 117.567 105.108 116.101 105.988C114.663 106.868 113.138 107.308 111.525 107.308C110.234 107.308 109.031 107.073 107.917 106.604C106.802 106.105 105.863 105.445 105.101 104.624V117.56H99.6888V86.892H104.793V89.576C105.467 88.6667 106.391 87.9333 107.565 87.376C108.767 86.8187 110.087 86.54 111.525 86.54C113.197 86.54 114.751 86.98 116.189 87.86C117.626 88.74 118.77 89.972 119.621 91.556C120.501 93.14 120.941 94.9293 120.941 96.924ZM115.133 96.924C115.133 95.164 114.649 93.8 113.681 92.832C112.713 91.8347 111.525 91.336 110.117 91.336C108.621 91.336 107.403 91.8347 106.465 92.832C105.555 93.8293 105.101 95.1053 105.101 96.66V97.012C105.13 98.6547 105.599 100.004 106.509 101.06C107.447 102.116 108.635 102.644 110.073 102.644C111.539 102.644 112.742 102.131 113.681 101.104C114.649 100.048 115.133 98.6547 115.133 96.924ZM139.956 86.892H145.104V107H139.956V104.272C139.223 105.211 138.27 105.959 137.096 106.516C135.923 107.044 134.647 107.308 133.268 107.308C131.655 107.308 130.115 106.868 128.648 105.988C127.211 105.108 126.052 103.876 125.172 102.292C124.292 100.708 123.852 98.9187 123.852 96.924C123.852 94.9293 124.278 93.14 125.128 91.556C126.008 89.972 127.167 88.74 128.604 87.86C130.042 86.98 131.596 86.54 133.268 86.54C134.706 86.54 136.011 86.8187 137.184 87.376C138.358 87.904 139.282 88.6227 139.956 89.532V86.892ZM139.648 97.012V96.66C139.648 95.1053 139.194 93.8293 138.284 92.832C137.375 91.8347 136.172 91.336 134.676 91.336C133.239 91.336 132.036 91.8347 131.068 92.832C130.1 93.8 129.616 95.164 129.616 96.924C129.616 98.6547 130.086 100.048 131.024 101.104C131.992 102.131 133.21 102.644 134.676 102.644C136.143 102.644 137.331 102.116 138.24 101.06C139.179 100.004 139.648 98.6547 139.648 97.012ZM171.116 96.748C171.116 98.8307 170.661 100.679 169.752 102.292C168.843 103.905 167.567 105.167 165.924 106.076C164.311 106.956 162.477 107.396 160.424 107.396C156.552 107.396 153.707 106.179 151.888 103.744C150.099 101.28 149.204 97.54 149.204 92.524C149.204 82.3453 153.472 77.1387 162.008 76.904C163.093 76.8747 163.915 76.7573 164.472 76.552C165.059 76.3173 165.499 75.892 165.792 75.276L170.06 76.552C169.737 77.7547 169.312 78.6933 168.784 79.368C168.256 80.0427 167.464 80.5707 166.408 80.952C165.352 81.3333 163.885 81.5827 162.008 81.7C160.101 81.788 158.591 82.0813 157.476 82.58C156.391 83.0787 155.555 83.9733 154.968 85.264C154.381 86.5253 154.029 88.4027 153.912 90.896C155.437 88.0507 157.989 86.628 161.568 86.628C164.501 86.628 166.819 87.552 168.52 89.4C170.251 91.2187 171.116 93.668 171.116 96.748ZM165.308 96.88C165.308 95.1493 164.868 93.7853 163.988 92.788C163.108 91.7613 161.891 91.248 160.336 91.248C158.781 91.248 157.549 91.7467 156.64 92.744C155.731 93.7413 155.276 95.12 155.276 96.88C155.276 98.64 155.731 100.033 156.64 101.06C157.579 102.087 158.811 102.6 160.336 102.6C161.832 102.6 163.035 102.087 163.944 101.06C164.853 100.033 165.308 98.64 165.308 96.88ZM173.997 96.924C173.997 94.8707 174.466 93.0667 175.405 91.512C176.344 89.928 177.634 88.7107 179.277 87.86C180.949 86.98 182.826 86.54 184.909 86.54C186.992 86.54 188.854 86.98 190.497 87.86C192.14 88.74 193.416 89.972 194.325 91.556C195.264 93.1107 195.733 94.9 195.733 96.924C195.733 98.9773 195.264 100.796 194.325 102.38C193.386 103.935 192.096 105.152 190.453 106.032C188.81 106.883 186.962 107.308 184.909 107.308C182.797 107.308 180.905 106.868 179.233 105.988C177.59 105.108 176.3 103.891 175.361 102.336C174.452 100.752 173.997 98.948 173.997 96.924ZM190.013 96.924C190.013 95.2227 189.558 93.844 188.649 92.788C187.74 91.732 186.493 91.204 184.909 91.204C183.296 91.204 182.02 91.7467 181.081 92.832C180.172 93.888 179.717 95.252 179.717 96.924C179.717 98.596 180.172 99.9747 181.081 101.06C182.02 102.145 183.296 102.688 184.909 102.688C186.464 102.688 187.696 102.16 188.605 101.104C189.544 100.019 190.013 98.6253 190.013 96.924ZM209.191 107H203.779V91.688H197.311V86.892H215.659V91.688H209.191V107ZM233.585 86.892H238.733V107H233.585V104.272C232.852 105.211 231.899 105.959 230.725 106.516C229.552 107.044 228.276 107.308 226.897 107.308C225.284 107.308 223.744 106.868 222.277 105.988C220.84 105.108 219.681 103.876 218.801 102.292C217.921 100.708 217.481 98.9187 217.481 96.924C217.481 94.9293 217.907 93.14 218.757 91.556C219.637 89.972 220.796 88.74 222.233 87.86C223.671 86.98 225.225 86.54 226.897 86.54C228.335 86.54 229.64 86.8187 230.813 87.376C231.987 87.904 232.911 88.6227 233.585 89.532V86.892ZM233.277 97.012V96.66C233.277 95.1053 232.823 93.8293 231.913 92.832C231.004 91.8347 229.801 91.336 228.305 91.336C226.868 91.336 225.665 91.8347 224.697 92.832C223.729 93.8 223.245 95.164 223.245 96.924C223.245 98.6547 223.715 100.048 224.653 101.104C225.621 102.131 226.839 102.644 228.305 102.644C229.772 102.644 230.96 102.116 231.869 101.06C232.808 100.004 233.277 98.6547 233.277 97.012ZM253.965 107H248.553V91.688H242.085V86.892H260.433V91.688H253.965V107ZM263.742 107V86.892H269.198V92.7H272.762C275.608 92.7 277.764 93.3013 279.23 94.504C280.726 95.6773 281.474 97.4373 281.474 99.784C281.474 102.131 280.697 103.92 279.142 105.152C277.617 106.384 275.344 107 272.322 107H263.742ZM271.794 102.732C273.173 102.732 274.2 102.527 274.874 102.116C275.549 101.676 275.886 100.899 275.886 99.784C275.886 98.728 275.564 97.9947 274.918 97.584C274.302 97.144 273.32 96.924 271.97 96.924H269.198V102.732H271.794ZM317.081 96.748C317.081 98.8307 316.626 100.679 315.717 102.292C314.807 103.905 313.531 105.167 311.889 106.076C310.275 106.956 308.442 107.396 306.389 107.396C302.517 107.396 299.671 106.179 297.853 103.744C296.063 101.28 295.169 97.54 295.169 92.524C295.169 82.3453 299.437 77.1387 307.973 76.904C309.058 76.8747 309.879 76.7573 310.437 76.552C311.023 76.3173 311.463 75.892 311.757 75.276L316.025 76.552C315.702 77.7547 315.277 78.6933 314.749 79.368C314.221 80.0427 313.429 80.5707 312.373 80.952C311.317 81.3333 309.85 81.5827 307.973 81.7C306.066 81.788 304.555 82.0813 303.441 82.58C302.355 83.0787 301.519 83.9733 300.933 85.264C300.346 86.5253 299.994 88.4027 299.877 90.896C301.402 88.0507 303.954 86.628 307.533 86.628C310.466 86.628 312.783 87.552 314.485 89.4C316.215 91.2187 317.081 93.668 317.081 96.748ZM311.273 96.88C311.273 95.1493 310.833 93.7853 309.953 92.788C309.073 91.7613 307.855 91.248 306.301 91.248C304.746 91.248 303.514 91.7467 302.605 92.744C301.695 93.7413 301.241 95.12 301.241 96.88C301.241 98.64 301.695 100.033 302.605 101.06C303.543 102.087 304.775 102.6 306.301 102.6C307.797 102.6 308.999 102.087 309.909 101.06C310.818 100.033 311.273 98.64 311.273 96.88ZM329.598 92.7C332.443 92.7 334.599 93.3013 336.066 94.504C337.562 95.6773 338.31 97.4373 338.31 99.784C338.31 102.131 337.532 103.92 335.978 105.152C334.452 106.384 332.179 107 329.158 107H321.106V86.892H326.562V92.7H329.598ZM345.702 107H340.246V86.892H345.702V107ZM328.586 102.732C329.964 102.732 330.991 102.527 331.666 102.116C332.37 101.676 332.722 100.899 332.722 99.784C332.722 98.728 332.399 97.9947 331.754 97.584C331.108 97.144 330.111 96.924 328.762 96.924H326.562V102.732H328.586ZM349.739 97.012C349.739 94.8707 350.194 93.008 351.103 91.424C352.012 89.84 353.274 88.6373 354.887 87.816C356.5 86.9653 358.304 86.54 360.299 86.54C361.971 86.54 363.496 86.8333 364.875 87.42C366.283 87.9773 367.398 88.7107 368.219 89.62L365.447 93.316C364.127 91.908 362.558 91.204 360.739 91.204C359.155 91.204 357.879 91.732 356.911 92.788C355.943 93.844 355.459 95.1933 355.459 96.836C355.459 98.5373 355.958 99.9453 356.955 101.06C357.952 102.145 359.272 102.688 360.915 102.688C362.616 102.688 364.142 101.969 365.491 100.532L368.703 103.7C367.823 104.844 366.65 105.739 365.183 106.384C363.716 107 362.088 107.308 360.299 107.308C358.187 107.308 356.324 106.883 354.711 106.032C353.127 105.181 351.895 103.979 351.015 102.424C350.164 100.84 349.739 99.036 349.739 97.012ZM381.926 107H376.514V91.688H370.046V86.892H388.394V91.688H381.926V107ZM412.999 96.924C412.999 98.9187 412.559 100.708 411.679 102.292C410.799 103.876 409.626 105.108 408.159 105.988C406.722 106.868 405.197 107.308 403.583 107.308C402.293 107.308 401.09 107.073 399.975 106.604C398.861 106.105 397.922 105.445 397.159 104.624V117.56H391.747V86.892H396.851V89.576C397.526 88.6667 398.45 87.9333 399.623 87.376C400.826 86.8187 402.146 86.54 403.583 86.54C405.255 86.54 406.81 86.98 408.247 87.86C409.685 88.74 410.829 89.972 411.679 91.556C412.559 93.14 412.999 94.9293 412.999 96.924ZM407.191 96.924C407.191 95.164 406.707 93.8 405.739 92.832C404.771 91.8347 403.583 91.336 402.175 91.336C400.679 91.336 399.462 91.8347 398.523 92.832C397.614 93.8293 397.159 95.1053 397.159 96.66V97.012C397.189 98.6547 397.658 100.004 398.567 101.06C399.506 102.116 400.694 102.644 402.131 102.644C403.598 102.644 404.801 102.131 405.739 101.104C406.707 100.048 407.191 98.6547 407.191 96.924ZM436.635 98.2H421.279C421.543 99.696 422.203 100.869 423.259 101.72C424.344 102.571 425.679 102.996 427.263 102.996C428.436 102.996 429.536 102.791 430.563 102.38C431.59 101.94 432.426 101.339 433.071 100.576L436.151 103.348C435.095 104.609 433.76 105.592 432.147 106.296C430.534 106.971 428.759 107.308 426.823 107.308C424.711 107.308 422.819 106.883 421.147 106.032C419.504 105.181 418.214 103.979 417.275 102.424C416.366 100.869 415.911 99.0947 415.911 97.1C415.911 94.988 416.38 93.14 417.319 91.556C418.258 89.9427 419.534 88.7107 421.147 87.86C422.79 86.98 424.594 86.54 426.559 86.54C428.642 86.54 430.431 87.0093 431.927 87.948C433.452 88.8573 434.611 90.1187 435.403 91.732C436.224 93.316 436.635 95.0907 436.635 97.056V98.2ZM421.367 94.9H431.399C431.223 93.756 430.68 92.8173 429.771 92.084C428.891 91.3213 427.762 90.94 426.383 90.94C425.092 90.94 424.007 91.292 423.127 91.996C422.247 92.6707 421.66 93.6387 421.367 94.9ZM459.881 98.2H444.525C444.789 99.696 445.449 100.869 446.505 101.72C447.59 102.571 448.925 102.996 450.509 102.996C451.682 102.996 452.782 102.791 453.809 102.38C454.836 101.94 455.672 101.339 456.317 100.576L459.397 103.348C458.341 104.609 457.006 105.592 455.393 106.296C453.78 106.971 452.005 107.308 450.069 107.308C447.957 107.308 446.065 106.883 444.393 106.032C442.75 105.181 441.46 103.979 440.521 102.424C439.612 100.869 439.157 99.0947 439.157 97.1C439.157 94.988 439.626 93.14 440.565 91.556C441.504 89.9427 442.78 88.7107 444.393 87.86C446.036 86.98 447.84 86.54 449.805 86.54C451.888 86.54 453.677 87.0093 455.173 87.948C456.698 88.8573 457.857 90.1187 458.649 91.732C459.47 93.316 459.881 95.0907 459.881 97.056V98.2ZM444.613 94.9H454.645C454.469 93.756 453.926 92.8173 453.017 92.084C452.137 91.3213 451.008 90.94 449.629 90.94C448.338 90.94 447.253 91.292 446.373 91.996C445.493 92.6707 444.906 93.6387 444.613 94.9Z" fill="#37B994"/>
<path d="M23.2852 20.168V8.2H29.2252V39H23.2852V25.316H9.99722V39H4.05722V8.2H9.99722V20.168H23.2852ZM50.4037 18.892H55.5517V39H50.4037V36.272C49.6703 37.2107 48.717 37.9587 47.5437 38.516C46.3703 39.044 45.0943 39.308 43.7157 39.308C42.1023 39.308 40.5623 38.868 39.0957 37.988C37.6583 37.108 36.4997 35.876 35.6197 34.292C34.7397 32.708 34.2997 30.9187 34.2997 28.924C34.2997 26.9293 34.725 25.14 35.5757 23.556C36.4557 21.972 37.6143 20.74 39.0517 19.86C40.489 18.98 42.0437 18.54 43.7157 18.54C45.153 18.54 46.4583 18.8187 47.6317 19.376C48.805 19.904 49.729 20.6227 50.4037 21.532V18.892ZM50.0957 29.012V28.66C50.0957 27.1053 49.641 25.8293 48.7317 24.832C47.8223 23.8347 46.6197 23.336 45.1237 23.336C43.6863 23.336 42.4837 23.8347 41.5157 24.832C40.5477 25.8 40.0637 27.164 40.0637 28.924C40.0637 30.6547 40.533 32.048 41.4717 33.104C42.4397 34.1307 43.657 34.644 45.1237 34.644C46.5903 34.644 47.7783 34.116 48.6877 33.06C49.6263 32.004 50.0957 30.6547 50.0957 29.012ZM72.3672 18.892H77.8232V39H72.3672V31.696C70.9886 32.2827 69.4339 32.576 67.7032 32.576C62.3646 32.576 59.6952 29.8773 59.6952 24.48V18.892H65.1512V24.26C65.1512 25.4627 65.4299 26.3573 65.9872 26.944C66.5739 27.5013 67.6152 27.78 69.1112 27.78C70.2259 27.78 71.3112 27.6187 72.3672 27.296V18.892ZM96.8261 18.892H102.282V39H96.8261V31.08H88.4661V39H83.0101V18.892H88.4661V26.284H96.8261V18.892ZM112.915 30.464L122.243 18.892H126.511V39H121.055V26.768L111.199 39H107.459V18.892H112.915V30.464ZM141.682 39H136.27V23.688H129.802V18.892H148.15V23.688H141.682V39ZM170.481 30.2H155.125C155.389 31.696 156.049 32.8693 157.105 33.72C158.19 34.5707 159.525 34.996 161.109 34.996C162.282 34.996 163.382 34.7907 164.409 34.38C165.435 33.94 166.271 33.3387 166.917 32.576L169.997 35.348C168.941 36.6093 167.606 37.592 165.993 38.296C164.379 38.9707 162.605 39.308 160.669 39.308C158.557 39.308 156.665 38.8827 154.993 38.032C153.35 37.1813 152.059 35.9787 151.121 34.424C150.211 32.8693 149.757 31.0947 149.757 29.1C149.757 26.988 150.226 25.14 151.165 23.556C152.103 21.9427 153.379 20.7107 154.993 19.86C156.635 18.98 158.439 18.54 160.405 18.54C162.487 18.54 164.277 19.0093 165.773 19.948C167.298 20.8573 168.457 22.1187 169.249 23.732C170.07 25.316 170.481 27.0907 170.481 29.056V30.2ZM155.213 26.9H165.245C165.069 25.756 164.526 24.8173 163.617 24.084C162.737 23.3213 161.607 22.94 160.229 22.94C158.938 22.94 157.853 23.292 156.973 23.996C156.093 24.6707 155.506 25.6387 155.213 26.9Z" fill="#FBFBFB"/>
<path d="M417.26 174.048L421.924 160.892H426.852L426.808 161.904L416.248 191.56H411.32V190.9L414.752 181.22L406.48 161.904V160.892H411.936L417.26 174.048ZM456.445 161.64L451.913 170.176L457.809 180.252V181H452.001L447.205 172.508H445.137V181H439.725V172.508H437.613L432.861 181H427.097V180.252L432.949 170.22L428.241 161.64V160.892H433.697L437.525 168.372H439.725V160.892H445.137V168.372H447.293L451.165 160.892H456.445V161.64ZM479.395 172.2H464.039C464.303 173.696 464.963 174.869 466.019 175.72C467.104 176.571 468.439 176.996 470.023 176.996C471.196 176.996 472.296 176.791 473.323 176.38C474.349 175.94 475.185 175.339 475.831 174.576L478.911 177.348C477.855 178.609 476.52 179.592 474.907 180.296C473.293 180.971 471.519 181.308 469.583 181.308C467.471 181.308 465.579 180.883 463.907 180.032C462.264 179.181 460.973 177.979 460.035 176.424C459.125 174.869 458.671 173.095 458.671 171.1C458.671 168.988 459.14 167.14 460.079 165.556C461.017 163.943 462.293 162.711 463.907 161.86C465.549 160.98 467.353 160.54 469.319 160.54C471.401 160.54 473.191 161.009 474.687 161.948C476.212 162.857 477.371 164.119 478.163 165.732C478.984 167.316 479.395 169.091 479.395 171.056V172.2ZM464.127 168.9H474.159C473.983 167.756 473.44 166.817 472.531 166.084C471.651 165.321 470.521 164.94 469.143 164.94C467.852 164.94 466.767 165.292 465.887 165.996C465.007 166.671 464.42 167.639 464.127 168.9Z" fill="#FBFBFB"/>
<path d="M493.347 171.012C493.347 168.871 493.801 167.008 494.711 165.424C495.62 163.84 496.881 162.637 498.495 161.816C500.108 160.965 501.912 160.54 503.907 160.54C505.579 160.54 507.104 160.833 508.483 161.42C509.891 161.977 511.005 162.711 511.827 163.62L509.055 167.316C507.735 165.908 506.165 165.204 504.347 165.204C502.763 165.204 501.487 165.732 500.519 166.788C499.551 167.844 499.067 169.193 499.067 170.836C499.067 172.537 499.565 173.945 500.563 175.06C501.56 176.145 502.88 176.688 504.523 176.688C506.224 176.688 507.749 175.969 509.099 174.532L512.311 177.7C511.431 178.844 510.257 179.739 508.791 180.384C507.324 181 505.696 181.308 503.907 181.308C501.795 181.308 499.932 180.883 498.319 180.032C496.735 179.181 495.503 177.979 494.623 176.424C493.772 174.84 493.347 173.036 493.347 171.012ZM533.707 172.2H518.351C518.615 173.696 519.275 174.869 520.331 175.72C521.417 176.571 522.751 176.996 524.335 176.996C525.509 176.996 526.609 176.791 527.635 176.38C528.662 175.94 529.498 175.339 530.143 174.576L533.223 177.348C532.167 178.609 530.833 179.592 529.219 180.296C527.606 180.971 525.831 181.308 523.895 181.308C521.783 181.308 519.891 180.883 518.219 180.032C516.577 179.181 515.286 177.979 514.347 176.424C513.438 174.869 512.983 173.095 512.983 171.1C512.983 168.988 513.453 167.14 514.391 165.556C515.33 163.943 516.606 162.711 518.219 161.86C519.862 160.98 521.666 160.54 523.631 160.54C525.714 160.54 527.503 161.009 528.999 161.948C530.525 162.857 531.683 164.119 532.475 165.732C533.297 167.316 533.707 169.091 533.707 171.056V172.2ZM518.439 168.9H528.471C528.295 167.756 527.753 166.817 526.843 166.084C525.963 165.321 524.834 164.94 523.455 164.94C522.165 164.94 521.079 165.292 520.199 165.996C519.319 166.671 518.733 167.639 518.439 168.9ZM542.829 181H537.373V160.892H551.321V165.688H542.829V181ZM552.901 170.924C552.901 168.871 553.371 167.067 554.309 165.512C555.248 163.928 556.539 162.711 558.181 161.86C559.853 160.98 561.731 160.54 563.813 160.54C565.896 160.54 567.759 160.98 569.401 161.86C571.044 162.74 572.32 163.972 573.229 165.556C574.168 167.111 574.637 168.9 574.637 170.924C574.637 172.977 574.168 174.796 573.229 176.38C572.291 177.935 571 179.152 569.357 180.032C567.715 180.883 565.867 181.308 563.813 181.308C561.701 181.308 559.809 180.868 558.137 179.988C556.495 179.108 555.204 177.891 554.265 176.336C553.356 174.752 552.901 172.948 552.901 170.924ZM568.917 170.924C568.917 169.223 568.463 167.844 567.553 166.788C566.644 165.732 565.397 165.204 563.813 165.204C562.2 165.204 560.924 165.747 559.985 166.832C559.076 167.888 558.621 169.252 558.621 170.924C558.621 172.596 559.076 173.975 559.985 175.06C560.924 176.145 562.2 176.688 563.813 176.688C565.368 176.688 566.6 176.16 567.509 175.104C568.448 174.019 568.917 172.625 568.917 170.924ZM596.706 176.204H599.83V185.488H595.342V181H580.866V185.488H576.378V176.204H578.754C579.488 174.649 580.03 172.889 580.382 170.924C580.734 168.959 580.91 166.641 580.91 163.972V160.892H596.706V176.204ZM585.97 165.82C585.97 169.897 585.369 173.359 584.166 176.204H591.294V165.688H585.97V165.82ZM616.76 160.892H622.216V181H616.76V173.08H608.4V181H602.944V160.892H608.4V168.284H616.76V160.892ZM645.037 160.892V181H639.581V174.84H636.105L632.145 181H626.249V180.252L630.517 173.828C628.17 172.772 626.997 170.807 626.997 167.932C626.997 163.239 630.092 160.892 636.281 160.892H645.037ZM639.581 170.968V165.116H636.677C635.21 165.116 634.154 165.321 633.509 165.732C632.864 166.113 632.541 166.832 632.541 167.888C632.541 169.032 632.834 169.839 633.421 170.308C634.008 170.748 635.034 170.968 636.501 170.968H639.581ZM655.709 170.88H650.737L650.209 150.2H656.237L655.709 170.88ZM650.033 178.36C650.033 177.421 650.297 176.659 650.825 176.072C651.383 175.456 652.175 175.148 653.201 175.148C654.199 175.148 654.991 175.456 655.577 176.072C656.164 176.659 656.457 177.421 656.457 178.36C656.457 179.211 656.164 179.944 655.577 180.56C654.991 181.147 654.199 181.44 653.201 181.44C652.233 181.44 651.456 181.147 650.869 180.56C650.312 179.973 650.033 179.24 650.033 178.36Z" fill="#37B994"/>
</svg>
