<svg width="318" height="119" viewBox="0 0 318 119" fill="none" xmlns="http://www.w3.org/2000/svg">
   <!-- 1 -->
   <path
      d="M72.8926 66.1777H125.712V103.458C125.712 112.034 118.749 118.997 110.173 118.997H88.4323C79.856 118.997 72.8926 112.034 72.8926 103.458V66.1777Z"
      fill="#93C9B7">
      <animate attributeName="fill" values="#93C9B7; #FBFBFB; #93C9B7" dur="3s" repeatCount="indefinite" begin="0s" />
   </path>
   <path
      d="M155.429 0.00585938L177.17 0.00585938C185.746 0.00585938 192.709 6.96918 192.709 15.5455V37.286C192.709 45.8623 185.746 52.8256 177.17 52.8256H139.89V15.5455C139.89 6.96918 146.853 0.00585938 155.429 0.00585938Z"
      fill="#93C9B7">
      <animate attributeName="fill" values="#93C9B7; #FBFBFB; #93C9B7" dur="3s" repeatCount="indefinite" begin="0s" />
   </path>
   <path
      d="M139.955 60.8112C137.924 62.4102 136.055 64.1998 134.4 66.1847C129.022 72.632 125.777 80.9248 125.777 89.9845H101.494L102.796 66.1847C111.484 66.1847 119.456 63.1865 125.777 58.1987C127.809 56.5997 129.677 54.81 131.332 52.8252C136.71 46.3778 139.955 38.0851 139.955 29.0254L158.222 30.9434L162.941 52.8252C154.254 52.8252 146.282 55.8235 139.955 60.8112Z"
      fill="#93C9B7">
      <animate attributeName="fill" values="#93C9B7; #FBFBFB; #93C9B7" dur="3s" repeatCount="indefinite" begin="0s" />
   </path>
   <path
      d="M58.9727 52.8203H21.6925C13.1162 52.8203 6.15297 45.8569 6.15297 37.2806V15.5401C6.15297 6.96378 13.1162 0.000514984 21.6925 0.000514984H43.4331C52.0094 0.000514984 58.9727 6.96378 58.9727 15.5401V52.8203Z"
      fill="#93C9B7">
      <animate attributeName="fill" values="#93C9B7; #FBFBFB; #93C9B7" dur="3s" repeatCount="indefinite" begin="0s" />
   </path>
   <path
      d="M58.9051 60.8112C60.9365 62.4102 62.8051 64.1998 64.4599 66.1847C69.8381 72.632 73.0827 80.9248 73.0827 89.9845L94.4025 92.8285L96.0645 66.1847C87.3766 66.1847 79.4046 63.1865 73.0827 58.1987C71.0514 56.5997 69.1828 54.81 67.5279 52.8252C62.1497 46.3778 58.9051 38.0851 58.9051 29.0254H42.1857L35.9188 52.8252C44.6067 52.8252 52.5787 55.8235 58.9051 60.8112Z"
      fill="#93C9B7">
      <animate attributeName="fill" values="#93C9B7; #FBFBFB; #93C9B7" dur="3s" repeatCount="indefinite" begin="0s" />
   </path>


   <!-- 2 -->
   <path
      d="M72.8906 15.5421V37.2827C72.8906 45.865 79.848 52.8223 88.4302 52.8223L110.171 52.8223C118.753 52.8223 125.71 45.865 125.71 37.2827V15.5421C125.71 6.95986 118.753 0.00257492 110.171 0.00257492L88.4302 0.00257492C79.848 0.00257492 72.8906 6.95986 72.8906 15.5421Z"
      fill="#FBFBFB">
      <animate attributeName="fill" values="#FBFBFB; #93C9B7; #FBFBFB" dur="3s" repeatCount="indefinite" begin="0.5s" />
   </path>

   <!-- 3 -->
   <path
      d="M0 79.3609L0 101.102C0 109.685 6.95758 116.643 15.5402 116.643H37.2817C45.8644 116.643 52.8219 109.685 52.8219 101.102L52.8219 79.3609C52.8219 70.7782 45.8644 63.8206 37.2817 63.8206L15.5402 63.8206C6.95758 63.8206 0 70.7782 0 79.3609Z"
      fill="#FBFBFB">
      <animate attributeName="fill" values="#FBFBFB; #93C9B7; #FBFBFB" dur="3s" repeatCount="indefinite" begin="0s" />
   </path>

   <!-- 4 -->
   <path
      d="M140.24 79.689V101.43C140.24 110.013 147.198 116.971 155.78 116.971H177.522C186.105 116.971 193.062 110.013 193.062 101.43V79.689C193.062 71.1063 186.105 64.1488 177.522 64.1488H155.78C147.198 64.1488 140.24 71.1063 140.24 79.689Z"
      fill="#FBFBFB">
      <animate attributeName="fill" values="#FBFBFB; #93C9B7; #FBFBFB" dur="3s" repeatCount="indefinite" begin="0s" />
   </path>

   <!-- 5 -->
   <path
      d="M215.155 65.1367H251.847V101.828C251.847 110.269 244.994 117.122 236.553 117.122H215.155C206.715 117.122 199.861 110.269 199.861 101.828V80.4309C199.861 71.99 206.715 65.1367 215.155 65.1367Z"
      fill="#93C9B7">
      <animate attributeName="fill" values="#93C9B7; #FBFBFB; #93C9B7" dur="3s" repeatCount="indefinite" begin="0.5s" />
   </path>
   <path
      d="M281.09 0H302.487C310.928 0 317.781 6.8534 317.781 15.2942V36.6914C317.781 45.1323 310.928 51.9856 302.487 51.9856H265.796V15.2942C265.796 6.8534 272.649 0 281.09 0Z"
      fill="#93C9B7">
      <animate attributeName="fill" values="#93C9B7; #FBFBFB; #93C9B7" dur="3s" repeatCount="indefinite" begin="0.5s" />
   </path>
   <path
      d="M265.86 59.8481C263.86 61.4219 262.021 63.1833 260.392 65.1368C255.099 71.4823 251.906 79.6441 251.906 88.5607L229.287 84.4622V65.1368C237.838 65.1368 245.684 62.186 251.906 57.277C253.905 55.7033 255.744 53.9419 257.373 51.9883C262.666 45.6428 265.86 37.4811 265.86 28.5645L282.653 35.2919L288.483 51.9883C279.932 51.9883 272.086 54.9392 265.86 59.8481Z"
      fill="#93C9B7">
      <animate attributeName="fill" values="#93C9B7; #FBFBFB; #93C9B7" dur="3s" repeatCount="indefinite" begin="0.5s" />
   </path>

   <!-- 6 -->
   <path
      d="M277.963 117.094H299.361C307.809 117.094 314.656 110.246 314.656 101.799V80.4009C314.656 71.9538 307.809 65.1061 299.361 65.1061H277.963C269.516 65.1061 262.669 71.9538 262.669 80.4009V101.799C262.669 110.246 269.516 117.094 277.963 117.094Z"
      fill="#FBFBFB">
      <animate attributeName="fill" values="#FBFBFB; #93C9B7; #FBFBFB" dur="3s" repeatCount="indefinite" begin="1s" />
   </path>
</svg>