<svg width="186" height="499" viewBox="0 0 186 499" fill="none" xmlns="http://www.w3.org/2000/svg">

   <!-- 1 -->
   <path
      d="M102.661 185.869V103.932H160.492C173.797 103.932 184.598 114.734 184.598 128.038V161.763C184.598 175.067 173.797 185.869 160.492 185.869H102.661Z"
      fill="#93C9B7">
      <animate attributeName="fill" values="#93C9B7; #FBFBFB; #93C9B7" dur="3s" repeatCount="indefinite" begin="0s" />
   </path>
   <path
      d="M0.00683594 57.8316L0.00683594 24.1063C0.00683594 10.8022 10.8088 0.000366211 24.1128 0.000366211H57.8381C71.1422 0.000366211 81.9441 10.8022 81.9441 24.1063V81.9375H24.1128C10.8088 81.9375 0.00683594 71.1357 0.00683594 57.8316Z"
      fill="#93C9B7">
      <animate attributeName="fill" values="#93C9B7; #FBFBFB; #93C9B7" dur="3s" repeatCount="indefinite" begin="0s" />
   </path>
   <path
      d="M94.3325 81.8375C96.813 84.9887 99.5891 87.8874 102.668 90.4545C112.67 98.7975 125.534 103.831 139.588 103.831V141.5L102.668 139.481C102.668 126.004 98.0172 113.638 90.2799 103.831C87.7994 100.68 85.0231 97.7807 81.9441 95.2137C71.9426 86.8707 59.0784 81.8375 45.0244 81.8375L47.9998 53.5L81.9441 46.1797C81.9441 59.6568 86.5952 72.0235 94.3325 81.8375Z"
      fill="#93C9B7">
      <animate attributeName="fill" values="#93C9B7; #FBFBFB; #93C9B7" dur="3s" repeatCount="indefinite" begin="0s" />
   </path>
   <path
      d="M81.9375 207.463V265.294C81.9375 278.598 71.1355 289.4 57.8314 289.4H24.1061C10.802 289.4 0.000198364 278.598 0.000198364 265.294V231.569C0.000198364 218.265 10.802 207.463 24.1061 207.463H81.9375Z"
      fill="#93C9B7">
      <animate attributeName="fill" values="#93C9B7; #FBFBFB; #93C9B7" dur="3s" repeatCount="indefinite" begin="0s" />
   </path>
   <path
      d="M94.3325 207.566C96.813 204.415 99.5891 201.516 102.668 198.949C112.67 190.606 125.534 185.573 139.588 185.573L144 152.5L102.668 149.922C102.668 163.399 98.0172 175.766 90.2799 185.573C87.7994 188.724 85.0231 191.622 81.9441 194.189C71.9426 202.532 59.0784 207.566 45.0244 207.566V233.502L81.9441 243.223C81.9441 229.746 86.5952 217.38 94.3325 207.566Z"
      fill="#93C9B7">
      <animate attributeName="fill" values="#93C9B7; #FBFBFB; #93C9B7" dur="3s" repeatCount="indefinite" begin="0s" />
   </path>

   <!-- 2 -->
   <path
      d="M24.1167 417.049H81.9479V474.88C81.9479 488.184 71.146 498.986 57.842 498.986H24.1167C10.8126 498.986 0.0107422 488.184 0.0107422 474.88V441.155C0.0107422 427.851 10.8126 417.049 24.1167 417.049Z"
      fill="#93C9B7">
      <animate attributeName="fill" values="#93C9B7; #FBFBFB; #93C9B7" dur="3s" repeatCount="indefinite" begin="0s" />
   </path>
   <path
      d="M128.04 314.387H161.765C175.069 314.387 185.871 325.189 185.871 338.493V372.218C185.871 385.522 175.069 396.324 161.765 396.324H103.934V338.493C103.934 325.189 114.736 314.387 128.04 314.387Z"
      fill="#93C9B7">
      <animate attributeName="fill" values="#93C9B7; #FBFBFB; #93C9B7" dur="3s" repeatCount="indefinite" begin="0s" />
   </path>
   <path
      d="M104.035 408.71C100.884 411.191 97.9855 413.967 95.4184 417.046C87.0755 427.048 82.0422 439.912 82.0422 453.966L46.3916 447.506V417.046C59.8687 417.046 72.2354 412.395 82.0422 404.658C85.1934 402.177 88.0921 399.401 90.6592 396.322C99.0022 386.321 104.035 373.456 104.035 359.402L130.504 370.006L139.693 396.322C126.216 396.322 113.849 400.973 104.035 408.71Z"
      fill="#93C9B7">
      <animate attributeName="fill" values="#93C9B7; #FBFBFB; #93C9B7" dur="3s" repeatCount="indefinite" begin="0s" />
   </path>

   <!-- 3 -->
   <path
      d="M24.1092 185.873H57.8345C71.1479 185.873 81.9404 175.08 81.9404 161.767V128.042C81.9404 114.728 71.1479 103.936 57.8345 103.936H24.1092C10.7959 103.936 0.0032959 114.728 0.0032959 128.042V161.767C0.0032959 175.08 10.7959 185.873 24.1092 185.873Z"
      fill="#FBFBFB">
      <animate attributeName="fill" values="#FBFBFB; #93C9B7; #FBFBFB" dur="3s" repeatCount="indefinite" begin="0s" />
   </path>

   <!-- 4 -->
   <path
      d="M123.11 298.947H156.836C170.15 298.947 180.943 288.154 180.943 274.84V241.114C180.943 227.8 170.15 217.007 156.836 217.007H123.11C109.796 217.007 99.0027 227.8 99.0027 241.114V274.84C99.0027 288.154 109.796 298.947 123.11 298.947Z"
      fill="#FBFBFB">
      <animate attributeName="fill" values="#FBFBFB; #93C9B7; #FBFBFB" dur="3s" repeatCount="indefinite" begin="0.5s" />
   </path>

   <!-- 5 -->
   <path
      d="M123.11 498.947H156.836C170.15 498.947 180.943 488.154 180.943 474.84V441.114C180.943 427.8 170.15 417.007 156.836 417.007H123.11C109.796 417.007 99.0027 427.8 99.0027 441.114V474.84C99.0027 488.154 109.796 498.947 123.11 498.947Z"
      fill="#FBFBFB">
      <animate attributeName="fill" values="#FBFBFB; #93C9B7; #FBFBFB" dur="3s" repeatCount="indefinite" begin="1s" />
   </path>
</svg>