<svg width="294" height="501" viewBox="0 0 294 501" fill="none" xmlns="http://www.w3.org/2000/svg">
   <!-- 1 -->
   <path
      d="M131.998 417.68H189.829V475.511C189.829 488.815 179.027 499.617 165.723 499.617H131.998C118.693 499.617 107.892 488.815 107.892 475.511V441.786C107.892 428.482 118.693 417.68 131.998 417.68Z"
      fill="#FBFBFB">
      <animate attributeName="fill" values="#FBFBFB; #93C9B7; #FBFBFB" dur="3s" repeatCount="indefinite" begin="0s" />
   </path>
   <path
      d="M235.921 315.018H269.646C282.95 315.018 293.752 325.82 293.752 339.124V372.849C293.752 386.153 282.95 396.955 269.646 396.955H211.814V339.124C211.814 325.82 222.616 315.018 235.921 315.018Z"
      fill="#FBFBFB">
      <animate attributeName="fill" values="#FBFBFB; #93C9B7; #FBFBFB" dur="3s" repeatCount="indefinite" begin="0s" />
   </path>
   <path
      d="M211.916 409.341C208.765 411.822 205.866 414.598 203.299 417.677C194.956 427.678 189.923 440.543 189.923 454.597L154.272 448.137V417.677C167.75 417.677 180.116 413.026 189.923 405.289C193.074 402.808 195.973 400.032 198.54 396.953C206.883 386.951 211.916 374.087 211.916 360.033L238.385 370.637L247.574 396.953C234.097 396.953 221.73 401.604 211.916 409.341Z"
      fill="#FBFBFB">
      <animate attributeName="fill" values="#FBFBFB; #93C9B7; #FBFBFB" dur="3s" repeatCount="indefinite" begin="0s" />
   </path>

   <!-- 2 -->
   <path
      d="M161.76 184.605H128.034C114.729 184.605 103.927 173.803 103.927 160.498L103.927 102.665L185.867 102.665V160.498C185.867 173.803 175.065 184.605 161.76 184.605Z"
      fill="#FBFBFB">
      <animate attributeName="fill" values="#FBFBFB; #93C9B7; #FBFBFB" dur="3s" repeatCount="indefinite" begin="0s" />
   </path>
   <path
      d="M81.9404 81.9414H24.1066C10.8019 81.9414 -0.00037384 71.139 -0.00037384 57.8344V24.1076C-0.00037384 10.803 10.8019 0.000694275 24.1066 0.000694275H57.8333C71.1379 0.000694275 81.9404 10.803 81.9404 24.1076V81.9414Z"
      fill="#FBFBFB">
      <animate attributeName="fill" values="#FBFBFB; #93C9B7; #FBFBFB" dur="3s" repeatCount="indefinite" begin="0s" />
   </path>
   <path
      d="M81.839 94.3374C84.9903 96.8181 87.8893 99.5943 90.4565 102.674C98.7998 112.675 103.833 125.54 103.833 139.595L134.898 126.504L139.485 102.674C126.008 102.674 113.64 98.0224 103.833 90.2848C100.682 87.8041 97.7829 85.0278 95.2158 81.9486C86.8724 71.9467 81.839 59.0819 81.839 45.0273L53.3984 50.5039L46.1797 81.9486C59.6574 81.9486 72.0245 86.5998 81.839 94.3374Z"
      fill="#FBFBFB">
      <animate attributeName="fill" values="#FBFBFB; #93C9B7; #FBFBFB" dur="3s" repeatCount="indefinite" begin="0s" />
   </path>
   <path
      d="M231.572 0.0078125H265.299C278.603 0.0078125 289.405 10.8102 289.405 24.1148V57.8416C289.405 71.1462 278.603 81.9485 265.299 81.9485H207.465V24.1148C207.465 10.8102 218.267 0.0078125 231.572 0.0078125Z"
      fill="#FBFBFB">
      <animate attributeName="fill" values="#FBFBFB; #93C9B7; #FBFBFB" dur="3s" repeatCount="indefinite" begin="0s" />
   </path>
   <path
      d="M207.565 94.3374C204.413 96.8181 201.514 99.5943 198.947 102.674C190.604 112.675 185.571 125.54 185.571 139.595L139.397 147.004L149.918 102.674C163.396 102.674 175.763 98.0224 185.571 90.2848C188.722 87.8041 191.621 85.0278 194.188 81.9486C202.531 71.9467 207.565 59.0819 207.565 45.0273L238.897 48.0039L243.224 81.9486C229.746 81.9486 217.379 86.5998 207.565 94.3374Z"
      fill="#FBFBFB">
      <animate attributeName="fill" values="#FBFBFB; #93C9B7; #FBFBFB" dur="3s" repeatCount="indefinite" begin="0s" />
   </path>


   <!-- 3 -->
   <path
      d="M132.153 217.928H189.987V275.761C189.987 289.066 179.184 299.868 165.88 299.868H132.153C118.848 299.868 108.046 289.066 108.046 275.761V242.035C108.046 228.73 118.848 217.928 132.153 217.928Z"
      fill="#93C9B7">
      <animate attributeName="fill" values="#93C9B7; #FBFBFB; #93C9B7" dur="3s" repeatCount="indefinite" begin="0s" />
   </path>
   <path
      d="M236.081 115.262H269.807C283.112 115.262 293.914 126.064 293.914 139.369V173.095C293.914 186.4 283.112 197.202 269.807 197.202H211.974V139.369C211.974 126.064 222.776 115.262 236.081 115.262Z"
      fill="#93C9B7">
      <animate attributeName="fill" values="#93C9B7; #FBFBFB; #93C9B7" dur="3s" repeatCount="indefinite" begin="0s" />
   </path>
   <path
      d="M165.88 320.594H132.153C118.839 320.594 108.046 331.387 108.046 344.701V378.427C108.046 391.741 118.839 402.535 132.153 402.535H165.88C179.194 402.535 189.987 391.741 189.987 378.427V344.701C189.987 331.387 179.194 320.594 165.88 320.594Z"
      fill="#93C9B7">
      <animate attributeName="fill" values="#93C9B7; #FBFBFB; #93C9B7" dur="3s" repeatCount="indefinite" begin="0s" />
   </path>
   <path d="M189.987 258.895H108.046V340.835H189.987V258.895Z" fill="#93C9B7">
      <animate attributeName="fill" values="#93C9B7; #FBFBFB; #93C9B7" dur="3s" repeatCount="indefinite" begin="0s" />
   </path>
   <path
      d="M212.074 209.591C208.923 212.072 206.024 214.848 203.457 217.928C195.114 227.929 190.08 240.794 190.08 254.849L148.892 268.518L154.428 217.928C167.906 217.928 180.273 213.276 190.08 205.539C193.232 203.058 196.13 200.282 198.698 197.202C207.041 187.201 212.074 174.336 212.074 160.281L249.892 156.018L247.734 197.202C234.256 197.202 221.889 201.854 212.074 209.591Z"
      fill="#93C9B7">
      <animate attributeName="fill" values="#93C9B7; #FBFBFB; #93C9B7" dur="3s" repeatCount="indefinite" begin="0s" />
   </path>


   <!-- 4 -->
   <path
      d="M236.087 299.869H269.814C283.128 299.869 293.921 289.076 293.921 275.762V242.035C293.921 228.722 283.128 217.929 269.814 217.929H236.087C222.773 217.929 211.98 228.722 211.98 242.035V275.762C211.98 289.076 222.773 299.869 236.087 299.869Z"
      fill="#FBFBFB">
      <animate attributeName="fill" values="#FBFBFB; #93C9B7; #FBFBFB" dur="3s" repeatCount="indefinite" begin="1s" />
   </path>

   <!-- 4 -->
   <path
      d="M236.087 500.02H269.814C283.128 500.02 293.921 489.227 293.921 475.913V442.186C293.921 428.872 283.128 418.079 269.814 418.079H236.087C222.773 418.079 211.98 428.872 211.98 442.186V475.913C211.98 489.227 222.773 500.02 236.087 500.02Z"
      fill="#93C9B7">
      <animate attributeName="fill" values="#93C9B7; #FBFBFB; #93C9B7" dur="3s" repeatCount="indefinite" begin="0s" />
   </path>
</svg>