<svg width="20" height="20" viewBox="0 0 20 20" fill="none" xmlns="http://www.w3.org/2000/svg">
<path d="M10 14.791C10.3452 14.791 10.625 14.5112 10.625 14.166V9.16602C10.625 8.82085 10.3452 8.54102 10 8.54102C9.65483 8.54102 9.375 8.82085 9.375 9.16602V14.166C9.375 14.5112 9.65483 14.791 10 14.791Z" fill="#0B0B0B"/>
<path d="M10.0013 5.83398C10.4616 5.83398 10.8346 6.20708 10.8346 6.66732C10.8346 7.12755 10.4616 7.50065 10.0013 7.50065C9.54105 7.50065 9.16797 7.12755 9.16797 6.66732C9.16797 6.20708 9.54105 5.83398 10.0013 5.83398Z" fill="#0B0B0B"/>
<path fill-rule="evenodd" clip-rule="evenodd" d="M1.04297 9.99935C1.04297 5.0518 5.05375 1.04102 10.0013 1.04102C14.9489 1.04102 18.9596 5.0518 18.9596 9.99935C18.9596 14.9469 14.9489 18.9577 10.0013 18.9577C5.05375 18.9577 1.04297 14.9469 1.04297 9.99935ZM10.0013 2.29102C5.74411 2.29102 2.29297 5.74216 2.29297 9.99935C2.29297 14.2565 5.74411 17.7077 10.0013 17.7077C14.2585 17.7077 17.7096 14.2565 17.7096 9.99935C17.7096 5.74216 14.2585 2.29102 10.0013 2.29102Z" fill="#0B0B0B"/>
</svg>
