<svg width="60" height="60" viewBox="0 0 60 60" fill="none" xmlns="http://www.w3.org/2000/svg">
<path d="M40 20H20V40H40V20Z" stroke="#37B994" stroke-width="2.5" stroke-linecap="round"/>
<path d="M12.5 5C10.5109 5 8.60322 5.79018 7.1967 7.1967C5.79018 8.60322 5 10.5109 5 12.5C5 14.4891 5.79018 16.3968 7.1967 17.8033C8.60322 19.2098 10.5109 20 12.5 20H20V12.5C20 10.5109 19.2098 8.60322 17.8033 7.1967C16.3968 5.79018 14.4891 5 12.5 5Z" stroke="#37B994" stroke-width="2.5" stroke-linecap="round"/>
<path d="M55 12.5C55 10.5109 54.2098 8.60322 52.8033 7.1967C51.3968 5.79018 49.4891 5 47.5 5C45.5109 5 43.6032 5.79018 42.1967 7.1967C40.7902 8.60322 40 10.5109 40 12.5V20H47.5C49.4891 20 51.3968 19.2098 52.8033 17.8033C54.2098 16.3968 55 14.4891 55 12.5Z" stroke="#37B994" stroke-width="2.5" stroke-linecap="round"/>
<path d="M5 47.5C5 49.4891 5.79018 51.3968 7.1967 52.8033C8.60322 54.2098 10.5109 55 12.5 55C14.4891 55 16.3968 54.2098 17.8033 52.8033C19.2098 51.3968 20 49.4891 20 47.5V40H12.5C10.5109 40 8.60322 40.7902 7.1967 42.1967C5.79018 43.6032 5 45.5109 5 47.5Z" stroke="#37B994" stroke-width="2.5" stroke-linecap="round"/>
<path d="M47.5 55C49.4891 55 51.3968 54.2098 52.8033 52.8033C54.2098 51.3968 55 49.4891 55 47.5C55 45.5109 54.2098 43.6032 52.8033 42.1967C51.3968 40.7902 49.4891 40 47.5 40H40V47.5C40 49.4891 40.7902 51.3968 42.1967 52.8033C43.6032 54.2098 45.5109 55 47.5 55Z" stroke="#37B994" stroke-width="2.5" stroke-linecap="round"/>
</svg>
