<svg width="124" height="125" viewBox="0 0 124 125" fill="none" xmlns="http://www.w3.org/2000/svg">
<path d="M113.686 89.3457H88.9394V114.511C88.9394 120.301 93.5604 125 99.2537 125H113.686C119.379 125 124 120.301 124 114.511V99.8347C124 94.0449 119.379 89.3457 113.686 89.3457Z" fill="#F9F9F9"/>
<path d="M79.5288 44.6719H44.4682V69.8372C44.4682 75.627 49.0892 80.3262 54.7825 80.3262H79.5288V44.6719Z" fill="#F9F9F9"/>
<path d="M113.686 0H99.2537C93.5604 0 88.9394 4.69924 88.9394 10.489V35.6543H113.686C119.379 35.6543 124 30.9551 124 25.1653V10.489C124 4.69924 119.379 0 113.686 0Z" fill="#F9F9F9"/>
<path d="M24.7462 0H10.3143C4.62094 0 -1.90735e-05 4.69924 -1.90735e-05 10.489V25.1653C-1.90735e-05 30.9551 4.62094 35.6543 10.3143 35.6543H35.0605V10.489C35.0605 4.69924 30.4396 0 24.7462 0Z" fill="#F9F9F9"/>
<path d="M79.5285 85.755C80.876 86.836 82.1172 88.0442 83.2146 89.3827C86.7851 93.7322 88.936 99.3312 88.936 105.448L99.4852 98.7178L104.193 89.3827C98.425 89.3827 93.1349 87.3574 88.936 83.9904C87.5885 82.9093 86.3474 81.7012 85.25 80.3626C81.6795 76.0132 79.5285 70.4141 79.5285 64.2969L74.0832 74.7307L64.2712 80.3626C70.0395 80.3626 75.3296 82.3879 79.5285 85.755Z" fill="#F9F9F9"/>
<path d="M35.0607 41.0479C36.4082 42.1289 37.6494 43.3371 38.7468 44.6757C42.3173 49.0252 44.4683 54.6242 44.4683 60.7414L51.0402 51.1125L59.7256 44.6757C53.9572 44.6757 48.6672 42.6504 44.4683 39.2833C43.1208 38.2023 41.8795 36.9941 40.7821 35.6556C37.2117 31.3061 35.0607 25.7071 35.0607 19.5898L25.8197 26.5719L19.8034 35.6556C25.5718 35.6556 30.8618 37.6809 35.0607 41.0479Z" fill="#F9F9F9"/>
<path d="M88.939 41.0479C87.5915 42.1289 86.3503 43.3371 85.2529 44.6757C81.6824 49.0252 79.5314 54.6242 79.5314 60.7414L74.8087 49.4519L64.2741 44.6757C70.0425 44.6757 75.3325 42.6504 79.5314 39.2833C80.8789 38.2023 82.1202 36.9941 83.2176 35.6556C86.788 31.3061 88.939 25.7071 88.939 19.5898L98.7592 23.8042L104.196 35.6556C98.4279 35.6556 93.1379 37.6809 88.939 41.0479Z" fill="#F9F9F9"/>
</svg>
