<svg width="63" height="63" viewBox="0 0 63 63" fill="none" xmlns="http://www.w3.org/2000/svg">
<path fill-rule="evenodd" clip-rule="evenodd" d="M7.875 37.4062C8.9623 37.4062 9.84375 38.2877 9.84375 39.375C9.84375 43.1429 9.84792 45.7708 10.1145 47.7537C10.3735 49.68 10.8472 50.6998 11.5737 51.4264C12.3001 52.153 13.3202 52.6265 15.2463 52.8856C17.2291 53.1521 19.857 53.1562 23.625 53.1562H39.375C43.1429 53.1562 45.7708 53.1521 47.7537 52.8856C49.68 52.6265 50.6998 52.153 51.4264 51.4264C52.153 50.6998 52.6265 49.68 52.8856 47.7537C53.1521 45.7708 53.1562 43.1429 53.1562 39.375C53.1562 38.2877 54.0377 37.4062 55.125 37.4062C56.2123 37.4062 57.0938 38.2877 57.0938 39.375V39.5191C57.0938 43.1091 57.0937 46.0026 56.7879 48.2785C56.4703 50.6412 55.7907 52.6305 54.2107 54.2104C52.6305 55.7907 50.6412 56.4703 48.2785 56.7879C46.0026 57.0937 43.1091 57.0938 39.5191 57.0938H23.481C19.891 57.0938 16.9975 57.0937 14.7217 56.7879C12.3589 56.4703 10.3695 55.7907 8.78942 54.2107C7.20938 52.6305 6.52979 50.6412 6.21212 48.2785C5.90615 46.0026 5.9062 43.1091 5.90625 39.5191C5.90625 39.4711 5.90625 39.423 5.90625 39.375C5.90625 38.2877 6.7877 37.4062 7.875 37.4062Z" fill="#FBFBFB"/>
<path fill-rule="evenodd" clip-rule="evenodd" d="M31.5 43.9688C32.0528 43.9688 32.5799 43.7364 32.9529 43.3285L43.4529 31.8441C44.1866 31.0417 44.131 29.7964 43.3285 29.0627C42.5261 28.329 41.2808 28.3847 40.5471 29.1871L33.4688 36.929V7.875C33.4688 6.7877 32.5873 5.90625 31.5 5.90625C30.4127 5.90625 29.5313 6.7877 29.5313 7.875V36.929L22.453 29.1871C21.7193 28.3847 20.474 28.329 19.6716 29.0627C18.8691 29.7964 18.8133 31.0417 19.547 31.8441L30.0471 43.3285C30.4201 43.7364 30.9472 43.9688 31.5 43.9688Z" fill="#FBFBFB"/>
</svg>
