<svg width="32" height="32" viewBox="0 0 32 32" fill="none" xmlns="http://www.w3.org/2000/svg">
<path d="M30 13.25H24.428L18.705 2.644C18.576 2.408 18.329 2.25 18.045 2.25C17.631 2.25 17.295 2.586 17.295 3C17.295 3.131 17.328 3.253 17.387 3.36L17.385 3.356L22.723 13.25H9.308L14.703 3.359C14.758 3.258 14.79 3.137 14.79 3.009C14.79 2.595 14.454 2.259 14.04 2.259C13.761 2.259 13.518 2.411 13.389 2.636L13.387 2.64L7.6 13.249H2C1.586 13.249 1.25 13.585 1.25 13.999C1.25 14.413 1.586 14.749 2 14.749H3.389L5.302 29.099C5.352 29.468 5.666 29.749 6.044 29.749H26.045C26.424 29.749 26.738 29.468 26.789 29.103V29.099L28.702 14.749H30C30.414 14.749 30.75 14.413 30.75 13.999C30.75 13.585 30.414 13.249 30 13.249V13.25ZM25.389 28.25H6.701L4.901 14.75H27.188L25.389 28.25Z" fill="#37B994"/>
<path d="M4.76782 14.3359L25.7573 13.671L26.1689 26.6645C26.2039 27.7685 25.3373 28.6918 24.2333 28.7268L9.24078 29.2018C7.03275 29.2717 5.18608 27.5385 5.11613 25.3304L4.76782 14.3359Z" fill="#37B994"/>
<path d="M8.25287 19.8224C9.33837 17.4479 11.5807 15.8087 14.1727 15.4949L27.2766 13.9088L26.095 26.855C25.9946 27.955 25.0214 28.7653 23.9215 28.6649L10.6211 27.451C7.87531 27.2003 6.20046 24.3121 7.34679 21.8045L8.25287 19.8224Z" fill="#37B994"/>
</svg>
