<svg width="25" height="24" viewBox="0 0 25 24" fill="none" xmlns="http://www.w3.org/2000/svg">
<path d="M24.5126 23.1453L18.3393 17.101C18.3364 17.0982 18.3327 17.0974 18.3298 17.095C19.9789 15.2801 20.9893 12.8962 20.9893 10.2754C20.9893 4.60054 16.2906 0 10.4946 0C4.69872 0 0 4.60054 0 10.2754C0 15.9502 4.69872 20.5507 10.4946 20.5507C13.1714 20.5507 15.6057 19.5615 17.4598 17.9464C17.4627 17.9492 17.4635 17.9529 17.466 17.9557L23.6393 24C23.7973 24 24.392 23.2634 24.5126 23.1453ZM10.4946 19.3419C5.38888 19.3419 1.23466 15.2744 1.23466 10.2754C1.23466 5.27627 5.38888 1.20887 10.4946 1.20887C15.6004 1.20887 19.7546 5.27627 19.7546 10.2754C19.7546 15.2744 15.6004 19.3419 10.4946 19.3419Z" fill="#5B6770"/>
</svg>
