<svg width="32" height="32" viewBox="0 0 32 32" fill="none" xmlns="http://www.w3.org/2000/svg">
<path d="M16.2141 14.4927C16.0807 14.4793 15.9207 14.4793 15.7741 14.4927C12.6008 14.386 10.0808 11.786 10.0808 8.58602C10.0808 5.31935 12.7208 2.66602 16.0007 2.66602C19.2674 2.66602 21.9207 5.31935 21.9207 8.58602C21.9074 11.786 19.3874 14.386 16.2141 14.4927Z" fill="#37B994" stroke="#37B994" stroke-width="1.6" stroke-linecap="round" stroke-linejoin="round"/>
<path d="M9.54769 19.414C6.32102 21.574 6.32102 25.094 9.54769 27.2407C13.2144 29.694 19.2277 29.694 22.8944 27.2407C26.121 25.0807 26.121 21.5607 22.8944 19.414C19.241 16.974 13.2277 16.974 9.54769 19.414Z" fill="#37B994" stroke="#37B994" stroke-width="1.6" stroke-linecap="round" stroke-linejoin="round"/>
</svg>
