<?xml version="1.0" encoding="utf-8"?><svg viewBox="0 0 63 63" xmlns="http://www.w3.org/2000/svg"
   xmlns:xlink="http://www.w3.org/1999/xlink" style="display: none;">
   <svg fill="none" viewBox="0 0 31 15" id="icon-arrow-left" xmlns="http://www.w3.org/2000/svg">
      <path
         d="M.293 8.07a1 1 0 0 1 0-1.414L6.657.292A1 1 0 0 1 8.07 1.706L2.414 7.363l5.657 5.657a1 1 0 1 1-1.414 1.414L.293 8.07ZM31 7.363v1H1v-2h30v1Z"
         fill="currentColor" />
   </svg>
   <svg fill="none" viewBox="0 0 31 15" id="icon-arrow-right" xmlns="http://www.w3.org/2000/svg">
      <path
         d="M30.707 8.07a1 1 0 0 0 0-1.414L24.343.292a1 1 0 1 0-1.414 1.414l5.657 5.657-5.657 5.657a1 1 0 0 0 1.414 1.414l6.364-6.364ZM0 7.363v1h30v-2H0v1Z"
         fill="currentColor" />
   </svg>
   <svg fill="none" viewBox="0 0 19 1" id="icon-minus" xmlns="http://www.w3.org/2000/svg">
      <line y1="0.5" x2="19" y2="0.5" stroke="currentColor"/>
   </svg>
   <svg fill="none" viewBox="0 0 589 583" id="icon-figure" xmlns="http://www.w3.org/2000/svg">
      <path d="M539.212 416.707H421.84V534.078C421.84 561.082 443.757 582.999 470.761 582.999H539.212C566.215 582.999 588.132 561.082 588.132 534.078V465.628C588.132 438.624 566.215 416.707 539.212 416.707Z" fill="currentColor"/>
      <path d="M377.206 208.348H210.913V325.719C210.913 352.722 232.83 374.64 259.834 374.64H377.206V208.348Z" fill="currentColor"/>
      <path d="M539.212 -0.00195312H470.761C443.757 -0.00195312 421.84 21.9153 421.84 48.9189V166.29H539.212C566.215 166.29 588.132 144.373 588.132 117.369V48.9189C588.132 21.9153 566.215 -0.00195312 539.212 -0.00195312Z" fill="currentColor"/>
      <path d="M117.372 -0.00195312H48.921C21.9174 -0.00195312 0.000198364 21.9153 0.000198364 48.9189V117.369C0.000198364 144.373 21.9174 166.29 48.921 166.29H166.292V48.9189C166.292 21.9153 144.375 -0.00195312 117.372 -0.00195312Z" fill="currentColor"/>
      <path d="M377.203 399.956C383.595 404.998 389.482 410.633 394.687 416.876C411.621 437.162 421.824 463.275 421.824 491.806L471.858 460.414L494.189 416.876C466.83 416.876 441.739 407.429 421.824 391.726C415.432 386.684 409.545 381.049 404.34 374.806C387.406 354.52 377.203 328.406 377.203 299.875L351.377 348.538L304.838 374.806C332.197 374.806 357.288 384.252 377.203 399.956Z" fill="currentColor"/>
      <path d="M166.292 191.442C172.684 196.484 178.571 202.119 183.776 208.362C200.71 228.648 210.912 254.762 210.912 283.293L242.083 238.383L283.278 208.362C255.918 208.362 230.828 198.916 210.912 183.212C204.521 178.17 198.634 172.535 193.429 166.292C176.494 146.006 166.292 119.892 166.292 91.3613L122.462 123.926L93.9268 166.292C121.286 166.292 146.377 175.738 166.292 191.442Z" fill="currentColor"/>
      <path d="M421.839 191.442C415.448 196.484 409.561 202.119 404.356 208.362C387.421 228.648 377.219 254.762 377.219 283.293L354.819 230.638L304.854 208.362C332.213 208.362 357.304 198.916 377.219 183.212C383.61 178.17 389.497 172.535 394.702 166.292C411.637 146.006 421.839 119.892 421.839 91.3613L468.416 111.017L494.205 166.292C466.845 166.292 441.754 175.738 421.839 191.442Z" fill="currentColor"/>
   </svg>
   <svg fill="none" viewBox="0 0 32 32" id="icon-cart" xmlns="http://www.w3.org/2000/svg">
      <path
         d="M30 13.25h-5.572L18.705 2.644a.751.751 0 1 0-1.318.716l-.002-.004 5.338 9.894H9.308l5.395-9.891a.75.75 0 0 0-1.314-.723l-.002.004L7.6 13.249H2a.75.75 0 0 0 0 1.5h1.389l1.913 14.35a.75.75 0 0 0 .742.65h20.001a.752.752 0 0 0 .744-.646v-.004l1.913-14.35H30a.75.75 0 0 0 0-1.5v.001Zm-4.611 15H6.701l-1.8-13.5h22.287l-1.799 13.5Z"
         fill="currentColor" />
      <path d="m4.768 14.336 20.99-.665.41 12.994a2 2 0 0 1-1.935 2.062l-14.992.475a4 4 0 0 1-4.125-3.872l-.348-10.994Z"
         fill="currentColor" />
      <path
         d="M8.253 19.822a7.5 7.5 0 0 1 5.92-4.327l13.104-1.586-1.182 12.946a2 2 0 0 1-2.173 1.81l-13.3-1.214c-2.747-.25-4.422-3.139-3.275-5.646l.906-1.983Z"
         fill="currentColor" />
   </svg>
   <svg fill="none" viewBox="0 0 13 13" id="icon-check" xmlns="http://www.w3.org/2000/svg">
      <path d="M1 8.444 3.77 12 10 4" stroke="currentColor" stroke-width=".6" stroke-linecap="round"
         stroke-linejoin="round" />
   </svg>
   <svg fill="none" viewBox="0 0 33 33" id="icon-close" xmlns="http://www.w3.org/2000/svg">
      <path d="m4.621 28.143 23.76-23.76M4.621 4.383l23.76 23.76" stroke="currentColor" stroke-width="1.571"
         stroke-linecap="round" stroke-linejoin="round" />
   </svg>
   <svg fill="none" viewBox="0 0 63 63" id="icon-download" xmlns="http://www.w3.org/2000/svg">
      <path fill-rule="evenodd" clip-rule="evenodd"
         d="M7.875 37.406c1.087 0 1.969.882 1.969 1.969 0 3.768.004 6.396.27 8.379.26 1.926.733 2.946 1.46 3.672.726.727 1.746 1.2 3.672 1.46 1.983.266 4.611.27 8.379.27h15.75c3.768 0 6.396-.004 8.379-.27 1.926-.26 2.946-.733 3.672-1.46.727-.726 1.2-1.746 1.46-3.672.266-1.983.27-4.611.27-8.379a1.969 1.969 0 0 1 3.938 0v.144c0 3.59 0 6.484-.306 8.76-.318 2.362-.997 4.351-2.577 5.931s-3.57 2.26-5.932 2.578c-2.276.306-5.17.306-8.76.306H23.481c-3.59 0-6.484 0-8.76-.306-2.362-.318-4.351-.997-5.932-2.577-1.58-1.58-2.26-3.57-2.577-5.932-.306-2.276-.306-5.17-.306-8.76v-.144c0-1.087.882-1.969 1.969-1.969Z"
         fill="currentColor" />
      <path fill-rule="evenodd" clip-rule="evenodd"
         d="M31.5 43.969c.553 0 1.08-.233 1.453-.64l10.5-11.485a1.969 1.969 0 1 0-2.906-2.657L33.47 36.93V7.875a1.969 1.969 0 0 0-3.938 0v29.054l-7.078-7.742a1.969 1.969 0 0 0-2.906 2.657l10.5 11.484c.373.408.9.64 1.453.64Z"
         fill="currentColor" />
   </svg>
   <svg fill="none" viewBox="0 0 25 24" id="icon-glass" xmlns="http://www.w3.org/2000/svg">
      <path
         d="m24.513 23.145-6.174-6.044c-.003-.003-.006-.004-.01-.006 1.65-1.815 2.66-4.199 2.66-6.82C20.99 4.601 16.291 0 10.495 0 4.699 0 0 4.6 0 10.275c0 5.675 4.699 10.276 10.495 10.276 2.676 0 5.11-.99 6.965-2.605.003.003.003.007.006.01L23.639 24c.158 0 .753-.737.874-.855Zm-14.018-3.803c-5.106 0-9.26-4.068-9.26-9.067 0-4.999 4.154-9.066 9.26-9.066 5.105 0 9.26 4.067 9.26 9.066 0 5-4.155 9.067-9.26 9.067Z"
         fill="currentColor" />
   </svg>
   <svg fill="none" viewBox="0 0 28 33" id="icon-play" xmlns="http://www.w3.org/2000/svg">
      <path d="M27.048 15.274a1 1 0 0 1 0 1.721L1.51 32.128a1 1 0 0 1-1.51-.86V1.001a1 1 0 0 1 1.51-.86l25.538 15.132Z"
         fill="currentColor" />
   </svg>
   <svg fill="none" viewBox="0 0 19 20" id="icon-plus" xmlns="http://www.w3.org/2000/svg">
      <path stroke="currentColor" d="M0 9.494h19M9.635.008l-.31 18.998" />
   </svg>
   <svg fill="none" viewBox="0 0 20 20" id="icon-remove" xmlns="http://www.w3.org/2000/svg">
      <path
         d="M16.875 3.75H13.75v-.625a1.875 1.875 0 0 0-1.875-1.875h-3.75A1.875 1.875 0 0 0 6.25 3.125v.625H3.125a.625.625 0 0 0 0 1.25h.625v11.25A1.25 1.25 0 0 0 5 17.5h10a1.25 1.25 0 0 0 1.25-1.25V5h.625a.625.625 0 1 0 0-1.25ZM8.75 13.125a.625.625 0 1 1-1.25 0v-5a.625.625 0 0 1 1.25 0v5Zm3.75 0a.624.624 0 1 1-1.25 0v-5a.625.625 0 1 1 1.25 0v5Zm0-9.375h-5v-.625a.625.625 0 0 1 .625-.625h3.75a.625.625 0 0 1 .625.625v.625Z"
         fill="currentColor" />
   </svg>
   <svg fill="none" viewBox="0 0 33 33" id="icon-telegram" xmlns="http://www.w3.org/2000/svg">
      <path
         d="M16.5 33C25.613 33 33 25.613 33 16.5S25.613 0 16.5 0 0 7.387 0 16.5 7.387 33 16.5 33Zm-2.744-13.144 7.65-6.904c.336-.298-.073-.444-.518-.173l-9.443 5.957-4.079-1.273c-.88-.27-.887-.875.198-1.31l15.894-6.129c.726-.33 1.426.175 1.15 1.286L21.9 24.065c-.189.906-.736 1.123-1.495.704l-4.123-3.046L14.3 23.65c-.23.224-.413.413-.825.413l.28-4.207Z"
         fill="currentColor" />
   </svg>
   <svg fill="none" viewBox="0 0 32 32" id="icon-user" xmlns="http://www.w3.org/2000/svg">
      <path
         d="M16.214 14.493a2.412 2.412 0 0 0-.44 0 5.893 5.893 0 0 1-5.693-5.907c0-3.267 2.64-5.92 5.92-5.92a5.924 5.924 0 0 1 5.92 5.92c-.014 3.2-2.534 5.8-5.707 5.907ZM9.548 19.414c-3.227 2.16-3.227 5.68 0 7.827 3.666 2.453 9.68 2.453 13.346 0 3.227-2.16 3.227-5.68 0-7.827-3.653-2.44-9.666-2.44-13.346 0Z"
         fill="currentColor" stroke="currentColor" stroke-width="1.6" stroke-linecap="round" stroke-linejoin="round" />
   </svg>
</svg>