<svg width="30" height="30" viewBox="0 0 30 30" fill="none" xmlns="http://www.w3.org/2000/svg">
<path d="M18.7068 17.5309C22.4586 17.5309 25.5 14.5019 25.5 10.7655C25.5 7.029 22.4586 4 18.7068 4C14.955 4 11.9136 7.029 11.9136 10.7655C11.9136 12.4961 12.7035 13.7549 12.7035 13.7549L4.48849 21.9363C4.11986 22.3034 3.60379 23.2579 4.48849 24.139L5.43637 25.083C5.80498 25.3977 6.73178 25.8382 7.4901 25.083L8.59596 23.9817C9.70184 25.083 10.9657 24.4537 11.4396 23.8243C12.2295 22.723 11.2816 21.6216 11.2816 21.6216L11.5976 21.307C13.1142 22.8174 14.4413 21.9363 14.9152 21.307C15.7051 20.2056 14.9152 19.1043 14.9152 19.1043C14.5993 18.4749 13.9674 18.4749 14.7572 17.6883L15.7051 16.7442C16.4635 17.3735 18.0222 17.5309 18.7068 17.5309Z" stroke="#0B0B0B" stroke-width="1.3" stroke-linejoin="round"/>
<path d="M21.0753 10.7663C21.0753 12.0697 20.0144 13.1263 18.7057 13.1263C17.3969 13.1263 16.3359 12.0697 16.3359 10.7663C16.3359 9.46288 17.3969 8.40625 18.7057 8.40625C20.0144 8.40625 21.0753 9.46288 21.0753 10.7663Z" stroke="#0B0B0B" stroke-width="1.3"/>
</svg>
