<svg width="60" height="60" viewBox="0 0 60 60" fill="none" xmlns="http://www.w3.org/2000/svg">
<g clip-path="url(#clip0_159_10098)">
<path d="M51.5906 45H8.40938C7.67318 44.9927 6.96921 44.697 6.44862 44.1764C5.92803 43.6558 5.63233 42.9518 5.625 42.2156V12.1594C5.63233 11.4232 5.92803 10.7192 6.44862 10.1986C6.96921 9.67803 7.67318 9.38233 8.40938 9.375H51.5859C52.3229 9.38111 53.0281 9.67627 53.5497 10.197C54.0713 10.7177 54.3677 11.4224 54.375 12.1594V42.2156C54.3677 42.9518 54.072 43.6558 53.5514 44.1764C53.0308 44.697 52.3268 44.9927 51.5906 45ZM8.40938 11.25C8.17043 11.2571 7.94321 11.3551 7.77418 11.5242C7.60514 11.6932 7.50707 11.9204 7.5 12.1594V42.2156C7.50707 42.4546 7.60514 42.6818 7.77418 42.8508C7.94321 43.0199 8.17043 43.1179 8.40938 43.125H51.5859C51.8257 43.1191 52.0541 43.0216 52.2241 42.8524C52.3941 42.6832 52.4929 42.4554 52.5 42.2156V12.1594C52.4929 11.9204 52.3949 11.6932 52.2258 11.5242C52.0568 11.3551 51.8296 11.2571 51.5906 11.25H8.40938Z" fill="#37B994"/>
<path d="M56.0156 48.75H3.98438C1.70625 48.75 0 46.4062 0 44.2969V44.0625C0 43.8139 0.098772 43.5754 0.274587 43.3996C0.450403 43.2238 0.68886 43.125 0.9375 43.125H59.0625C59.3111 43.125 59.5496 43.2238 59.7254 43.3996C59.9012 43.5754 60 43.8139 60 44.0625V44.2969C60 46.4062 58.2938 48.75 56.0156 48.75ZM1.98281 45C2.26406 45.9375 3.075 46.875 3.98438 46.875H56.0156C56.9297 46.875 57.7359 45.9375 58.0172 45H1.98281Z" fill="#37B994"/>
</g>
<defs>
<clipPath id="clip0_159_10098">
<rect width="60" height="60" fill="white"/>
</clipPath>
</defs>
</svg>
