<svg width="60" height="60" viewBox="0 0 60 60" fill="none" xmlns="http://www.w3.org/2000/svg">
<path d="M29.8121 18C25.4115 18 21.8115 20.1994 21.8115 23.0006C21.8115 25.8019 25.4115 28.0012 29.8121 28.0012C34.2128 28.0012 37.8128 25.8019 37.8128 23.0006C37.8128 20.1994 34.2128 18 29.8121 18ZM29.8121 26.0006C26.4128 26.0006 23.8121 24.4012 23.8121 23.0006C23.8121 21.6 26.4128 20.0006 29.8121 20.0006C33.2115 20.0006 35.8121 21.6 35.8121 23.0006C35.8121 24.4012 33.2115 26.0006 29.8121 26.0006Z" fill="#37B994"/>
<path d="M53.113 18.999C53.6136 18.399 53.8123 17.6996 53.8123 16.899C53.8123 14.0996 50.2123 11.8984 45.8117 11.8984C43.5111 11.8984 41.5123 12.4984 40.1117 13.3984L37.5111 12.2977C37.7117 11.8984 37.8111 11.3977 37.8111 10.8971C37.8111 8.09773 34.2111 5.89648 29.8105 5.89648C25.4098 5.89648 21.8098 8.09586 21.8098 10.8971C21.8098 11.3977 21.9092 11.7971 22.1098 12.2977L20.1092 13.1977C18.7086 12.3971 16.8092 11.8984 14.8086 11.8984C10.408 11.8984 6.80797 14.0977 6.80797 16.899C6.80797 17.499 7.00859 18.099 7.30859 18.699L2.80859 20.6996V40.4996L29.8086 51.999L56.8086 40.3984V20.6977L53.1092 18.9971L53.113 18.999ZM29.8123 31.4002L6.31297 21.2996L8.81234 20.3002C10.3123 21.2996 12.4123 22.0009 14.8123 22.0009C19.213 22.0009 22.813 19.8015 22.813 17.0002C22.813 16.1996 22.513 15.4009 21.913 14.6996L23.413 14.0996C24.913 15.2996 27.2136 16.1002 29.8123 16.1002C32.4111 16.1002 34.7117 15.2996 36.2117 14.0996L38.5123 15.099C38.113 15.699 37.813 16.3984 37.813 17.0996C37.813 19.899 41.413 22.1002 45.8136 22.1002C48.013 22.1002 50.0136 21.5996 51.4142 20.6996L53.3136 21.5002L29.8142 31.4002H29.8123ZM51.8117 16.899C51.8117 18.2996 49.2111 19.899 45.8117 19.899C42.4123 19.899 39.8117 18.2996 39.8117 16.899C39.8117 15.4984 42.4123 13.899 45.8117 13.899C49.2111 13.899 51.8117 15.4984 51.8117 16.899ZM29.8123 8.00023C33.2117 8.00023 35.8123 9.59961 35.8123 11.0002C35.8123 12.4009 33.2117 14.0002 29.8123 14.0002C26.413 14.0002 23.8123 12.4009 23.8123 11.0002C23.8123 9.59961 26.413 8.00023 29.8123 8.00023ZM14.8123 13.899C18.2117 13.899 20.8123 15.4984 20.8123 16.899C20.8123 18.2996 18.2117 19.899 14.8123 19.899C11.413 19.899 8.81234 18.2996 8.81234 16.899C8.81234 15.4984 11.413 13.899 14.8123 13.899ZM4.81297 22.7996L28.813 33.099V49.3984L4.81297 39.099V22.7996ZM30.8117 49.4002V33.1009L54.8117 22.8015V39.1009L30.8117 49.4002Z" fill="#37B994"/>
</svg>
