<svg width="30" height="30" viewBox="0 0 30 30" fill="none" xmlns="http://www.w3.org/2000/svg">
<g clip-path="url(#clip0_207_786)">
<mask id="mask0_207_786" style="mask-type:luminance" maskUnits="userSpaceOnUse" x="0" y="0" width="30" height="30">
<path d="M30 0H0V30H30V0Z" fill="white"/>
</mask>
<g mask="url(#mask0_207_786)">
<path d="M17.921 15.4332L17.596 14.8994C17.3856 15.0275 17.2701 15.2671 17.301 15.5115C17.3317 15.7557 17.5031 15.9592 17.7387 16.0311L17.921 15.4332ZM12.0796 15.4332L12.2619 16.0311C12.4975 15.9592 12.6689 15.7557 12.6997 15.5115C12.7305 15.2671 12.615 15.0275 12.4046 14.8994L12.0796 15.4332ZM20.0004 10.625C20.0004 12.435 19.039 14.021 17.596 14.8994L18.246 15.9671C20.046 14.8714 21.2504 12.8891 21.2504 10.625H20.0004ZM15.0004 5.625C17.7617 5.625 20.0004 7.86357 20.0004 10.625H21.2504C21.2504 7.17322 18.4521 4.375 15.0004 4.375V5.625ZM10.0003 10.625C10.0003 7.86357 12.2389 5.625 15.0004 5.625V4.375C11.5485 4.375 8.75032 7.17322 8.75032 10.625H10.0003ZM12.4046 14.8994C10.9617 14.021 10.0003 12.435 10.0003 10.625H8.75032C8.75032 12.8891 9.95465 14.8714 11.7546 15.9671L12.4046 14.8994ZM11.8973 14.8354C7.95141 16.0386 4.97982 19.4755 4.45717 23.6753L5.6976 23.8296C6.15835 20.1272 8.78014 17.0927 12.2619 16.0311L11.8973 14.8354ZM4.45717 23.6753C4.31903 24.7853 5.23856 25.625 6.25032 25.625V24.375C5.88138 24.375 5.66522 24.0899 5.6976 23.8296L4.45717 23.6753ZM6.25032 25.625H23.7504V24.375H6.25032V25.625ZM23.7504 25.625C24.7621 25.625 25.6816 24.7853 25.5435 23.6753L24.303 23.8296C24.3354 24.0899 24.1192 24.375 23.7504 24.375V25.625ZM25.5435 23.6753C25.0209 19.4755 22.0492 16.0386 18.1032 14.8354L17.7387 16.0311C21.2205 17.0927 23.8422 20.1272 24.303 23.8296L25.5435 23.6753Z" fill="#0B0B0B"/>
</g>
</g>
<defs>
<clipPath id="clip0_207_786">
<rect width="30" height="30" fill="white"/>
</clipPath>
</defs>
</svg>
