<svg width="60" height="60" viewBox="0 0 60 60" fill="none" xmlns="http://www.w3.org/2000/svg">
<g clip-path="url(#clip0_119_1105)">
<path d="M19.2056 22.4844C12.7125 21.6538 6.13688 23.8663 1.5075 28.4956C1.2675 28.7356 1.03313 28.9831 0.806252 29.2306C-0.0787479 30.2038 -0.249373 31.5706 0.369377 32.7163C0.995627 33.875 2.25188 34.4881 3.5625 34.2781C8.04188 33.56 12.5606 34.4394 16.4194 36.7138C14.5856 38.8869 13.29 41.45 12.7144 44.2363C12.54 45.08 12.8044 45.9538 13.425 46.5744C13.9181 47.0694 14.5744 47.3356 15.2475 47.3356C15.4181 47.3356 15.5925 47.3188 15.7631 47.2831C18.5513 46.7056 21.1144 45.41 23.2856 43.5781C25.5619 47.4388 26.4375 51.9575 25.7231 56.435C25.5131 57.7494 26.1263 59.0038 27.285 59.63C27.7388 59.8794 28.2319 59.9994 28.7213 59.9994C29.4563 59.9994 30.1838 59.7256 30.7669 59.1931C31.0163 58.9681 31.26 58.7338 31.5019 58.4938C35.8425 54.1513 38.2669 47.4781 37.3819 40.8913C40.0294 39.0669 42.5363 37.0025 44.82 34.7188C53.3063 26.2306 58.6931 14.9956 59.9831 3.08377C60.075 2.2494 59.7806 1.42252 59.1769 0.820648C58.575 0.218773 57.75 -0.0699772 56.9138 0.0143978C45.0019 1.30627 33.7669 6.69315 25.2788 15.1813C23.0325 17.4275 21.0038 19.8913 19.2056 22.4844ZM57.1163 1.88002C57.3769 1.84252 57.6525 1.94752 57.8513 2.14815C58.05 2.34877 58.1475 2.61502 58.1194 2.88502C56.8556 14.54 51.7988 25.0906 43.4944 33.395C41.4919 35.3975 39.2944 37.2013 36.9975 38.84C36.1763 35.4613 34.4381 32.1706 31.5731 29.3056C31.2075 28.94 30.6131 28.94 30.2475 29.3056C29.8819 29.6713 29.8819 30.2656 30.2475 30.6313C36.7519 37.1356 38.5031 48.8413 30.1763 57.1663C29.9569 57.3856 29.7338 57.5975 29.5069 57.8056C28.9369 58.3288 28.3425 58.0738 28.1738 57.9819C27.8175 57.7888 27.4725 57.3594 27.5719 56.7331C28.4175 51.4381 27.2569 46.0756 24.3019 41.6356C24.285 41.6094 24.2569 41.5963 24.2381 41.5719C24.2213 41.5513 24.2156 41.5269 24.1969 41.5081C24.1744 41.4856 24.1444 41.4763 24.1219 41.4556C24.0656 41.4088 24.0094 41.3675 23.9456 41.3338C23.9025 41.3113 23.8613 41.2944 23.8144 41.2794C23.7431 41.255 23.6738 41.24 23.5988 41.2344C23.5556 41.2306 23.5125 41.2306 23.4694 41.2344C23.3944 41.2381 23.3231 41.2513 23.25 41.2738C23.2031 41.2888 23.1619 41.3075 23.1169 41.3281C23.0794 41.3469 23.0381 41.3506 23.0025 41.375C22.9725 41.3938 22.9575 41.4238 22.9313 41.4463C22.9125 41.4613 22.8881 41.4669 22.8713 41.4856C20.7938 43.4938 18.2025 44.8663 15.3806 45.4494C15.0488 45.5131 14.8313 45.3331 14.7506 45.2506C14.6681 45.1681 14.4844 44.9413 14.5519 44.6188C15.135 41.7988 16.5056 39.2075 18.5156 37.1281C18.54 37.1038 18.5475 37.0719 18.5681 37.0456C18.5831 37.0269 18.6075 37.0175 18.6225 36.9969C18.6431 36.965 18.6469 36.9294 18.6638 36.8975C18.6919 36.8431 18.7144 36.7888 18.7313 36.7306C18.7481 36.6706 18.7575 36.6125 18.7631 36.5506C18.7688 36.4925 18.7688 36.4363 18.7613 36.3763C18.7556 36.3163 18.7425 36.26 18.7238 36.2019C18.7069 36.1456 18.6844 36.0931 18.6563 36.0388C18.6263 35.9844 18.5906 35.9356 18.5513 35.885C18.5288 35.8588 18.5194 35.825 18.4931 35.8006C18.4706 35.78 18.4425 35.7725 18.42 35.7538C18.3975 35.735 18.3844 35.7106 18.36 35.6938C13.9219 32.7425 8.55938 31.58 3.26625 32.4238C2.63625 32.5325 2.21063 32.18 2.0175 31.8238C1.9275 31.655 1.67063 31.0644 2.19188 30.4906C2.39813 30.2638 2.61 30.0425 2.82938 29.8231C7.16625 25.4844 13.3725 23.4444 19.4475 24.38C19.4588 24.3819 19.4663 24.3744 19.4756 24.3744C19.4813 24.3744 19.4888 24.3744 19.4944 24.3744C19.5094 24.3744 19.5225 24.38 19.5356 24.3819C19.6406 24.3931 19.7456 24.3969 19.8488 24.3725C19.8956 24.3613 19.9369 24.3388 19.9819 24.3219C20.0475 24.2956 20.1131 24.275 20.1713 24.2338C20.2275 24.1944 20.2688 24.1438 20.3138 24.0931C20.3456 24.0575 20.3869 24.035 20.415 23.9938C22.2225 21.3238 24.3075 18.8038 26.6063 16.505C34.7925 8.31877 45.6263 3.12502 57.1163 1.88002Z" fill="#37B994"/>
<path d="M41.5126 24.1092C43.0144 24.1092 44.4282 23.5242 45.4913 22.463C47.6832 20.2692 47.6832 16.7011 45.4913 14.5073C43.3651 12.383 39.6601 12.383 37.5357 14.5073C35.3419 16.7011 35.3419 20.2692 37.5357 22.463C38.5969 23.5261 40.0107 24.1092 41.5126 24.1092ZM38.8613 15.833C39.5701 15.1242 40.5113 14.7342 41.5126 14.7342C42.5138 14.7342 43.4569 15.1242 44.1657 15.833C45.6263 17.2955 45.6263 19.6748 44.1657 21.1373C42.7482 22.5511 40.2769 22.5511 38.8613 21.1373C37.3988 19.6748 37.3988 17.2973 38.8613 15.833Z" fill="#37B994"/>
<path d="M10.2037 48.4702L7.09307 51.5827C6.72744 51.9484 6.72744 52.5427 7.09307 52.9084C7.27682 53.0921 7.51682 53.1821 7.75682 53.1821C7.99682 53.1821 8.23682 53.0902 8.42057 52.9084L11.5312 49.7959C11.8968 49.4302 11.8968 48.8359 11.5312 48.4702C11.1656 48.1046 10.5693 48.1027 10.2037 48.4702Z" fill="#37B994"/>
<path d="M10.1962 39.116L2.41118 46.8991C2.04556 47.2648 2.04556 47.8591 2.41118 48.2248C2.59493 48.4085 2.83493 48.4985 3.07493 48.4985C3.31493 48.4985 3.55493 48.4066 3.73868 48.2248L11.5237 40.4416C11.8893 40.076 11.8893 39.4816 11.5237 39.116C11.1581 38.7504 10.5618 38.7504 10.1962 39.116Z" fill="#37B994"/>
<path d="M11.5726 57.3849C11.7563 57.5687 11.9963 57.6587 12.2363 57.6587C12.4763 57.6587 12.7163 57.5668 12.9001 57.3849L20.6851 49.6018C21.0507 49.2362 21.0507 48.6418 20.6851 48.2762C20.3194 47.9105 19.7251 47.9105 19.3594 48.2762L11.5744 56.0593C11.2069 56.4268 11.2069 57.0193 11.5726 57.3849Z" fill="#37B994"/>
</g>
<defs>
<clipPath id="clip0_119_1105">
<rect width="60" height="60" fill="white"/>
</clipPath>
</defs>
</svg>
