<svg width="120" height="120" viewBox="0 0 120 120" fill="none" xmlns="http://www.w3.org/2000/svg">
<g clip-path="url(#clip0_211_1549)">
<path d="M117.585 60.0004C117.585 93.1375 93.1371 119.759 60 119.759C57.9626 119.759 55.9488 119.899 53.9637 119.701C23.6611 116.673 0 91.1 0 60.0004C0 28.9344 23.61 3.38286 53.8652 0.3102C55.8823 0.105356 57.9288 0.241763 60 0.241763C93.1371 0.241763 117.585 26.8632 117.585 60.0004Z" fill="#EBEBEB"/>
<path d="M60.0012 0C57.9638 0 55.9502 0.102656 53.9648 0.300938C84.2674 3.32836 107.929 28.9005 107.929 60C107.929 91.0994 84.2674 116.672 53.9648 119.699C55.9502 119.897 57.9638 120 60.0012 120C93.1383 120 120.001 93.1371 120.001 60C120.001 26.8629 93.1383 0 60.0012 0Z" fill="#E1E1E1"/>
<path d="M83.0657 89.4474C82.6023 89.4474 82.1387 89.2705 81.7853 88.9171C69.7721 76.9039 50.2255 76.9039 38.2126 88.9171C37.5055 89.6242 36.3587 89.6242 35.6516 88.9171C34.9443 88.2099 34.9443 87.0631 35.6516 86.356C49.0768 72.9308 70.9211 72.9308 84.3463 86.356C85.0536 87.0631 85.0536 88.2097 84.3463 88.9171C83.9926 89.2705 83.5293 89.4474 83.0657 89.4474Z" fill="#FBFBFB"/>
<path d="M36.1355 56.3599C33.8018 56.3599 31.9102 54.4683 31.9102 52.1346V44.4499C31.9102 42.1163 33.8018 40.2246 36.1355 40.2246C38.4691 40.2246 40.3608 42.1163 40.3608 44.4499V52.1346C40.3608 54.4683 38.4691 56.3599 36.1355 56.3599Z" fill="#FBFBFB"/>
<path d="M83.8659 56.3599C81.5323 56.3599 79.6406 54.4683 79.6406 52.1346V44.4499C79.6406 42.1163 81.5323 40.2246 83.8659 40.2246C86.1996 40.2246 88.0913 42.1163 88.0913 44.4499V52.1346C88.0913 54.4683 86.1996 56.3599 83.8659 56.3599Z" fill="#FBFBFB"/>
</g>
<defs>
<clipPath id="clip0_211_1549">
<rect width="120" height="120" fill="white"/>
</clipPath>
</defs>
</svg>
