<svg width="60" height="60" viewBox="0 0 60 60" fill="none" xmlns="http://www.w3.org/2000/svg">
<g clip-path="url(#clip0_119_1116)">
<path d="M33.75 5L34.9903 4.84495C34.9123 4.21943 34.3805 3.75 33.75 3.75V5ZM26.25 5V3.75C25.6195 3.75 25.0877 4.21943 25.0097 4.84495L26.25 5ZM34.4368 10.4938L33.1965 10.6489C33.2617 11.1712 33.6472 11.5967 34.1605 11.713L34.4368 10.4938ZM40.6543 13.071L39.9875 14.1283C40.4328 14.409 41.006 14.3808 41.4218 14.0577L40.6543 13.071ZM45.026 9.67065L45.91 8.78677C45.4643 8.341 44.7562 8.29692 44.2585 8.68397L45.026 9.67065ZM50.3293 14.974L51.316 15.7414C51.703 15.2438 51.659 14.5359 51.2132 14.0901L50.3293 14.974ZM46.929 19.3458L45.9422 18.5784C45.6192 18.9939 45.591 19.5673 45.8717 20.0126L46.929 19.3458ZM49.5062 25.5632L48.287 25.8395C48.4033 26.3528 48.8288 26.7383 49.351 26.8035L49.5062 25.5632ZM55 26.25H56.25C56.25 25.6195 55.7805 25.0877 55.155 25.0097L55 26.25ZM55 33.75L55.155 34.9903C55.7805 34.9123 56.25 34.3805 56.25 33.75H55ZM49.5062 34.4368L49.351 33.1965C48.8288 33.2617 48.4033 33.6472 48.287 34.1605L49.5062 34.4368ZM46.929 40.6543L45.8717 39.9875C45.591 40.4328 45.6192 41.0063 45.9422 41.4218L46.929 40.6543ZM50.3293 45.026L51.2132 45.91C51.659 45.4643 51.703 44.7562 51.316 44.2585L50.3293 45.026ZM45.026 50.3293L44.2585 51.316C44.7562 51.703 45.4643 51.659 45.91 51.2132L45.026 50.3293ZM40.6543 46.929L41.4218 45.9422C41.006 45.6192 40.4328 45.591 39.9875 45.8717L40.6543 46.929ZM34.4368 49.5062L34.1605 48.287C33.6472 48.4033 33.2617 48.8288 33.1965 49.351L34.4368 49.5062ZM33.75 55V56.25C34.3805 56.25 34.9123 55.7805 34.9903 55.155L33.75 55ZM26.25 55L25.0097 55.155C25.0877 55.7805 25.6195 56.25 26.25 56.25V55ZM25.5632 49.5062L26.8035 49.351C26.7383 48.8288 26.3528 48.4033 25.8395 48.287L25.5632 49.5062ZM19.3458 46.929L20.0126 45.8717C19.5674 45.591 18.9939 45.6192 18.5784 45.9422L19.3458 46.929ZM14.974 50.3293L14.0901 51.2132C14.5359 51.659 15.2438 51.703 15.7414 51.316L14.974 50.3293ZM9.67067 45.026L8.684 44.2585C8.29695 44.7562 8.34102 45.4643 8.7868 45.91L9.67067 45.026ZM13.071 40.6543L14.0577 41.4218C14.3808 41.0063 14.4091 40.4328 14.1283 39.9875L13.071 40.6543ZM10.4938 34.4368L11.713 34.1605C11.5967 33.6472 11.1712 33.2617 10.6489 33.1965L10.4938 34.4368ZM5 33.75H3.75C3.75 34.3805 4.21943 34.9123 4.84495 34.9903L5 33.75ZM5 26.25L4.84495 25.0097C4.21943 25.0877 3.75 25.6195 3.75 26.25H5ZM10.4938 25.5632L10.6489 26.8035C11.1712 26.7383 11.5967 26.3528 11.713 25.8395L10.4938 25.5632ZM13.071 19.3458L14.1283 20.0126C14.4091 19.5673 14.3808 18.9939 14.0577 18.5784L13.071 19.3458ZM9.67067 14.974L8.7868 14.0901C8.34102 14.5359 8.29695 15.2438 8.68397 15.7414L9.67067 14.974ZM14.974 9.67067L15.7414 8.68397C15.2438 8.29695 14.5359 8.34102 14.0901 8.78677L14.974 9.67067ZM19.3458 13.071L18.5784 14.0577C18.9939 14.3808 19.5674 14.4091 20.0126 14.1283L19.3458 13.071ZM25.5632 10.4938L25.8395 11.713C26.3528 11.5967 26.7383 11.1712 26.8035 10.6489L25.5632 10.4938ZM33.75 3.75H26.25V6.25H33.75V3.75ZM35.677 10.3388L34.9903 4.84495L32.5097 5.15505L33.1965 10.6489L35.677 10.3388ZM41.321 12.0137C39.3198 10.7515 37.0923 9.81362 34.7128 9.27472L34.1605 11.713C36.2575 12.1879 38.2215 13.0146 39.9875 14.1283L41.321 12.0137ZM41.4218 14.0577L45.7935 10.6573L44.2585 8.68397L39.8867 12.0843L41.4218 14.0577ZM44.1423 10.5545L49.4455 15.8579L51.2132 14.0901L45.91 8.78677L44.1423 10.5545ZM49.3428 14.2065L45.9422 18.5784L47.9157 20.1132L51.316 15.7414L49.3428 14.2065ZM50.7253 25.2872C50.1865 22.9078 49.2485 20.6803 47.9863 18.679L45.8717 20.0126C46.9855 21.7785 47.812 23.7424 48.287 25.8395L50.7253 25.2872ZM55.155 25.0097L49.6613 24.3229L49.351 26.8035L54.845 27.4903L55.155 25.0097ZM56.25 33.75V26.25H53.75V33.75H56.25ZM49.6613 35.677L55.155 34.9903L54.845 32.5097L49.351 33.1965L49.6613 35.677ZM47.9863 41.321C49.2485 39.3198 50.1865 37.0923 50.7253 34.7128L48.287 34.1605C47.812 36.2575 46.9855 38.2215 45.8717 39.9875L47.9863 41.321ZM51.316 44.2585L47.9157 39.8867L45.9422 41.4218L49.3428 45.7935L51.316 44.2585ZM45.91 51.2132L51.2132 45.91L49.4455 44.1423L44.1423 49.4455L45.91 51.2132ZM39.8867 47.9157L44.2585 51.316L45.7935 49.3428L41.4218 45.9422L39.8867 47.9157ZM34.7128 50.7253C37.0923 50.1865 39.3198 49.2485 41.321 47.9863L39.9875 45.8717C38.2215 46.9855 36.2575 47.812 34.1605 48.287L34.7128 50.7253ZM34.9903 55.155L35.677 49.6613L33.1965 49.351L32.5097 54.845L34.9903 55.155ZM26.25 56.25H33.75V53.75H26.25V56.25ZM24.3229 49.6613L25.0097 55.155L27.4903 54.845L26.8035 49.351L24.3229 49.6613ZM18.679 47.9863C20.6803 49.2485 22.9078 50.1865 25.2872 50.7253L25.8395 48.287C23.7424 47.812 21.7785 46.9855 20.0126 45.8717L18.679 47.9863ZM15.7414 51.316L20.1132 47.9157L18.5784 45.9422L14.2066 49.3428L15.7414 51.316ZM8.7868 45.91L14.0901 51.2132L15.8579 49.4455L10.5546 44.1423L8.7868 45.91ZM12.0843 39.8867L8.684 44.2585L10.6574 45.7935L14.0577 41.4218L12.0843 39.8867ZM9.27472 34.7128C9.81362 37.0923 10.7515 39.3198 12.0137 41.321L14.1283 39.9875C13.0146 38.2215 12.1879 36.2575 11.713 34.1605L9.27472 34.7128ZM4.84495 34.9903L10.3388 35.677L10.6489 33.1965L5.15505 32.5097L4.84495 34.9903ZM3.75 26.25V33.75H6.25V26.25H3.75ZM10.3388 24.3229L4.84495 25.0097L5.15505 27.4903L10.6489 26.8035L10.3388 24.3229ZM12.0137 18.679C10.7515 20.6803 9.81362 22.9078 9.27472 25.2872L11.713 25.8395C12.1879 23.7424 13.0146 21.7785 14.1283 20.0126L12.0137 18.679ZM8.68397 15.7414L12.0843 20.1132L14.0577 18.5784L10.6574 14.2066L8.68397 15.7414ZM14.0901 8.78677L8.7868 14.0901L10.5545 15.8579L15.8579 10.5545L14.0901 8.78677ZM20.1132 12.0843L15.7414 8.68397L14.2066 10.6573L18.5784 14.0577L20.1132 12.0843ZM25.2872 9.27472C22.9078 9.81362 20.6803 10.7515 18.679 12.0137L20.0126 14.1283C21.7785 13.0146 23.7424 12.1879 25.8395 11.713L25.2872 9.27472ZM25.0097 4.84495L24.3229 10.3388L26.8035 10.6489L27.4903 5.15505L25.0097 4.84495Z" fill="#37B994"/>
<path d="M30 40C35.5228 40 40 35.5228 40 30C40 24.4772 35.5228 20 30 20C24.4772 20 20 24.4772 20 30C20 35.5228 24.4772 40 30 40Z" stroke="#37B994" stroke-width="2.5" stroke-linejoin="round"/>
</g>
<defs>
<clipPath id="clip0_119_1116">
<rect width="60" height="60" fill="white"/>
</clipPath>
</defs>
</svg>
