<svg width="60" height="60" viewBox="0 0 60 60" fill="none" xmlns="http://www.w3.org/2000/svg">
<path d="M51 37.7812L54.9375 40.125C55.7812 40.9688 55.7812 42.375 54.9375 43.2187L31.875 58.4063C31.0313 59.25 29.625 59.25 28.7813 58.4063L5.71875 43.2187C4.875 42.375 4.875 40.9688 5.71875 40.125L9.65625 37.7812" stroke="#37B994" stroke-width="1.875"/>
<path d="M51 29.625L54.9375 31.9687C55.7812 32.8125 55.7812 34.2188 54.9375 35.0625L31.875 50.25C31.0313 51.0937 29.625 51.0937 28.7813 50.25L5.71875 35.0625C4.875 34.2188 4.875 32.8125 5.71875 31.9687L9.65625 29.625" stroke="#37B994" stroke-width="1.875"/>
<path d="M51 21.5625L54.9375 23.9063C55.7812 24.75 55.7812 26.1562 54.9375 27L31.875 42.1875C31.0313 43.0313 29.625 43.0313 28.7813 42.1875L5.71875 27C4.875 26.1562 4.875 24.75 5.71875 23.9063L9.65625 21.5625" stroke="#37B994" stroke-width="1.875"/>
<path d="M54.9375 15.6562C55.7812 16.5 55.7812 17.9063 54.9375 18.75L31.875 33.9375C31.0313 34.7813 29.625 34.7813 28.7813 33.9375L5.71875 18.75C4.875 17.9063 4.875 16.5 5.71875 15.6562L28.7813 1.96875C29.625 1.125 31.0313 1.125 31.875 1.96875L54.9375 15.6562Z" stroke="#37B994" stroke-width="1.875"/>
</svg>
